<?xml version="1.0" standalone="no"?>
<!DOCTYPE svg PUBLIC "-//W3C//DTD SVG 20010904//EN"
 "http://www.w3.org/TR/2001/REC-SVG-20010904/DTD/svg10.dtd">
<svg version="1.0" xmlns="http://www.w3.org/2000/svg"
 width="2200.000000pt" height="1071.000000pt" viewBox="0 0 2200.000000 1071.000000"
 preserveAspectRatio="xMidYMid meet">
<metadata>
Created by potrace 1.16, written by Peter Selinger 2001-2019
</metadata>
<g transform="translate(0.000000,1071.000000) scale(0.100000,-0.100000)"
fill="#000000" stroke="none">
<path d="M3166 7362 c-6 -11 -341 -1007 -362 -1077 -8 -27 -19 -59 -24 -70
-15 -34 -510 -1520 -510 -1532 0 -6 15 -15 33 -18 56 -12 228 -71 322 -109
632 -260 1148 -656 1536 -1177 35 -48 70 -95 76 -105 7 -11 23 -35 36 -54 74
-112 193 -332 255 -470 52 -117 60 -137 67 -160 9 -29 54 -120 59 -120 5 0 1
16 -31 140 -40 155 -97 342 -123 405 -5 11 -14 38 -21 60 -6 22 -15 45 -19 50
-4 6 -11 21 -15 35 -4 14 -13 39 -20 55 -8 17 -28 64 -45 105 -293 686 -781
1242 -1338 1525 -60 30 -151 70 -203 88 l-94 32 26 75 c14 41 51 152 83 245
32 94 61 179 66 190 9 21 62 172 130 375 21 63 66 194 100 290 75 214 186 535
210 610 18 55 18 55 57 52 162 -12 377 -152 477 -310 30 -47 42 -52 51 -19 3
12 10 31 15 42 23 49 120 324 120 338 0 20 -156 149 -285 234 -156 104 -369
208 -548 267 -54 18 -73 20 -81 8z"/>
<path d="M6920 7330 c-138 -51 -341 -154 -461 -232 -104 -69 -251 -182 -286
-220 l-22 -24 53 -144 c78 -210 98 -260 105 -260 3 1 28 31 55 68 114 156 271
254 458 286 l37 7 20 -63 c10 -35 40 -121 64 -193 25 -71 82 -236 127 -365 45
-129 90 -260 100 -290 10 -30 48 -140 85 -245 36 -104 82 -237 101 -295 19
-58 39 -114 44 -125 15 -35 91 -267 88 -270 -2 -1 -46 -17 -98 -36 -363 -128
-738 -412 -1040 -785 -157 -196 -262 -359 -384 -599 -116 -228 -174 -368 -261
-629 -50 -151 -129 -435 -122 -442 5 -5 34 55 97 206 60 140 173 367 211 422
11 14 19 29 19 32 0 4 5 12 10 19 6 7 34 49 64 94 387 581 963 1042 1638 1312
68 27 137 53 153 57 17 4 35 10 40 14 6 4 43 15 83 25 73 17 82 26 63 63 -6 9
-18 44 -28 77 -29 94 -673 2018 -683 2040 -5 11 -14 38 -20 60 -6 22 -14 47
-17 55 -3 8 -36 105 -73 215 -61 185 -68 200 -91 202 -13 1 -71 -16 -129 -37z"/>
<path d="M8970 5150 l0 -1650 280 0 280 0 0 640 0 640 358 0 c605 0 825 23
1048 109 119 46 201 98 285 181 169 167 263 371 288 625 27 270 -37 524 -185
731 -123 173 -336 296 -584 338 -177 30 -342 36 -1057 36 l-713 0 0 -1650z
m1548 1120 c134 -12 219 -49 293 -127 162 -172 173 -495 21 -664 -61 -68 -118
-104 -214 -134 -115 -36 -249 -45 -690 -45 l-398 0 0 490 0 490 443 0 c243 -1
489 -5 545 -10z"/>
<path d="M11850 6505 l0 -295 270 0 270 0 0 295 0 295 -270 0 -270 0 0 -295z"/>
<path d="M3852 6051 c-91 -36 -160 -105 -192 -191 -32 -86 -26 -203 15 -278
34 -63 85 -112 157 -148 45 -24 65 -28 138 -28 70 0 95 5 140 26 70 32 136 98
168 168 35 74 36 202 4 271 -34 72 -96 135 -167 169 -54 26 -73 30 -141 29
-49 -1 -96 -8 -122 -18z"/>
<path d="M6175 6052 c-81 -32 -143 -89 -186 -172 -33 -63 -35 -212 -3 -281 33
-70 88 -125 163 -161 58 -28 76 -32 146 -32 159 1 274 88 320 242 49 159 -32
328 -192 398 -64 29 -183 32 -248 6z"/>
<path d="M13655 5973 c-65 -8 -213 -47 -280 -73 -130 -52 -222 -110 -328 -207
-242 -222 -357 -536 -357 -975 0 -191 11 -294 46 -437 77 -314 259 -554 528
-697 138 -73 250 -106 430 -124 482 -49 942 182 1136 570 96 193 134 387 134
700 0 222 -14 334 -61 483 -130 415 -462 697 -887 756 -72 10 -293 13 -361 4z
m325 -479 c178 -50 323 -195 390 -390 37 -105 51 -212 51 -380 0 -314 -58
-501 -201 -644 -119 -119 -243 -165 -420 -157 -162 7 -263 51 -371 162 -128
132 -185 296 -196 565 -9 226 27 437 98 571 61 114 179 217 301 264 97 36 236
40 348 9z"/>
<path d="M11852 4718 l3 -1213 265 0 265 0 3 1213 2 1212 -270 0 -270 0 2
-1212z"/>
<path d="M3888 5300 c-108 -19 -215 -99 -239 -180 -6 -21 -9 -136 -7 -292 l3
-257 70 34 c127 63 337 141 510 190 33 9 66 19 73 21 11 3 13 35 10 152 -3
139 -5 149 -29 187 -53 80 -113 121 -207 140 -73 16 -112 17 -184 5z"/>
<path d="M6207 5300 c-103 -18 -216 -103 -237 -180 -5 -19 -10 -101 -10 -182
0 -134 2 -148 18 -148 53 -1 387 -128 539 -206 56 -28 104 -49 108 -46 3 3 5
128 5 278 0 244 -2 277 -19 316 -35 81 -115 141 -219 164 -73 15 -112 16 -185
4z"/>
<path d="M4920 4873 c-119 -7 -370 -43 -485 -69 -190 -44 -449 -119 -530 -155
-11 -5 -56 -22 -100 -37 -87 -32 -119 -62 -38 -36 399 127 619 173 1070 224
115 13 494 13 599 0 43 -5 122 -14 174 -20 220 -25 515 -97 753 -184 112 -41
127 -30 22 16 -39 16 -83 35 -100 43 -41 18 -254 89 -340 113 -311 89 -671
126 -1025 105z"/>
<path d="M4870 4769 c-41 -5 -122 -13 -180 -19 -58 -6 -127 -15 -155 -20 -324
-61 -569 -120 -590 -142 -7 -7 -2 -9 15 -5 14 3 90 19 170 35 80 17 181 35
225 42 44 6 100 15 125 20 101 21 501 50 696 50 197 0 277 -5 529 -36 180 -21
479 -81 527 -105 9 -5 19 -5 22 0 18 28 -407 134 -644 161 -52 6 -134 15 -181
20 -102 12 -453 11 -559 -1z"/>
<path d="M1816 3748 c-14 -62 -30 -126 -35 -143 -26 -87 -93 -386 -88 -391 3
-3 21 -1 39 5 104 33 366 60 583 60 284 0 511 -31 843 -113 128 -32 424 -134
567 -196 316 -135 557 -271 908 -510 28 -19 -47 71 -105 126 -43 41 -244 205
-287 234 -13 8 -48 33 -79 56 -176 126 -547 323 -708 374 -22 7 -52 18 -69 25
-34 15 -154 53 -260 83 -268 76 -536 112 -842 112 l-203 0 9 23 c4 12 11 45
15 72 7 45 29 165 41 221 4 18 -3 24 -48 38 -50 16 -174 35 -229 36 -25 0 -27
-4 -52 -112z"/>
<path d="M8295 3853 c-65 -7 -151 -24 -178 -35 -26 -10 -28 -14 -22 -52 4 -23
10 -54 15 -71 5 -16 14 -64 20 -105 6 -41 13 -85 15 -96 5 -21 3 -21 -263 -27
-147 -4 -292 -11 -322 -16 -30 -6 -97 -17 -149 -26 -338 -57 -714 -189 -1031
-362 -242 -133 -522 -335 -693 -502 -83 -81 -123 -132 -76 -98 346 251 829
499 1216 626 174 57 267 82 458 125 254 56 647 81 890 56 125 -13 294 -39 333
-51 43 -14 48 -8 34 38 -6 21 -25 97 -42 168 -17 72 -34 144 -39 160 -5 17
-21 85 -37 153 l-29 122 -35 -1 c-19 -1 -48 -4 -65 -6z"/>
<path d="M19396 3023 c-35 -9 -94 -54 -120 -91 -37 -54 -56 -116 -56 -184 0
-97 45 -148 132 -148 132 0 222 86 251 241 14 79 -7 136 -62 167 -37 21 -97
27 -145 15z m74 -149 c0 -18 -9 -58 -21 -89 -22 -58 -52 -84 -85 -71 -36 14
12 182 59 203 30 14 47 -1 47 -43z"/>
<path d="M19540 2634 c-168 -218 -309 -403 -313 -410 -6 -11 5 -14 61 -14 l69
0 311 405 c172 223 312 407 312 410 0 3 -30 5 -67 5 l-68 0 -305 -396z"/>
<path d="M9216 3012 c-3 -5 -46 -172 -96 -373 -50 -200 -93 -372 -96 -382 -6
-18 4 -19 218 -15 248 5 278 11 354 73 54 45 104 141 104 202 0 49 -11 75 -46
114 l-24 25 30 22 c50 37 85 108 85 174 0 90 -49 141 -150 158 -73 12 -372 13
-379 2z m361 -147 c18 -25 11 -79 -14 -108 -31 -34 -77 -47 -173 -47 -98 0
-97 -1 -81 60 6 19 15 55 21 78 l11 44 110 -4 c97 -3 113 -6 126 -23z m-58
-309 c44 -40 12 -133 -59 -168 -27 -14 -60 -18 -143 -18 -99 0 -108 2 -103 18
3 9 15 57 27 106 l22 88 117 -3 c99 -3 121 -7 139 -23z"/>
<path d="M10465 3008 c-2 -7 -45 -175 -95 -373 -50 -198 -93 -368 -96 -377 -5
-16 3 -18 70 -18 l75 0 10 38 c33 123 181 723 181 732 0 15 -140 13 -145 -2z"/>
<path d="M11260 2983 c-5 -21 -13 -55 -16 -76 l-7 -38 74 3 73 3 11 45 c6 25
15 57 18 73 l7 27 -74 0 -75 0 -11 -37z"/>
<path d="M13015 2909 c-23 -92 -30 -109 -44 -103 -82 34 -178 24 -262 -27 -56
-35 -90 -77 -130 -163 -43 -91 -55 -181 -35 -248 19 -63 29 -77 80 -112 32
-21 50 -26 103 -26 35 0 79 7 98 14 19 8 35 11 35 5 0 -5 30 -9 68 -9 l67 0
94 378 c52 207 96 383 99 390 3 9 -15 12 -71 12 l-75 0 -27 -111z m-108 -223
c25 -22 28 -30 27 -84 -3 -149 -104 -282 -192 -251 -59 20 -72 105 -32 212 25
65 52 102 94 128 41 25 69 24 103 -5z"/>
<path d="M14180 2983 c-5 -21 -13 -55 -16 -75 l-7 -38 71 0 71 0 11 38 c5 20
13 54 16 75 l7 37 -71 0 -71 0 -11 -37z"/>
<path d="M14845 3008 c-138 -49 -237 -213 -280 -463 -25 -142 -2 -237 68 -289
24 -18 43 -21 120 -21 110 0 166 23 229 95 111 126 191 437 147 571 -15 43
-55 88 -96 105 -38 16 -145 17 -188 2z m132 -135 c25 -38 21 -123 -11 -248
-44 -171 -101 -261 -177 -280 -20 -5 -33 0 -55 18 -27 24 -29 30 -28 94 2 138
73 346 140 409 47 45 104 48 131 7z"/>
<path d="M15575 3008 c-11 -32 -185 -739 -185 -753 0 -12 15 -15 75 -15 73 0
75 1 82 28 3 15 23 92 43 172 l36 145 163 3 c152 2 162 1 157 -15 -16 -54 -76
-304 -76 -317 0 -13 14 -16 75 -16 l74 0 10 38 c33 123 181 723 181 732 0 6
-31 10 -75 10 -73 0 -75 -1 -82 -27 -3 -16 -21 -84 -38 -153 l-31 -125 -162
-3 c-89 -1 -162 0 -162 3 0 3 16 69 35 145 19 76 35 144 35 149 0 16 -149 14
-155 -1z"/>
<path d="M17395 3008 c-2 -7 -9 -33 -15 -58 -6 -25 -13 -53 -16 -62 -5 -16 3
-18 69 -18 l75 0 16 65 c9 35 16 69 16 75 0 15 -140 13 -145 -2z"/>
<path d="M17526 2638 c-53 -211 -96 -386 -96 -390 0 -5 33 -8 73 -8 l72 0 94
378 c52 207 96 383 99 390 3 9 -15 12 -70 12 l-75 0 -97 -382z"/>
<path d="M18267 3006 c-121 -45 -211 -161 -224 -290 -8 -78 3 -122 44 -166 55
-62 147 -77 242 -41 l50 19 -10 -25 c-31 -83 -111 -154 -173 -156 -48 -1 -66
17 -66 69 l0 44 -37 0 c-21 0 -55 -3 -75 -6 -38 -7 -38 -7 -38 -56 0 -108 69
-168 191 -168 121 0 216 53 287 159 105 157 158 426 104 528 -13 24 -41 55
-64 70 -35 23 -54 28 -117 31 -47 1 -91 -3 -114 -12z m147 -125 c73 -81 -28
-271 -145 -271 -33 0 -79 53 -79 92 0 64 55 153 115 186 32 18 90 14 109 -7z"/>
<path d="M18846 3004 c-100 -37 -185 -145 -235 -301 -57 -181 -64 -326 -18
-394 40 -59 70 -74 158 -78 74 -3 85 -1 145 29 49 24 76 46 110 88 100 128
170 412 134 544 -14 48 -55 97 -97 114 -42 18 -147 17 -197 -2z m134 -126 c27
-29 27 -114 0 -228 -45 -187 -105 -289 -181 -305 -29 -7 -36 -4 -62 25 -28 32
-29 36 -24 104 12 149 70 318 131 382 35 36 49 44 79 44 24 0 43 -7 57 -22z"/>
<path d="M10023 2820 c-138 -29 -251 -151 -284 -308 -25 -124 9 -220 96 -262
40 -19 58 -22 133 -18 98 5 156 26 215 78 36 31 94 116 85 125 -2 2 -34 7 -71
11 l-67 7 -41 -46 c-47 -54 -98 -73 -147 -56 -33 11 -62 59 -62 103 l0 26 202
2 202 3 8 30 c5 17 10 62 11 100 3 125 -60 197 -183 208 -30 3 -74 2 -97 -3z
m105 -133 c12 -13 25 -37 28 -55 l7 -32 -123 0 -123 0 25 33 c55 71 146 97
186 54z"/>
<path d="M10814 2820 c-64 -9 -149 -55 -179 -95 -33 -44 -56 -93 -47 -99 5 -3
38 -8 74 -12 60 -6 66 -5 72 13 3 11 19 32 35 47 33 32 99 44 144 27 23 -9 27
-16 27 -49 l0 -39 -77 -12 c-207 -32 -223 -37 -282 -87 -45 -37 -71 -94 -71
-152 0 -55 22 -92 70 -117 41 -21 162 -19 230 5 47 16 56 17 63 4 6 -10 28
-14 81 -14 l73 0 -5 48 c-3 34 8 97 38 222 53 220 48 260 -35 295 -41 17 -149
25 -211 15z m86 -344 c0 -22 -43 -79 -79 -103 -84 -57 -188 -32 -151 37 17 32
53 50 131 64 99 18 99 18 99 2z"/>
<path d="M11615 2821 c-67 -11 -124 -41 -168 -90 -41 -45 -71 -98 -59 -104 4
-3 37 -8 73 -12 61 -6 68 -5 73 12 3 11 20 33 37 49 26 25 38 29 89 29 72 0
95 -17 86 -63 -7 -28 -10 -30 -84 -41 -193 -30 -206 -33 -268 -79 -106 -77
-111 -235 -9 -278 51 -21 164 -18 227 6 47 18 54 18 64 5 8 -11 31 -15 82 -15
l71 0 -5 48 c-4 35 5 89 35 210 23 90 41 178 41 197 0 50 -19 84 -60 105 -42
22 -154 32 -225 21z m85 -342 c0 -28 -35 -80 -71 -105 -48 -33 -128 -44 -148
-21 -19 23 -9 68 19 89 14 10 59 24 100 32 99 18 100 18 100 5z"/>
<path d="M12217 2823 c-4 -4 -51 -9 -104 -12 l-97 -6 -68 -270 c-37 -148 -68
-276 -68 -283 0 -10 18 -12 73 -10 l72 3 45 175 c25 96 54 190 63 207 23 43
60 67 92 59 14 -3 35 -9 48 -12 19 -4 27 3 56 52 34 54 34 57 16 70 -34 25
-114 42 -128 27z"/>
<path d="M13394 2820 c-100 -15 -182 -73 -222 -156 -8 -19 -14 -36 -11 -38 2
-2 34 -7 70 -11 l66 -7 23 37 c36 57 114 81 175 53 22 -10 26 -17 23 -47 -4
-41 -11 -44 -151 -61 -155 -19 -244 -76 -273 -177 -15 -51 -15 -58 1 -99 25
-67 72 -88 185 -82 60 3 99 10 128 25 40 20 42 20 42 2 0 -17 8 -19 78 -19
l79 0 -5 53 c-3 38 7 98 38 226 26 109 39 183 35 200 -10 42 -34 72 -68 86
-43 17 -150 25 -213 15z m86 -335 c0 -26 -36 -79 -70 -104 -92 -67 -195 -46
-160 31 16 34 39 46 117 58 37 6 69 13 72 16 6 6 41 5 41 -1z"/>
<path d="M13980 2820 c-14 -4 -62 -8 -106 -9 l-82 -1 -66 -267 c-37 -148 -69
-276 -72 -285 -5 -16 3 -18 70 -18 l75 0 10 38 c5 20 24 92 41 160 17 68 38
141 46 162 21 52 70 94 101 86 76 -19 71 -20 94 18 12 20 23 35 25 33 2 -2
-23 -106 -56 -233 -33 -126 -60 -237 -60 -247 0 -16 8 -18 72 -15 l72 3 68
270 c37 149 68 276 68 283 0 15 -136 17 -145 2 -4 -6 -14 -4 -28 5 -28 18 -95
26 -127 15z"/>
<path d="M16425 2821 c-67 -11 -124 -41 -168 -90 -41 -45 -71 -98 -59 -104 4
-3 37 -8 73 -12 61 -6 68 -5 73 12 3 11 20 33 37 49 26 25 38 29 89 29 72 0
95 -17 86 -63 -7 -28 -10 -30 -84 -41 -193 -30 -206 -33 -268 -79 -106 -77
-111 -235 -9 -278 51 -21 164 -18 227 6 47 18 54 18 64 5 8 -11 31 -15 82 -15
l71 0 -5 48 c-4 35 5 89 35 210 23 90 41 178 41 197 0 50 -19 84 -60 105 -42
22 -154 32 -225 21z m85 -342 c0 -28 -35 -80 -71 -105 -48 -33 -128 -44 -148
-21 -19 23 -9 68 19 89 14 10 59 24 100 32 99 18 100 18 100 5z"/>
<path d="M16949 2817 c-164 -46 -240 -206 -138 -291 16 -14 62 -35 102 -46
114 -33 127 -40 127 -65 0 -52 -91 -87 -154 -61 -36 15 -41 26 -36 85 2 22 -1
23 -32 18 -18 -4 -52 -9 -75 -13 l-43 -7 0 -51 c0 -61 25 -107 72 -133 26 -14
56 -18 138 -18 95 0 110 3 156 27 89 47 140 127 131 206 -7 66 -34 87 -164
128 -101 32 -113 38 -113 59 0 16 10 27 34 39 69 33 136 9 136 -50 0 -25 1
-25 58 -18 86 10 96 18 88 67 -8 53 -33 87 -77 109 -47 23 -153 31 -210 15z"/>
<path d="M11215 2798 c-2 -7 -36 -141 -75 -298 -38 -157 -77 -300 -85 -317
-15 -34 -20 -36 -67 -33 -23 1 -31 -6 -53 -50 -14 -28 -23 -55 -20 -60 3 -5
30 -12 61 -15 105 -14 180 28 220 123 8 20 50 178 93 350 l79 312 -75 0 c-50
0 -75 -4 -78 -12z"/>
<path d="M17276 2537 c-38 -149 -71 -278 -74 -284 -3 -10 15 -13 72 -13 l75 0
10 38 c21 80 131 522 131 527 0 3 -33 5 -72 5 l-73 0 -69 -273z"/>
<path d="M5005 2765 c-80 -17 -148 -57 -215 -125 -53 -52 -110 -148 -110 -183
0 -14 11 -17 58 -17 57 1 57 1 75 40 22 48 92 118 147 147 91 49 218 50 311 3
54 -28 136 -110 155 -155 14 -34 15 -35 74 -35 33 0 60 4 60 9 0 17 -44 107
-69 141 -113 153 -294 218 -486 175z"/>
<path d="M19750 2624 c-48 -21 -87 -60 -118 -119 -23 -43 -27 -63 -27 -137 0
-78 2 -89 24 -112 83 -89 249 -41 317 91 85 163 37 294 -106 293 -30 -1 -71
-8 -90 -16z m99 -114 c10 -71 -46 -190 -89 -190 -33 0 -38 40 -14 119 25 87
94 134 103 71z"/>
</g>
</svg>
