<svg version="1.1" id="Layer_1" xmlns="http://www.w3.org/2000/svg" xmlns:xlink="http://www.w3.org/1999/xlink" x="0px" y="0px"
	 width="100%" viewBox="0 0 2200 1071" enable-background="new 0 0 2200 1071" xml:space="preserve">
<path fill="#000000" opacity="1.000000" stroke="none" 
	d="
M1472.000000,1072.000000 
	C981.333496,1072.000000 491.166962,1072.000000 1.000329,1072.000000 
	C1.000219,715.000244 1.000219,358.000519 1.000110,1.000568 
	C734.332825,1.000379 1467.665649,1.000379 2200.999023,1.000189 
	C2200.999268,357.999420 2200.999268,714.998840 2200.999512,1071.999146 
	C1958.166626,1072.000000 1715.333374,1072.000000 1472.000000,1072.000000 
M590.025452,796.271240 
	C590.438416,795.593689 590.713501,794.756348 591.285461,794.263123 
	C598.022705,788.451965 604.619202,782.456360 611.613647,776.969360 
	C625.699341,765.919312 639.599121,754.557190 654.343872,744.444031 
	C668.122375,734.993774 682.642700,726.532898 697.305847,718.492432 
	C710.257935,711.390198 723.627808,704.923706 737.239075,699.186890 
	C749.374451,694.072205 761.965149,689.918701 774.584351,686.099365 
	C792.722412,680.609558 811.113525,675.964172 830.039185,674.024292 
	C844.561035,672.535828 859.110107,671.308777 873.652283,670.024902 
	C875.707825,669.843445 877.793152,669.999878 880.209839,669.999878 
	C879.879211,668.508911 879.777710,667.707275 879.523865,666.957214 
	C874.718689,652.759277 869.845215,638.584290 865.088013,624.370361 
	C858.082275,603.438354 851.196472,582.466248 844.185303,561.536133 
	C837.850586,542.625122 831.343506,523.771790 825.053467,504.846161 
	C821.447876,493.997406 818.316772,482.989349 814.631836,472.168884 
	C806.887939,449.429810 798.791077,426.810608 791.083679,404.059387 
	C784.879761,385.746368 779.093262,367.292023 772.906372,348.973053 
	C772.474670,347.694763 769.933289,345.930481 768.918823,346.231506 
	C757.839966,349.518982 746.869995,353.173126 736.105164,356.651642 
	C766.921265,448.439392 797.479858,539.459961 828.118408,630.718933 
	C822.836548,632.386475 817.824402,633.684692 813.026733,635.538208 
	C800.079224,640.540344 786.988892,645.267517 774.384338,651.040710 
	C754.289795,660.244690 733.984314,669.224426 714.802979,680.120850 
	C694.930847,691.409851 676.007019,704.460083 657.218567,717.530762 
	C645.979919,725.349060 635.473083,734.321594 625.236755,743.447754 
	C616.229919,751.477722 607.750610,760.163269 599.608459,769.079895 
	C592.647339,776.702942 586.328369,784.936829 580.037048,793.139648 
	C574.842041,799.913025 570.103149,807.036255 565.049988,813.259521 
	C568.631165,805.029663 571.706665,796.531128 575.905457,788.629517 
	C583.205688,774.891357 590.815430,761.284119 599.001343,748.058960 
	C608.866333,732.120972 620.617859,717.516235 633.607788,704.003601 
	C641.066223,696.244995 648.727051,688.582642 657.004578,681.732178 
	C669.942261,671.025024 682.912720,660.178223 696.917664,650.988220 
	C712.070068,641.045288 727.978271,631.982300 744.379211,624.288696 
	C761.509888,616.252869 779.619995,610.304749 797.777893,603.259277 
	C796.574341,599.233521 795.177002,593.992065 793.443787,588.864136 
	C787.132751,570.192505 780.682312,551.567932 774.336670,532.907837 
	C768.683777,516.284851 763.011597,499.667572 757.509460,482.994476 
	C751.244568,464.010193 745.315063,444.914276 738.948730,425.964630 
	C733.183472,408.803986 726.932739,391.807007 721.074341,374.676941 
	C716.965210,362.661682 712.932983,350.609619 709.344482,338.433075 
	C708.238953,334.681885 706.158630,334.355927 703.528992,335.324829 
	C694.524841,338.642548 685.350037,341.685425 676.761292,345.895660 
	C665.466858,351.432159 654.282227,357.387817 643.764038,364.256165 
	C633.816528,370.751862 624.791748,378.660645 615.609802,385.755707 
	C621.126892,400.302094 626.214661,413.716492 631.640503,428.022278 
	C645.183533,407.449219 662.017273,393.722839 686.644714,391.141907 
	C707.778442,452.377533 728.964172,513.763977 750.242798,575.419312 
	C731.761719,581.480652 714.179077,588.773804 698.766663,600.158020 
	C685.244263,610.146118 671.543640,620.126526 659.375366,631.645752 
	C648.252869,642.174988 638.604675,654.392212 629.141968,666.517395 
	C608.537109,692.919678 593.047913,722.351379 581.218506,753.548645 
	C573.608093,773.619019 567.627930,794.314148 561.175720,814.810730 
	C560.082153,818.284424 560.298584,822.170410 560.647339,825.932800 
	C561.291443,825.803650 562.052124,825.852844 562.562439,825.519104 
	C573.637329,818.277527 584.303833,810.312012 595.826050,803.877380 
	C612.993469,794.290161 630.408630,784.979736 648.377258,777.043457 
	C664.667908,769.848267 681.774841,764.460876 698.639709,758.616577 
	C719.821167,751.276489 741.906128,747.801025 764.030518,745.235657 
	C777.341858,743.692139 790.908325,744.051636 804.357666,744.111633 
	C811.939697,744.145447 819.549438,745.053345 827.087830,746.024475 
	C836.524292,747.240173 845.900330,748.925049 856.062073,750.527161 
	C850.826660,728.900452 845.659668,707.556274 840.392944,685.800049 
	C834.690125,686.360596 829.413757,686.661926 824.213989,687.461609 
	C820.327393,688.059387 816.428162,689.011475 812.772766,690.422852 
	C811.614075,690.870239 810.394470,693.438782 810.613770,694.811157 
	C812.192322,704.689209 814.133789,714.509338 816.081177,724.999268 
	C813.307251,724.999268 811.339478,724.958679 809.373779,725.005920 
	C796.422668,725.317017 783.369995,724.743713 770.545837,726.190247 
	C752.864197,728.184753 735.092224,730.640625 717.847900,734.885498 
	C701.393127,738.935913 685.344666,744.967712 669.514832,751.146240 
	C647.075256,759.904541 626.377747,772.073975 606.617310,785.833252 
	C601.128235,789.655273 595.495178,793.270752 590.025452,796.271240 
M434.922089,796.439514 
	C433.726288,795.901123 432.437622,795.506348 431.348633,794.802673 
	C415.407349,784.501160 399.956085,773.338623 383.464020,764.015930 
	C358.125580,749.692627 330.754913,740.118958 302.455872,733.327881 
	C277.728638,727.393921 252.686630,724.183472 227.197784,724.972778 
	C221.433517,725.151306 215.658997,724.998962 209.689911,724.998962 
	C211.761230,713.417419 213.722275,702.452515 215.891388,690.324280 
	C206.754791,688.825867 198.164322,687.448669 189.586899,685.994507 
	C186.207916,685.421692 184.858398,687.163147 184.135681,690.133606 
	C179.531189,709.058716 174.844818,727.963806 170.259720,746.893494 
	C169.977509,748.058594 170.328323,749.376953 170.361877,750.120605 
	C185.650650,748.051331 200.450851,745.190247 215.373550,744.227356 
	C238.425781,742.739868 261.600372,743.744507 284.229187,748.424988 
	C304.699677,752.659058 325.189270,757.599548 344.915741,764.413391 
	C365.790375,771.623779 386.372833,780.256653 405.977844,790.403320 
	C425.459412,800.486145 443.553680,813.245483 462.317932,824.730408 
	C463.197571,825.268738 464.677185,824.826965 465.966064,823.999878 
	C462.379120,810.190063 459.319031,796.214905 455.052216,782.618469 
	C451.047882,769.858337 445.936432,757.431580 440.989166,744.986450 
	C437.740051,736.813110 434.294708,728.673950 430.279602,720.857300 
	C419.061707,699.018311 406.735779,677.769897 390.836121,658.980835 
	C380.050171,646.234680 368.888855,633.602844 356.494568,622.480896 
	C345.113007,612.267639 332.212738,603.593628 319.328125,595.250610 
	C305.796295,586.488586 291.037384,579.940857 275.706390,575.646790 
	C276.955536,571.449219 278.038239,567.189331 279.486603,563.057678 
	C284.256958,549.449768 289.254547,535.921204 293.987701,522.300598 
	C299.919952,505.229279 305.633484,488.082123 311.522858,470.995789 
	C316.606812,456.246063 321.870148,441.558044 326.931030,426.800476 
	C330.733643,415.711945 334.285370,404.537170 338.127716,393.462830 
	C338.481873,392.442139 340.135986,391.222870 341.182922,391.226196 
	C343.420593,391.233307 345.688660,391.858643 347.886871,392.445709 
	C364.243439,396.814301 377.673523,405.556824 387.748047,419.274658 
	C389.711700,421.948425 391.698822,424.604980 394.143402,427.900848 
	C399.331360,414.359589 404.265137,401.841827 408.794128,389.179260 
	C409.326721,387.690247 408.182281,384.818420 406.873413,383.596405 
	C402.450073,379.466492 397.901794,375.333344 392.856720,372.034119 
	C381.292480,364.471588 369.775452,356.690277 357.542114,350.340973 
	C346.501251,344.610565 334.472809,340.806885 323.006012,335.861115 
	C318.588745,333.955872 317.175385,335.851135 315.946991,339.624756 
	C310.364594,356.774200 304.633270,373.875244 298.942322,390.989319 
	C288.939087,421.071136 278.985535,451.169617 268.896576,481.222687 
	C262.181335,501.226135 255.212296,521.144287 248.459442,541.135254 
	C243.207855,556.681946 238.100754,572.277649 232.958694,587.861145 
	C231.149658,593.343567 229.427536,598.854797 228.066254,603.102844 
	C246.588623,610.431763 264.459442,616.900818 281.818085,624.534485 
	C300.529572,632.763245 318.499207,642.620178 334.777313,655.095337 
	C349.854279,666.650024 365.013336,678.212402 379.064301,690.953552 
	C389.634216,700.538147 398.979156,711.610840 408.000610,722.726257 
	C416.573242,733.288513 424.711945,744.343750 431.778534,755.951111 
	C440.137909,769.681885 447.309814,784.151794 454.639374,798.483948 
	C456.959839,803.021362 458.134766,808.144653 459.203888,812.723816 
	C449.766479,796.661682 438.054535,782.249756 425.689301,768.470154 
	C416.741760,758.499023 406.813049,749.337219 396.763397,740.445740 
	C386.041748,730.959717 375.088440,721.621765 363.459900,713.304688 
	C350.210052,703.828064 336.449707,694.938599 322.283203,686.900696 
	C302.790436,675.840881 283.102539,664.962585 262.761658,655.608276 
	C244.586166,647.249817 225.410049,641.067749 206.678833,633.916565 
	C203.732803,632.791870 200.804825,631.619873 197.632690,630.377380 
	C203.650253,612.688354 209.601059,595.495483 215.344101,578.233459 
	C221.749252,558.981384 227.851807,539.628418 234.297134,520.390076 
	C240.372559,502.255798 246.767395,484.228760 252.935867,466.125305 
	C257.091522,453.929138 261.058655,441.668854 265.182709,429.461792 
	C269.051910,418.009033 273.131470,406.626343 276.907227,395.143341 
	C280.783356,383.354980 284.268097,371.436554 288.243408,359.683075 
	C289.101471,357.146088 288.550232,356.689056 286.370972,355.931519 
	C280.434296,353.867798 274.683502,351.245819 268.698730,349.351440 
	C263.707642,347.771637 258.489716,346.908539 253.790024,345.824402 
	C217.450623,454.312256 181.360260,562.056580 145.473770,669.192383 
	C159.512146,670.467712 173.506973,671.190430 187.329102,673.138550 
	C203.357880,675.397705 219.472443,677.813232 235.113388,681.851196 
	C251.881821,686.180176 268.368958,691.884827 284.557190,698.089294 
	C298.770508,703.536743 312.810242,709.747498 326.194611,716.976501 
	C347.591644,728.533203 368.426819,741.084839 387.850098,755.912354 
	C404.511383,768.631409 421.043945,781.432861 434.922089,796.439514 
M1770.000977,657.477905 
	C1772.351196,647.031555 1775.479126,636.687927 1776.876099,626.115601 
	C1779.173828,608.725098 1781.410889,591.204468 1781.708130,573.705322 
	C1782.018311,555.441895 1780.359131,537.110840 1778.912720,518.860779 
	C1777.305542,498.579590 1771.989014,479.314209 1762.162476,461.258331 
	C1754.682251,447.513702 1745.169556,435.517059 1732.640137,426.444214 
	C1705.341675,406.676575 1674.554199,400.378906 1641.796387,407.309143 
	C1610.338989,413.964294 1587.310425,432.738586 1572.423340,461.210571 
	C1565.637573,474.188721 1562.505127,488.213470 1560.831909,502.780487 
	C1559.192749,517.051514 1559.586548,531.201172 1562.243042,545.114685 
	C1565.700195,563.221680 1572.898682,579.719177 1585.242798,594.011963 
	C1596.643066,607.211670 1609.905396,617.185852 1626.276611,623.080322 
	C1641.826904,628.679382 1657.814209,630.641296 1674.128418,627.913330 
	C1687.664673,625.649780 1700.731567,621.811157 1712.054199,613.499634 
	C1717.190063,609.729614 1722.464111,606.148010 1728.163330,602.137634 
	C1727.380371,607.485352 1726.696289,612.164551 1726.010010,616.843506 
	C1723.446533,634.321289 1718.880493,651.128601 1710.109009,666.658569 
	C1704.954102,675.785217 1697.643677,682.756104 1688.781616,687.859131 
	C1678.005737,694.064026 1665.939575,695.424622 1653.811279,693.862305 
	C1644.244019,692.629944 1636.114258,688.159241 1629.719360,680.480225 
	C1621.626343,670.762024 1618.760742,659.235168 1617.038818,647.210083 
	C1616.678223,644.691956 1616.181519,644.279541 1613.322021,644.661377 
	C1604.363647,645.857666 1595.298950,646.248718 1586.280518,647.009644 
	C1579.286865,647.599731 1572.300659,648.276672 1564.698730,648.970947 
	C1565.528442,654.027161 1566.306152,658.477905 1566.983398,662.943970 
	C1569.894165,682.136169 1577.464478,699.120483 1590.849731,713.340576 
	C1607.667358,731.207092 1629.140991,739.131592 1652.901611,740.838440 
	C1675.847534,742.486694 1697.896240,738.310608 1718.033081,726.461487 
	C1728.719727,720.173096 1738.210571,712.478088 1746.080444,702.777466 
	C1756.890747,689.452271 1764.630249,674.541077 1770.000977,657.477905 
M1117.457397,412.988983 
	C1111.756470,409.650208 1106.274048,405.843384 1100.314087,403.059021 
	C1081.271240,394.162506 1060.609985,392.546753 1040.158203,392.225403 
	C994.514893,391.508087 948.852295,392.052704 903.198120,391.912964 
	C898.961609,391.899994 897.882385,393.263367 897.918091,397.328888 
	C898.098083,417.821899 898.000000,438.317322 898.000000,458.811920 
	C897.999939,544.455994 898.045654,630.100159 897.885315,715.743958 
	C897.875793,720.824707 899.212463,722.239563 904.275635,722.119507 
	C918.763611,721.776001 933.270935,721.765442 947.758179,722.123962 
	C952.887756,722.250977 954.142334,720.728577 954.115234,715.709961 
	C953.907227,677.221191 954.101807,638.730286 953.880554,600.241638 
	C953.851257,595.132324 955.267822,593.883728 960.285950,593.872742 
	C985.404541,593.817688 1010.521484,593.207153 1035.640503,593.054321 
	C1050.778320,592.962219 1065.780640,591.587219 1080.402222,587.843445 
	C1094.601807,584.207764 1108.433960,578.950867 1119.416016,568.909729 
	C1146.624390,544.032593 1155.823730,512.256531 1151.705444,476.579315 
	C1148.807129,451.470337 1138.443848,429.584717 1117.457397,412.988983 
M1859.550903,726.033447 
	C1873.479858,735.214233 1889.142212,739.614868 1905.453735,740.801392 
	C1921.694580,741.982910 1937.838013,740.550415 1953.327271,734.381348 
	C1969.445801,727.961731 1982.553223,717.815979 1992.936523,704.083435 
	C2003.262085,690.426880 2010.064697,674.966125 2014.928101,658.681274 
	C2022.444946,633.512939 2023.968872,607.455383 2024.789795,581.460205 
	C2025.273682,566.140747 2023.780762,550.749268 2022.955566,535.402039 
	C2022.532471,527.536804 2022.281372,519.571655 2020.806641,511.871094 
	C2016.821167,491.061646 2010.541748,470.978119 1999.849243,452.477386 
	C1990.882935,436.963776 1978.871094,424.443390 1962.997437,416.111389 
	C1952.315186,410.504303 1940.881958,407.160309 1928.668945,405.823303 
	C1907.997437,403.560364 1887.936768,405.112152 1869.275879,414.471039 
	C1841.215210,428.544128 1825.620972,453.031403 1816.078247,481.848511 
	C1809.163452,502.729492 1805.905396,524.488342 1805.280884,546.321533 
	C1804.618896,569.470154 1803.873291,592.703613 1806.835938,615.875793 
	C1808.699463,630.450928 1810.913452,644.833801 1814.844971,659.033813 
	C1822.340454,686.107056 1835.103271,709.462036 1859.550903,726.033447 
M1342.106323,480.463654 
	C1325.682983,486.220490 1311.380493,495.582367 1299.655151,508.177032 
	C1287.296143,521.452209 1279.541870,537.591858 1274.967773,555.196960 
	C1270.420776,572.697510 1269.605103,590.509460 1269.937622,608.489868 
	C1270.255859,625.699524 1273.056274,642.377502 1279.005737,658.528870 
	C1286.841064,679.800049 1300.420288,696.695740 1319.270142,708.949951 
	C1340.932983,723.032898 1364.945557,727.891235 1390.775269,726.219604 
	C1409.030273,725.038147 1426.046753,720.589172 1441.982910,711.948303 
	C1459.713623,702.334412 1473.520386,688.728210 1483.128296,670.813171 
	C1494.092529,650.369019 1496.926270,628.101746 1497.812622,605.536133 
	C1498.239502,594.668823 1497.235840,583.658813 1495.935059,572.826904 
	C1492.545776,544.601562 1481.364136,520.320129 1459.709351,501.006622 
	C1441.069702,484.382263 1419.195312,476.151550 1394.867065,474.161896 
	C1377.258789,472.721802 1359.735596,474.321930 1342.106323,480.463654 
M445.000275,538.500000 
	C445.000275,554.607178 445.000275,570.714355 445.000275,587.690186 
	C490.590057,577.941101 535.621521,577.608459 580.416626,587.413818 
	C580.779785,586.161804 580.948425,585.851624 580.948608,585.541382 
	C580.974060,541.398071 581.378662,497.249146 580.751709,453.114899 
	C580.574219,440.622131 573.780396,430.053925 563.981445,422.058167 
	C556.260376,415.758026 547.517822,411.450378 537.944031,408.233612 
	C525.656311,404.104889 513.243164,405.042084 500.801605,405.238251 
	C496.821960,405.300964 492.759705,406.432068 488.917114,407.648773 
	C478.995575,410.790344 469.580109,415.039429 461.699066,422.062866 
	C452.113403,430.605438 445.194824,440.765533 445.075806,454.044067 
	C444.826508,481.860718 445.000244,509.681122 445.000275,538.500000 
M470.523651,376.014191 
	C482.688232,386.028198 496.934174,390.698547 512.406250,390.849213 
	C525.401794,390.975800 538.219666,388.123840 548.784363,380.336212 
	C556.596497,374.577545 564.354248,367.809387 569.714172,359.858185 
	C580.267090,344.203339 583.168457,326.769287 579.275635,307.651947 
	C573.822937,280.874359 549.013977,257.586304 521.943726,255.129684 
	C505.903015,253.674011 490.293640,255.523468 476.281219,264.880066 
	C466.090637,271.684662 457.591583,280.103943 452.227448,290.962799 
	C444.808716,305.980896 442.657898,321.798889 446.851562,338.489380 
	C450.621216,353.492126 457.858612,365.932007 470.523651,376.014191 
M1240.000000,558.500000 
	C1239.999390,533.678589 1239.924805,508.856781 1240.074951,484.036316 
	C1240.098511,480.138733 1238.982422,478.860992 1235.006226,478.917877 
	C1220.349731,479.127686 1205.686646,479.120056 1191.029785,478.921875 
	C1187.116211,478.868958 1185.919922,480.043091 1185.925171,483.999786 
	C1186.028564,561.462402 1186.031494,638.925293 1185.925781,716.387878 
	C1185.919800,720.825562 1187.454102,722.139893 1191.743164,722.074219 
	C1205.233521,721.867615 1218.728882,722.001038 1232.222412,721.998047 
	C1239.989746,721.996338 1239.997925,721.992188 1239.998291,714.425537 
	C1240.000977,662.783691 1239.999878,611.141846 1240.000000,558.500000 
M604.151917,594.160278 
	C624.404907,600.674927 644.211975,608.296875 663.705444,619.170654 
	C663.837036,616.204895 663.981323,614.437622 663.983521,612.670288 
	C664.002136,597.840027 663.911682,583.009155 664.024658,568.179749 
	C664.097839,558.574524 659.341187,551.815735 651.655151,546.930908 
	C641.731934,540.624207 630.638062,539.574219 619.626160,542.426025 
	C606.788757,545.750732 595.404419,554.156189 596.931274,571.018127 
	C597.380249,575.976440 597.379089,581.046753 596.896240,585.998596 
	C596.393066,591.157776 598.073242,593.853027 604.151917,594.160278 
M383.434387,543.800293 
	C372.653076,547.770264 363.583374,555.249573 364.932983,570.861572 
	C365.361603,575.819397 365.000000,580.845520 365.000000,585.840393 
	C365.000000,595.269714 365.000000,604.699097 365.000000,614.806396 
	C369.119263,612.999023 372.492859,611.307678 376.011749,610.010559 
	C393.337830,603.623718 410.643036,597.168152 428.109039,591.184631 
	C431.187500,590.130005 432.073883,588.970886 432.027283,586.104309 
	C431.932556,580.278564 431.942780,574.449341 432.014313,568.622925 
	C432.136810,558.645142 427.086121,551.518127 419.032654,546.631042 
	C408.062592,539.974060 396.203003,539.826172 383.434387,543.800293 
M369.519806,480.180176 
	C366.054321,486.601837 364.435425,493.347626 364.939484,500.741364 
	C365.906647,514.928772 373.539062,524.141724 386.148071,529.442749 
	C397.434784,534.187866 408.309357,532.376770 418.061218,525.276733 
	C431.436249,515.538696 436.171753,497.644714 427.871826,482.315186 
	C422.771576,472.895264 414.772186,466.591248 404.172302,465.183868 
	C390.269135,463.337952 378.345398,467.621582 369.519806,480.180176 
M639.356262,465.790955 
	C635.573242,465.527435 631.789551,465.030273 628.007385,465.041931 
	C613.660583,465.086060 601.438843,475.928192 598.247070,488.010284 
	C590.514709,517.280396 615.472412,536.071960 637.643982,530.949646 
	C653.719910,527.235718 662.853333,515.865540 663.772095,499.557648 
	C664.681152,483.422455 656.267090,472.417572 639.356262,465.790955 
M1197.524048,392.001038 
	C1195.691772,392.001129 1193.829468,392.214172 1192.033081,391.960266 
	C1187.218750,391.279907 1185.802002,393.163055 1185.890015,398.003204 
	C1186.183838,414.155334 1186.081909,430.316742 1185.940430,446.472931 
	C1185.910156,449.936035 1187.006714,451.097076 1190.502197,451.061737 
	C1205.492188,450.910248 1220.485229,450.912506 1235.475220,451.060638 
	C1238.942261,451.094910 1240.090454,449.986969 1240.060303,446.495453 
	C1239.916870,429.839539 1239.919067,413.181091 1240.059448,396.525116 
	C1240.088623,393.058380 1238.986450,391.892181 1235.493652,391.939148 
	C1223.169556,392.104919 1210.841919,392.002045 1197.524048,392.001038 
M466.514526,593.999634 
	C485.391876,591.596130 504.328278,590.366394 523.369507,590.977112 
	C528.527466,591.142700 533.756714,590.525269 538.844971,591.149536 
	C552.643250,592.842163 566.529541,594.312805 580.109375,597.164368 
	C596.635315,600.634583 612.915161,605.309753 629.235901,609.706726 
	C635.072449,611.279175 640.718079,613.560364 646.450867,615.518005 
	C646.580994,615.038208 646.711182,614.558472 646.841370,614.078674 
	C603.534180,594.059204 558.109924,583.345825 510.163116,584.023560 
	C462.423431,584.698364 417.073517,596.098694 373.479004,614.951233 
	C377.175568,614.533508 380.571442,613.053284 384.109161,612.099060 
	C398.065002,608.335083 411.975922,604.334717 426.075378,601.193542 
	C439.134796,598.284058 452.413513,596.358826 466.514526,593.999634 
M522.247375,795.013977 
	C521.415283,794.988770 520.555115,795.093018 519.755249,794.919312 
	C501.320892,790.915283 481.495697,801.348755 473.248016,816.323730 
	C471.376740,819.721313 470.094055,823.443054 468.457489,827.206421 
	C475.814117,828.926025 480.244843,828.227539 483.803131,821.750549 
	C490.019409,810.435242 500.878906,804.940369 513.428223,805.263489 
	C527.286072,805.620178 537.747070,812.800842 544.064392,825.495667 
	C544.566040,826.503845 545.789795,827.727173 546.771912,827.816467 
	C549.999634,828.109924 553.270691,827.926819 556.624207,827.926819 
	C554.410706,814.582764 541.080200,798.767334 522.247375,795.013977 
M431.702240,603.038208 
	C419.535492,606.150513 407.368744,609.262817 395.201965,612.375122 
	C395.310486,612.950623 395.419006,613.526062 395.527527,614.101562 
	C472.336945,596.246338 549.196960,591.863281 626.173584,612.672363 
	C562.598450,589.926086 497.922760,589.625549 431.702240,603.038208 
z"/>
<path fill="#F58220" opacity="1.000000" stroke="none" 
	d="
M1769.963379,657.884033 
	C1764.630249,674.541077 1756.890747,689.452271 1746.080444,702.777466 
	C1738.210571,712.478088 1728.719727,720.173096 1718.033081,726.461487 
	C1697.896240,738.310608 1675.847534,742.486694 1652.901611,740.838440 
	C1629.140991,739.131592 1607.667358,731.207092 1590.849731,713.340576 
	C1577.464478,699.120483 1569.894165,682.136169 1566.983398,662.943970 
	C1566.306152,658.477905 1565.528442,654.027161 1564.698730,648.970947 
	C1572.300659,648.276672 1579.286865,647.599731 1586.280518,647.009644 
	C1595.298950,646.248718 1604.363647,645.857666 1613.322021,644.661377 
	C1616.181519,644.279541 1616.678223,644.691956 1617.038818,647.210083 
	C1618.760742,659.235168 1621.626343,670.762024 1629.719360,680.480225 
	C1636.114258,688.159241 1644.244019,692.629944 1653.811279,693.862305 
	C1665.939575,695.424622 1678.005737,694.064026 1688.781616,687.859131 
	C1697.643677,682.756104 1704.954102,675.785217 1710.109009,666.658569 
	C1718.880493,651.128601 1723.446533,634.321289 1726.010010,616.843506 
	C1726.696289,612.164551 1727.380371,607.485352 1728.163330,602.137634 
	C1722.464111,606.148010 1717.190063,609.729614 1712.054199,613.499634 
	C1700.731567,621.811157 1687.664673,625.649780 1674.128418,627.913330 
	C1657.814209,630.641296 1641.826904,628.679382 1626.276611,623.080322 
	C1609.905396,617.185852 1596.643066,607.211670 1585.242798,594.011963 
	C1572.898682,579.719177 1565.700195,563.221680 1562.243042,545.114685 
	C1559.586548,531.201172 1559.192749,517.051514 1560.831909,502.780487 
	C1562.505127,488.213470 1565.637573,474.188721 1572.423340,461.210571 
	C1587.310425,432.738586 1610.338989,413.964294 1641.796387,407.309143 
	C1674.554199,400.378906 1705.341675,406.676575 1732.640137,426.444214 
	C1745.169556,435.517059 1754.682251,447.513702 1762.162476,461.258331 
	C1771.989014,479.314209 1777.305542,498.579590 1778.912720,518.860779 
	C1780.359131,537.110840 1782.018311,555.441895 1781.708130,573.705322 
	C1781.410889,591.204468 1779.173828,608.725098 1776.876099,626.115601 
	C1775.479126,636.687927 1772.351196,647.031555 1769.963379,657.884033 
M1714.945435,555.288147 
	C1720.555054,545.302612 1723.257202,534.410522 1723.897217,523.135986 
	C1724.644531,509.969147 1723.323486,497.012024 1718.053345,484.626038 
	C1708.344482,461.807709 1687.071167,447.909698 1662.320801,452.222229 
	C1642.940918,455.598969 1629.716553,468.258881 1621.443970,485.476776 
	C1615.477173,497.895325 1613.805542,511.362701 1614.795532,525.393982 
	C1615.937622,541.581848 1621.481445,555.218384 1633.567261,566.025635 
	C1648.216919,579.125244 1665.360229,582.836609 1684.190308,578.260254 
	C1697.258545,575.084229 1707.287476,567.250732 1714.945435,555.288147 
z"/>
<path fill="#304959" opacity="1.000000" stroke="none" 
	d="
M1117.718750,413.237427 
	C1138.443848,429.584717 1148.807129,451.470337 1151.705444,476.579315 
	C1155.823730,512.256531 1146.624390,544.032593 1119.416016,568.909729 
	C1108.433960,578.950867 1094.601807,584.207764 1080.402222,587.843445 
	C1065.780640,591.587219 1050.778320,592.962219 1035.640503,593.054321 
	C1010.521484,593.207153 985.404541,593.817688 960.285950,593.872742 
	C955.267822,593.883728 953.851257,595.132324 953.880554,600.241638 
	C954.101807,638.730286 953.907227,677.221191 954.115234,715.709961 
	C954.142334,720.728577 952.887756,722.250977 947.758179,722.123962 
	C933.270935,721.765442 918.763611,721.776001 904.275635,722.119507 
	C899.212463,722.239563 897.875793,720.824707 897.885315,715.743958 
	C898.045654,630.100159 897.999939,544.455994 898.000000,458.811920 
	C898.000000,438.317322 898.098083,417.821899 897.918091,397.328888 
	C897.882385,393.263367 898.961609,391.899994 903.198120,391.912964 
	C948.852295,392.052704 994.514893,391.508087 1040.158203,392.225403 
	C1060.609985,392.546753 1081.271240,394.162506 1100.314087,403.059021 
	C1106.274048,405.843384 1111.756470,409.650208 1117.718750,413.237427 
M964.532288,444.001221 
	C962.533508,444.002106 960.519409,444.160828 958.539246,443.968994 
	C955.079651,443.633911 953.927979,444.985809 953.940979,448.491455 
	C954.051514,478.140717 954.072449,507.790894 953.922241,537.439819 
	C953.902039,541.429321 955.503723,542.111938 958.967346,542.059875 
	C969.958557,541.894897 980.959290,542.221375 991.946411,541.951965 
	C1012.351929,541.451660 1032.826294,541.513733 1053.125122,539.697632 
	C1066.614746,538.490662 1079.367554,533.331360 1087.025513,520.786743 
	C1097.630615,503.414520 1097.735352,485.319550 1089.018188,467.264709 
	C1083.336548,455.497253 1073.620483,448.138824 1060.685303,446.072449 
	C1052.223999,444.720764 1043.563599,444.185089 1034.983521,444.088928 
	C1011.833008,443.829407 988.677673,444.000824 964.532288,444.001221 
z"/>
<path fill="#F58220" opacity="1.000000" stroke="none" 
	d="
M1859.283936,725.778625 
	C1835.103271,709.462036 1822.340454,686.107056 1814.844971,659.033813 
	C1810.913452,644.833801 1808.699463,630.450928 1806.835938,615.875793 
	C1803.873291,592.703613 1804.618896,569.470154 1805.280884,546.321533 
	C1805.905396,524.488342 1809.163452,502.729492 1816.078247,481.848511 
	C1825.620972,453.031403 1841.215210,428.544128 1869.275879,414.471039 
	C1887.936768,405.112152 1907.997437,403.560364 1928.668945,405.823303 
	C1940.881958,407.160309 1952.315186,410.504303 1962.997437,416.111389 
	C1978.871094,424.443390 1990.882935,436.963776 1999.849243,452.477386 
	C2010.541748,470.978119 2016.821167,491.061646 2020.806641,511.871094 
	C2022.281372,519.571655 2022.532471,527.536804 2022.955566,535.402039 
	C2023.780762,550.749268 2025.273682,566.140747 2024.789795,581.460205 
	C2023.968872,607.455383 2022.444946,633.512939 2014.928101,658.681274 
	C2010.064697,674.966125 2003.262085,690.426880 1992.936523,704.083435 
	C1982.553223,717.815979 1969.445801,727.961731 1953.327271,734.381348 
	C1937.838013,740.550415 1921.694580,741.982910 1905.453735,740.801392 
	C1889.142212,739.614868 1873.479858,735.214233 1859.283936,725.778625 
M1866.911499,650.630371 
	C1870.358154,664.902100 1877.334351,676.865845 1889.263184,685.816895 
	C1900.961060,694.594788 1914.223267,696.931946 1927.541016,692.457764 
	C1943.779785,687.002258 1954.035278,674.501404 1959.991821,658.533691 
	C1967.357178,638.790100 1968.854248,617.991699 1969.763184,597.314575 
	C1970.563843,579.103088 1969.742065,560.782898 1968.863525,542.547913 
	C1968.265503,530.136292 1966.865601,517.702393 1964.869385,505.433868 
	C1962.141846,488.671417 1955.998657,473.321472 1942.473145,462.020050 
	C1930.956421,452.397125 1917.619141,449.506927 1903.219238,453.011810 
	C1885.444580,457.338074 1875.982544,470.324158 1869.975342,486.581055 
	C1861.562500,509.348083 1860.300415,533.257751 1859.171997,557.083191 
	C1858.546021,570.300354 1859.914917,583.599792 1859.937256,596.862915 
	C1859.967529,614.841125 1862.401367,632.476379 1866.911499,650.630371 
z"/>
<path fill="#304959" opacity="1.000000" stroke="none" 
	d="
M1342.469727,480.307251 
	C1359.735596,474.321930 1377.258789,472.721802 1394.867065,474.161896 
	C1419.195312,476.151550 1441.069702,484.382263 1459.709351,501.006622 
	C1481.364136,520.320129 1492.545776,544.601562 1495.935059,572.826904 
	C1497.235840,583.658813 1498.239502,594.668823 1497.812622,605.536133 
	C1496.926270,628.101746 1494.092529,650.369019 1483.128296,670.813171 
	C1473.520386,688.728210 1459.713623,702.334412 1441.982910,711.948303 
	C1426.046753,720.589172 1409.030273,725.038147 1390.775269,726.219604 
	C1364.945557,727.891235 1340.932983,723.032898 1319.270142,708.949951 
	C1300.420288,696.695740 1286.841064,679.800049 1279.005737,658.528870 
	C1273.056274,642.377502 1270.255859,625.699524 1269.937622,608.489868 
	C1269.605103,590.509460 1270.420776,572.697510 1274.967773,555.196960 
	C1279.541870,537.591858 1287.296143,521.452209 1299.655151,508.177032 
	C1311.380493,495.582367 1325.682983,486.220490 1342.469727,480.307251 
M1328.035278,635.340942 
	C1332.801025,652.794067 1342.379761,667.110962 1358.879639,674.711792 
	C1389.225342,688.690796 1424.721436,676.722595 1437.009033,642.027832 
	C1445.688721,617.520325 1445.608032,592.252563 1439.728516,567.278625 
	C1432.939697,538.443176 1409.766846,517.592957 1376.946899,520.926270 
	C1357.491211,522.902283 1343.604004,533.015747 1334.327759,549.569092 
	C1328.190308,560.520874 1325.994263,572.724060 1324.794556,585.248596 
	C1323.198120,601.915894 1323.864868,618.291260 1328.035278,635.340942 
z"/>
<path fill="#F6AE45" opacity="1.000000" stroke="none" 
	d="
M445.000275,538.000000 
	C445.000244,509.681122 444.826508,481.860718 445.075806,454.044067 
	C445.194824,440.765533 452.113403,430.605438 461.699066,422.062866 
	C469.580109,415.039429 478.995575,410.790344 488.917114,407.648773 
	C492.759705,406.432068 496.821960,405.300964 500.801605,405.238251 
	C513.243164,405.042084 525.656311,404.104889 537.944031,408.233612 
	C547.517822,411.450378 556.260376,415.758026 563.981445,422.058167 
	C573.780396,430.053925 580.574219,440.622131 580.751709,453.114899 
	C581.378662,497.249146 580.974060,541.398071 580.948608,585.541382 
	C580.948425,585.851624 580.779785,586.161804 580.416626,587.413818 
	C535.621521,577.608459 490.590057,577.941101 445.000275,587.690186 
	C445.000275,570.714355 445.000275,554.607178 445.000275,538.000000 
z"/>
<path fill="#1D81C8" opacity="1.000000" stroke="none" 
	d="
M559.909851,825.865967 
	C560.298584,822.170410 560.082153,818.284424 561.175720,814.810730 
	C567.627930,794.314148 573.608093,773.619019 581.218506,753.548645 
	C593.047913,722.351379 608.537109,692.919678 629.141968,666.517395 
	C638.604675,654.392212 648.252869,642.174988 659.375366,631.645752 
	C671.543640,620.126526 685.244263,610.146118 698.766663,600.158020 
	C714.179077,588.773804 731.761719,581.480652 750.242798,575.419312 
	C728.964172,513.763977 707.778442,452.377533 686.644714,391.141907 
	C662.017273,393.722839 645.183533,407.449219 631.640503,428.022278 
	C626.214661,413.716492 621.126892,400.302094 615.609802,385.755707 
	C624.791748,378.660645 633.816528,370.751862 643.764038,364.256165 
	C654.282227,357.387817 665.466858,351.432159 676.761292,345.895660 
	C685.350037,341.685425 694.524841,338.642548 703.528992,335.324829 
	C706.158630,334.355927 708.238953,334.681885 709.344482,338.433075 
	C712.932983,350.609619 716.965210,362.661682 721.074341,374.676941 
	C726.932739,391.807007 733.183472,408.803986 738.948730,425.964630 
	C745.315063,444.914276 751.244568,464.010193 757.509460,482.994476 
	C763.011597,499.667572 768.683777,516.284851 774.336670,532.907837 
	C780.682312,551.567932 787.132751,570.192505 793.443787,588.864136 
	C795.177002,593.992065 796.574341,599.233521 797.777893,603.259277 
	C779.619995,610.304749 761.509888,616.252869 744.379211,624.288696 
	C727.978271,631.982300 712.070068,641.045288 696.917664,650.988220 
	C682.912720,660.178223 669.942261,671.025024 657.004578,681.732178 
	C648.727051,688.582642 641.066223,696.244995 633.607788,704.003601 
	C620.617859,717.516235 608.866333,732.120972 599.001343,748.058960 
	C590.815430,761.284119 583.205688,774.891357 575.905457,788.629517 
	C571.706665,796.531128 568.631165,805.029663 565.030396,813.997498 
	C563.706848,817.836060 562.402954,820.936707 560.973389,824.280273 
	C560.535156,824.970825 560.222534,825.418396 559.909851,825.865967 
z"/>
<path fill="#1D81C8" opacity="1.000000" stroke="none" 
	d="
M459.833954,812.999817 
	C458.134766,808.144653 456.959839,803.021362 454.639374,798.483948 
	C447.309814,784.151794 440.137909,769.681885 431.778534,755.951111 
	C424.711945,744.343750 416.573242,733.288513 408.000610,722.726257 
	C398.979156,711.610840 389.634216,700.538147 379.064301,690.953552 
	C365.013336,678.212402 349.854279,666.650024 334.777313,655.095337 
	C318.499207,642.620178 300.529572,632.763245 281.818085,624.534485 
	C264.459442,616.900818 246.588623,610.431763 228.066254,603.102844 
	C229.427536,598.854797 231.149658,593.343567 232.958694,587.861145 
	C238.100754,572.277649 243.207855,556.681946 248.459442,541.135254 
	C255.212296,521.144287 262.181335,501.226135 268.896576,481.222687 
	C278.985535,451.169617 288.939087,421.071136 298.942322,390.989319 
	C304.633270,373.875244 310.364594,356.774200 315.946991,339.624756 
	C317.175385,335.851135 318.588745,333.955872 323.006012,335.861115 
	C334.472809,340.806885 346.501251,344.610565 357.542114,350.340973 
	C369.775452,356.690277 381.292480,364.471588 392.856720,372.034119 
	C397.901794,375.333344 402.450073,379.466492 406.873413,383.596405 
	C408.182281,384.818420 409.326721,387.690247 408.794128,389.179260 
	C404.265137,401.841827 399.331360,414.359589 394.143402,427.900848 
	C391.698822,424.604980 389.711700,421.948425 387.748047,419.274658 
	C377.673523,405.556824 364.243439,396.814301 347.886871,392.445709 
	C345.688660,391.858643 343.420593,391.233307 341.182922,391.226196 
	C340.135986,391.222870 338.481873,392.442139 338.127716,393.462830 
	C334.285370,404.537170 330.733643,415.711945 326.931030,426.800476 
	C321.870148,441.558044 316.606812,456.246063 311.522858,470.995789 
	C305.633484,488.082123 299.919952,505.229279 293.987701,522.300598 
	C289.254547,535.921204 284.256958,549.449768 279.486603,563.057678 
	C278.038239,567.189331 276.955536,571.449219 275.706390,575.646790 
	C291.037384,579.940857 305.796295,586.488586 319.328125,595.250610 
	C332.212738,603.593628 345.113007,612.267639 356.494568,622.480896 
	C368.888855,633.602844 380.050171,646.234680 390.836121,658.980835 
	C406.735779,677.769897 419.061707,699.018311 430.279602,720.857300 
	C434.294708,728.673950 437.740051,736.813110 440.989166,744.986450 
	C445.936432,757.431580 451.047882,769.858337 455.052216,782.618469 
	C459.319031,796.214905 462.379120,810.190063 465.714233,824.353760 
	C465.225159,824.532043 465.031128,824.317444 464.897278,823.777161 
	C464.599884,823.295776 464.285522,823.100952 463.949860,822.949951 
	C463.928558,822.993835 464.015869,823.037231 464.009766,822.655334 
	C462.613739,819.182251 461.223846,816.091003 459.833954,812.999817 
z"/>
<path fill="#FDD100" opacity="1.000000" stroke="none" 
	d="
M459.518921,812.861816 
	C461.223846,816.091003 462.613739,819.182251 463.663574,822.733093 
	C455.485291,815.778564 447.647034,808.364441 439.877045,800.594727 
	C438.602478,799.001587 437.259644,797.763977 435.939331,796.471436 
	C435.961823,796.416504 435.811279,796.366028 435.811279,796.366028 
	C421.043945,781.432861 404.511383,768.631409 387.850098,755.912354 
	C368.426819,741.084839 347.591644,728.533203 326.194611,716.976501 
	C312.810242,709.747498 298.770508,703.536743 284.557190,698.089294 
	C268.368958,691.884827 251.881821,686.180176 235.113388,681.851196 
	C219.472443,677.813232 203.357880,675.397705 187.329102,673.138550 
	C173.506973,671.190430 159.512146,670.467712 145.473770,669.192383 
	C181.360260,562.056580 217.450623,454.312256 253.790024,345.824402 
	C258.489716,346.908539 263.707642,347.771637 268.698730,349.351440 
	C274.683502,351.245819 280.434296,353.867798 286.370972,355.931519 
	C288.550232,356.689056 289.101471,357.146088 288.243408,359.683075 
	C284.268097,371.436554 280.783356,383.354980 276.907227,395.143341 
	C273.131470,406.626343 269.051910,418.009033 265.182709,429.461792 
	C261.058655,441.668854 257.091522,453.929138 252.935867,466.125305 
	C246.767395,484.228760 240.372559,502.255798 234.297134,520.390076 
	C227.851807,539.628418 221.749252,558.981384 215.344101,578.233459 
	C209.601059,595.495483 203.650253,612.688354 197.632690,630.377380 
	C200.804825,631.619873 203.732803,632.791870 206.678833,633.916565 
	C225.410049,641.067749 244.586166,647.249817 262.761658,655.608276 
	C283.102539,664.962585 302.790436,675.840881 322.283203,686.900696 
	C336.449707,694.938599 350.210052,703.828064 363.459900,713.304688 
	C375.088440,721.621765 386.041748,730.959717 396.763397,740.445740 
	C406.813049,749.337219 416.741760,758.499023 425.689301,768.470154 
	C438.054535,782.249756 449.766479,796.661682 459.518921,812.861816 
z"/>
<path fill="#FDD100" opacity="1.000000" stroke="none" 
	d="
M561.099060,824.037292 
	C562.402954,820.936707 563.706848,817.836060 565.086426,814.369995 
	C570.103149,807.036255 574.842041,799.913025 580.037048,793.139648 
	C586.328369,784.936829 592.647339,776.702942 599.608459,769.079895 
	C607.750610,760.163269 616.229919,751.477722 625.236755,743.447754 
	C635.473083,734.321594 645.979919,725.349060 657.218567,717.530762 
	C676.007019,704.460083 694.930847,691.409851 714.802979,680.120850 
	C733.984314,669.224426 754.289795,660.244690 774.384338,651.040710 
	C786.988892,645.267517 800.079224,640.540344 813.026733,635.538208 
	C817.824402,633.684692 822.836548,632.386475 828.118408,630.718933 
	C797.479858,539.459961 766.921265,448.439392 736.105164,356.651642 
	C746.869995,353.173126 757.839966,349.518982 768.918823,346.231506 
	C769.933289,345.930481 772.474670,347.694763 772.906372,348.973053 
	C779.093262,367.292023 784.879761,385.746368 791.083679,404.059387 
	C798.791077,426.810608 806.887939,449.429810 814.631836,472.168884 
	C818.316772,482.989349 821.447876,493.997406 825.053467,504.846161 
	C831.343506,523.771790 837.850586,542.625122 844.185303,561.536133 
	C851.196472,582.466248 858.082275,603.438354 865.088013,624.370361 
	C869.845215,638.584290 874.718689,652.759277 879.523865,666.957214 
	C879.777710,667.707275 879.879211,668.508911 880.209839,669.999878 
	C877.793152,669.999878 875.707825,669.843445 873.652283,670.024902 
	C859.110107,671.308777 844.561035,672.535828 830.039185,674.024292 
	C811.113525,675.964172 792.722412,680.609558 774.584351,686.099365 
	C761.965149,689.918701 749.374451,694.072205 737.239075,699.186890 
	C723.627808,704.923706 710.257935,711.390198 697.305847,718.492432 
	C682.642700,726.532898 668.122375,734.993774 654.343872,744.444031 
	C639.599121,754.557190 625.699341,765.919312 611.613647,776.969360 
	C604.619202,782.456360 598.022705,788.451965 591.285461,794.263123 
	C590.713501,794.756348 590.438416,795.593689 590.007996,796.633240 
	C589.990540,796.995239 589.991943,796.931274 589.635925,796.978821 
	C588.361145,797.715149 587.442444,798.403870 586.308960,799.219238 
	C585.424133,800.073792 584.753967,800.801636 583.805420,801.757812 
	C582.867126,802.681824 582.207153,803.377441 581.291260,804.246948 
	C574.389954,810.959656 567.744507,817.498474 561.099060,824.037292 
z"/>
<path fill="#F6AE45" opacity="1.000000" stroke="none" 
	d="
M470.263062,375.758514 
	C457.858612,365.932007 450.621216,353.492126 446.851562,338.489380 
	C442.657898,321.798889 444.808716,305.980896 452.227448,290.962799 
	C457.591583,280.103943 466.090637,271.684662 476.281219,264.880066 
	C490.293640,255.523468 505.903015,253.674011 521.943726,255.129684 
	C549.013977,257.586304 573.822937,280.874359 579.275635,307.651947 
	C583.168457,326.769287 580.267090,344.203339 569.714172,359.858185 
	C564.354248,367.809387 556.596497,374.577545 548.784363,380.336212 
	C538.219666,388.123840 525.401794,390.975800 512.406250,390.849213 
	C496.934174,390.698547 482.688232,386.028198 470.263062,375.758514 
z"/>
<path fill="#304959" opacity="1.000000" stroke="none" 
	d="
M1240.000000,559.000000 
	C1239.999878,611.141846 1240.000977,662.783691 1239.998291,714.425537 
	C1239.997925,721.992188 1239.989746,721.996338 1232.222412,721.998047 
	C1218.728882,722.001038 1205.233521,721.867615 1191.743164,722.074219 
	C1187.454102,722.139893 1185.919800,720.825562 1185.925781,716.387878 
	C1186.031494,638.925293 1186.028564,561.462402 1185.925171,483.999786 
	C1185.919922,480.043091 1187.116211,478.868958 1191.029785,478.921875 
	C1205.686646,479.120056 1220.349731,479.127686 1235.006226,478.917877 
	C1238.982422,478.860992 1240.098511,480.138733 1240.074951,484.036316 
	C1239.924805,508.856781 1239.999390,533.678589 1240.000000,559.000000 
z"/>
<path fill="#223E6C" opacity="1.000000" stroke="none" 
	d="
M560.973389,824.280273 
	C567.744507,817.498474 574.389954,810.959656 581.708618,804.175049 
	C582.949158,803.129333 583.516479,802.329407 584.083801,801.529480 
	C584.753967,800.801636 585.424133,800.073792 586.708496,799.340576 
	C588.212524,798.533875 589.102234,797.732605 589.991943,796.931274 
	C589.991943,796.931274 589.990540,796.995239 589.959351,796.988159 
	C595.495178,793.270752 601.128235,789.655273 606.617310,785.833252 
	C626.377747,772.073975 647.075256,759.904541 669.514832,751.146240 
	C685.344666,744.967712 701.393127,738.935913 717.847900,734.885498 
	C735.092224,730.640625 752.864197,728.184753 770.545837,726.190247 
	C783.369995,724.743713 796.422668,725.317017 809.373779,725.005920 
	C811.339478,724.958679 813.307251,724.999268 816.081177,724.999268 
	C814.133789,714.509338 812.192322,704.689209 810.613770,694.811157 
	C810.394470,693.438782 811.614075,690.870239 812.772766,690.422852 
	C816.428162,689.011475 820.327393,688.059387 824.213989,687.461609 
	C829.413757,686.661926 834.690125,686.360596 840.392944,685.800049 
	C845.659668,707.556274 850.826660,728.900452 856.062073,750.527161 
	C845.900330,748.925049 836.524292,747.240173 827.087830,746.024475 
	C819.549438,745.053345 811.939697,744.145447 804.357666,744.111633 
	C790.908325,744.051636 777.341858,743.692139 764.030518,745.235657 
	C741.906128,747.801025 719.821167,751.276489 698.639709,758.616577 
	C681.774841,764.460876 664.667908,769.848267 648.377258,777.043457 
	C630.408630,784.979736 612.993469,794.290161 595.826050,803.877380 
	C584.303833,810.312012 573.637329,818.277527 562.562439,825.519104 
	C562.052124,825.852844 561.291443,825.803650 560.278564,825.899414 
	C560.222534,825.418396 560.535156,824.970825 560.973389,824.280273 
z"/>
<path fill="#223E6C" opacity="1.000000" stroke="none" 
	d="
M435.366699,796.402771 
	C435.811279,796.366028 435.961823,796.416504 435.843140,796.834473 
	C437.085876,798.485046 438.447327,799.717651 439.808777,800.950256 
	C447.647034,808.364441 455.485291,815.778564 463.669678,823.114990 
	C464.015869,823.037231 463.928558,822.993835 463.816101,823.254456 
	C464.095825,823.697998 464.488037,823.880859 464.880280,824.063721 
	C465.031128,824.317444 465.225159,824.532043 465.669891,824.774658 
	C464.677185,824.826965 463.197571,825.268738 462.317932,824.730408 
	C443.553680,813.245483 425.459412,800.486145 405.977844,790.403320 
	C386.372833,780.256653 365.790375,771.623779 344.915741,764.413391 
	C325.189270,757.599548 304.699677,752.659058 284.229187,748.424988 
	C261.600372,743.744507 238.425781,742.739868 215.373550,744.227356 
	C200.450851,745.190247 185.650650,748.051331 170.361877,750.120605 
	C170.328323,749.376953 169.977509,748.058594 170.259720,746.893494 
	C174.844818,727.963806 179.531189,709.058716 184.135681,690.133606 
	C184.858398,687.163147 186.207916,685.421692 189.586899,685.994507 
	C198.164322,687.448669 206.754791,688.825867 215.891388,690.324280 
	C213.722275,702.452515 211.761230,713.417419 209.689911,724.998962 
	C215.658997,724.998962 221.433517,725.151306 227.197784,724.972778 
	C252.686630,724.183472 277.728638,727.393921 302.455872,733.327881 
	C330.754913,740.118958 358.125580,749.692627 383.464020,764.015930 
	C399.956085,773.338623 415.407349,784.501160 431.348633,794.802673 
	C432.437622,795.506348 433.726288,795.901123 435.366699,796.402771 
z"/>
<path fill="#223F6C" opacity="1.000000" stroke="none" 
	d="
M603.747681,594.096680 
	C598.073242,593.853027 596.393066,591.157776 596.896240,585.998596 
	C597.379089,581.046753 597.380249,575.976440 596.931274,571.018127 
	C595.404419,554.156189 606.788757,545.750732 619.626160,542.426025 
	C630.638062,539.574219 641.731934,540.624207 651.655151,546.930908 
	C659.341187,551.815735 664.097839,558.574524 664.024658,568.179749 
	C663.911682,583.009155 664.002136,597.840027 663.983521,612.670288 
	C663.981323,614.437622 663.837036,616.204895 663.705444,619.170654 
	C644.211975,608.296875 624.404907,600.674927 603.747681,594.096680 
z"/>
<path fill="#223F6C" opacity="1.000000" stroke="none" 
	d="
M383.787598,543.612671 
	C396.203003,539.826172 408.062592,539.974060 419.032654,546.631042 
	C427.086121,551.518127 432.136810,558.645142 432.014313,568.622925 
	C431.942780,574.449341 431.932556,580.278564 432.027283,586.104309 
	C432.073883,588.970886 431.187500,590.130005 428.109039,591.184631 
	C410.643036,597.168152 393.337830,603.623718 376.011749,610.010559 
	C372.492859,611.307678 369.119263,612.999023 365.000000,614.806396 
	C365.000000,604.699097 365.000000,595.269714 365.000000,585.840393 
	C365.000000,580.845520 365.361603,575.819397 364.932983,570.861572 
	C363.583374,555.249573 372.653076,547.770264 383.787598,543.612671 
z"/>
<path fill="#223F6C" opacity="1.000000" stroke="none" 
	d="
M369.741638,479.886383 
	C378.345398,467.621582 390.269135,463.337952 404.172302,465.183868 
	C414.772186,466.591248 422.771576,472.895264 427.871826,482.315186 
	C436.171753,497.644714 431.436249,515.538696 418.061218,525.276733 
	C408.309357,532.376770 397.434784,534.187866 386.148071,529.442749 
	C373.539062,524.141724 365.906647,514.928772 364.939484,500.741364 
	C364.435425,493.347626 366.054321,486.601837 369.741638,479.886383 
z"/>
<path fill="#223F6C" opacity="1.000000" stroke="none" 
	d="
M639.745422,465.930206 
	C656.267090,472.417572 664.681152,483.422455 663.772095,499.557648 
	C662.853333,515.865540 653.719910,527.235718 637.643982,530.949646 
	C615.472412,536.071960 590.514709,517.280396 598.247070,488.010284 
	C601.438843,475.928192 613.660583,465.086060 628.007385,465.041931 
	C631.789551,465.030273 635.573242,465.527435 639.745422,465.930206 
z"/>
<path fill="#304959" opacity="1.000000" stroke="none" 
	d="
M1198.019775,392.001038 
	C1210.841919,392.002045 1223.169556,392.104919 1235.493652,391.939148 
	C1238.986450,391.892181 1240.088623,393.058380 1240.059448,396.525116 
	C1239.919067,413.181091 1239.916870,429.839539 1240.060303,446.495453 
	C1240.090454,449.986969 1238.942261,451.094910 1235.475220,451.060638 
	C1220.485229,450.912506 1205.492188,450.910248 1190.502197,451.061737 
	C1187.006714,451.097076 1185.910156,449.936035 1185.940430,446.472931 
	C1186.081909,430.316742 1186.183838,414.155334 1185.890015,398.003204 
	C1185.802002,393.163055 1187.218750,391.279907 1192.033081,391.960266 
	C1193.829468,392.214172 1195.691772,392.001129 1198.019775,392.001038 
z"/>
<path fill="#1C81C8" opacity="1.000000" stroke="none" 
	d="
M466.055084,593.999878 
	C452.413513,596.358826 439.134796,598.284058 426.075378,601.193542 
	C411.975922,604.334717 398.065002,608.335083 384.109161,612.099060 
	C380.571442,613.053284 377.175568,614.533508 373.479004,614.951233 
	C417.073517,596.098694 462.423431,584.698364 510.163116,584.023560 
	C558.109924,583.345825 603.534180,594.059204 646.841370,614.078674 
	C646.711182,614.558472 646.580994,615.038208 646.450867,615.518005 
	C640.718079,613.560364 635.072449,611.279175 629.235901,609.706726 
	C612.915161,605.309753 596.635315,600.634583 580.109375,597.164368 
	C566.529541,594.312805 552.643250,592.842163 538.844971,591.149536 
	C533.756714,590.525269 528.527466,591.142700 523.369507,590.977112 
	C504.328278,590.366394 485.391876,591.596130 466.055084,593.999878 
z"/>
<path fill="#223E6C" opacity="1.000000" stroke="none" 
	d="
M522.676514,795.034912 
	C541.080200,798.767334 554.410706,814.582764 556.624207,827.926819 
	C553.270691,827.926819 549.999634,828.109924 546.771912,827.816467 
	C545.789795,827.727173 544.566040,826.503845 544.064392,825.495667 
	C537.747070,812.800842 527.286072,805.620178 513.428223,805.263489 
	C500.878906,804.940369 490.019409,810.435242 483.803131,821.750549 
	C480.244843,828.227539 475.814117,828.926025 468.457489,827.206421 
	C470.094055,823.443054 471.376740,819.721313 473.248016,816.323730 
	C481.495697,801.348755 501.320892,790.915283 519.755249,794.919312 
	C520.555115,795.093018 521.415283,794.988770 522.676514,795.034912 
z"/>
<path fill="#1B81C8" opacity="1.000000" stroke="none" 
	d="
M432.132721,603.021423 
	C497.922760,589.625549 562.598450,589.926086 626.173584,612.672363 
	C549.196960,591.863281 472.336945,596.246338 395.527527,614.101562 
	C395.419006,613.526062 395.310486,612.950623 395.201965,612.375122 
	C407.368744,609.262817 419.535492,606.150513 432.132721,603.021423 
z"/>
<path fill="#000000" opacity="1.000000" stroke="none" 
	d="
M1714.752319,555.607910 
	C1707.287476,567.250732 1697.258545,575.084229 1684.190308,578.260254 
	C1665.360229,582.836609 1648.216919,579.125244 1633.567261,566.025635 
	C1621.481445,555.218384 1615.937622,541.581848 1614.795532,525.393982 
	C1613.805542,511.362701 1615.477173,497.895325 1621.443970,485.476776 
	C1629.716553,468.258881 1642.940918,455.598969 1662.320801,452.222229 
	C1687.071167,447.909698 1708.344482,461.807709 1718.053345,484.626038 
	C1723.323486,497.012024 1724.644531,509.969147 1723.897217,523.135986 
	C1723.257202,534.410522 1720.555054,545.302612 1714.752319,555.607910 
z"/>
<path fill="#000000" opacity="1.000000" stroke="none" 
	d="
M965.028320,444.001221 
	C988.677673,444.000824 1011.833008,443.829407 1034.983521,444.088928 
	C1043.563599,444.185089 1052.223999,444.720764 1060.685303,446.072449 
	C1073.620483,448.138824 1083.336548,455.497253 1089.018188,467.264709 
	C1097.735352,485.319550 1097.630615,503.414520 1087.025513,520.786743 
	C1079.367554,533.331360 1066.614746,538.490662 1053.125122,539.697632 
	C1032.826294,541.513733 1012.351929,541.451660 991.946411,541.951965 
	C980.959290,542.221375 969.958557,541.894897 958.967346,542.059875 
	C955.503723,542.111938 953.902039,541.429321 953.922241,537.439819 
	C954.072449,507.790894 954.051514,478.140717 953.940979,448.491455 
	C953.927979,444.985809 955.079651,443.633911 958.539246,443.968994 
	C960.519409,444.160828 962.533508,444.002106 965.028320,444.001221 
z"/>
<path fill="#000000" opacity="1.000000" stroke="none" 
	d="
M1866.674927,650.284729 
	C1862.401367,632.476379 1859.967529,614.841125 1859.937256,596.862915 
	C1859.914917,583.599792 1858.546021,570.300354 1859.171997,557.083191 
	C1860.300415,533.257751 1861.562500,509.348083 1869.975342,486.581055 
	C1875.982544,470.324158 1885.444580,457.338074 1903.219238,453.011810 
	C1917.619141,449.506927 1930.956421,452.397125 1942.473145,462.020050 
	C1955.998657,473.321472 1962.141846,488.671417 1964.869385,505.433868 
	C1966.865601,517.702393 1968.265503,530.136292 1968.863525,542.547913 
	C1969.742065,560.782898 1970.563843,579.103088 1969.763184,597.314575 
	C1968.854248,617.991699 1967.357178,638.790100 1959.991821,658.533691 
	C1954.035278,674.501404 1943.779785,687.002258 1927.541016,692.457764 
	C1914.223267,696.931946 1900.961060,694.594788 1889.263184,685.816895 
	C1877.334351,676.865845 1870.358154,664.902100 1866.674927,650.284729 
z"/>
<path fill="#000000" opacity="1.000000" stroke="none" 
	d="
M1327.990723,634.932251 
	C1323.864868,618.291260 1323.198120,601.915894 1324.794556,585.248596 
	C1325.994263,572.724060 1328.190308,560.520874 1334.327759,549.569092 
	C1343.604004,533.015747 1357.491211,522.902283 1376.946899,520.926270 
	C1409.766846,517.592957 1432.939697,538.443176 1439.728516,567.278625 
	C1445.608032,592.252563 1445.688721,617.520325 1437.009033,642.027832 
	C1424.721436,676.722595 1389.225342,688.690796 1358.879639,674.711792 
	C1342.379761,667.110962 1332.801025,652.794067 1327.990723,634.932251 
z"/>
<path fill="#FDD100" opacity="1.000000" stroke="none" 
	d="
M464.897278,823.777161 
	C464.488037,823.880859 464.095825,823.697998 463.837402,823.210571 
	C464.285522,823.100952 464.599884,823.295776 464.897278,823.777161 
z"/>
<path fill="#000000" opacity="1.000000" stroke="none" 
	d="
M439.877045,800.594727 
	C438.447327,799.717651 437.085876,798.485046 435.820618,796.889404 
	C437.259644,797.763977 438.602478,799.001587 439.877045,800.594727 
z"/>
<path fill="#000000" opacity="1.000000" stroke="none" 
	d="
M589.635925,796.978821 
	C589.102234,797.732605 588.212524,798.533875 586.923218,799.213867 
	C587.442444,798.403870 588.361145,797.715149 589.635925,796.978821 
z"/>
<path fill="#000000" opacity="1.000000" stroke="none" 
	d="
M583.805420,801.757812 
	C583.516479,802.329407 582.949158,803.129333 581.964539,804.001160 
	C582.207153,803.377441 582.867126,802.681824 583.805420,801.757812 
z"/>
</svg>