<?xml version="1.0" standalone="no"?>
<!DOCTYPE svg PUBLIC "-//W3C//DTD SVG 20010904//EN"
 "http://www.w3.org/TR/2001/REC-SVG-20010904/DTD/svg10.dtd">
<svg version="1.0" xmlns="http://www.w3.org/2000/svg"
 width="300.000000pt" height="146.000000pt" viewBox="0 0 300.000000 146.000000"
 preserveAspectRatio="xMidYMid meet">

<g transform="translate(0.000000,146.000000) scale(0.100000,-0.100000)"
fill="#000000" stroke="none">
<path d="M680 1075 l-105 -43 57 -28 c31 -15 59 -36 61 -46 3 -10 13 -18 24
-18 10 0 34 -10 53 -21 32 -20 36 -20 65 -5 16 8 42 20 58 25 15 6 27 16 27
23 0 7 28 26 63 41 l62 28 -110 45 c-60 24 -118 44 -130 43 -11 0 -67 -20
-125 -44z"/>
<path d="M1230 716 l0 -226 35 0 35 0 0 90 0 90 88 0 c99 0 126 11 159 59 41
61 25 147 -34 187 -23 15 -51 19 -155 22 l-128 4 0 -226z m250 134 c25 -25 26
-61 1 -91 -17 -21 -30 -24 -100 -27 l-81 -4 0 71 0 71 80 0 c67 0 83 -3 100
-20z"/>
<path d="M1620 900 c0 -39 1 -40 35 -40 34 0 35 1 35 40 0 39 -1 40 -35 40
-34 0 -35 -1 -35 -40z"/>
<path d="M462 874 c-21 -15 -22 -21 -22 -213 0 -179 2 -199 18 -214 15 -14 42
-17 150 -17 l132 0 0 -35 0 -35 -55 0 c-30 0 -55 -4 -55 -10 0 -6 67 -10 182
-10 114 0 178 4 173 9 -6 6 -32 11 -60 13 -48 3 -50 4 -50 33 l0 30 137 5 c93
3 141 9 150 18 10 9 14 65 16 207 3 187 2 195 -18 215 -27 27 -38 19 -16 -12
13 -18 16 -53 16 -196 0 -100 -4 -181 -10 -193 -10 -18 -25 -19 -338 -19 -242
0 -331 3 -340 12 -8 8 -12 66 -12 197 0 158 2 187 17 203 22 24 13 32 -15 12z"/>
<path d="M1853 820 c-48 -11 -83 -37 -99 -75 -20 -48 -18 -142 4 -185 46 -93
189 -97 256 -7 30 41 30 163 0 203 -42 57 -97 78 -161 64z m95 -86 c17 -19 22
-37 22 -77 0 -83 -46 -128 -108 -106 -37 13 -57 50 -57 104 0 53 20 92 54 104
34 12 61 5 89 -25z"/>
<path d="M1620 655 l0 -165 35 0 35 0 0 165 0 165 -35 0 -35 0 0 -165z"/>
<path d="M1251 366 c-15 -59 -16 -56 24 -56 21 0 37 6 43 16 8 15 10 15 15 0
7 -18 52 -22 63 -4 5 8 0 9 -14 6 -12 -4 -25 -2 -28 3 -3 5 9 9 25 9 34 0 41
19 17 39 -16 13 -56 -1 -56 -19 0 -6 -4 -10 -10 -10 -5 0 -7 13 -3 30 5 29 4
30 -30 30 -33 0 -35 -2 -46 -44z m59 19 c0 -8 -9 -15 -20 -15 -20 0 -26 11
-13 23 12 13 33 7 33 -8z m75 -25 c-3 -5 -10 -10 -16 -10 -5 0 -9 5 -9 10 0 6
7 10 16 10 8 0 12 -4 9 -10z m-75 -19 c0 -12 -29 -23 -41 -15 -18 10 -9 24 16
24 14 0 25 -4 25 -9z"/>
<path d="M1421 364 c-11 -42 -8 -76 3 -43 15 45 23 89 16 89 -4 0 -13 -21 -19
-46z"/>
<path d="M1540 399 c0 -5 5 -7 10 -4 6 3 10 8 10 11 0 2 -4 4 -10 4 -5 0 -10
-5 -10 -11z"/>
<path d="M1780 402 c0 -4 -13 -13 -30 -19 -24 -9 -30 -17 -30 -42 0 -27 3 -31
29 -31 25 0 30 5 35 36 4 19 10 42 13 50 3 8 0 14 -6 14 -6 0 -11 -4 -11 -8z
m-10 -46 c0 -18 -26 -40 -34 -27 -9 14 4 41 20 41 8 0 14 -6 14 -14z"/>
<path d="M1940 399 c0 -5 5 -7 10 -4 6 3 10 8 10 11 0 2 -4 4 -10 4 -5 0 -10
-5 -10 -11z"/>
<path d="M2010 395 c-6 -8 -13 -29 -13 -47 -2 -27 2 -34 21 -36 18 -3 26 4 38
33 8 21 13 44 10 51 -7 18 -40 18 -56 -1z m33 -41 c-5 -15 -15 -30 -21 -32
-15 -5 -16 32 -1 60 16 30 34 8 22 -28z"/>
<path d="M2120 369 c-13 -49 -7 -75 9 -36 14 35 47 34 44 -1 -5 -39 14 -23 26
22 13 54 13 56 2 56 -5 0 -11 -9 -14 -20 -3 -12 -14 -20 -27 -20 -17 0 -21 4
-17 20 3 11 1 20 -4 20 -4 0 -13 -18 -19 -41z"/>
<path d="M2370 400 c0 -5 5 -10 10 -10 6 0 10 5 10 10 0 6 -4 10 -10 10 -5 0
-10 -4 -10 -10z"/>
<path d="M2406 399 c-15 -45 -23 -89 -16 -89 9 0 33 90 26 98 -3 3 -8 -1 -10
-9z"/>
<path d="M2476 388 c-17 -24 -6 -48 22 -48 12 0 13 -3 4 -12 -8 -8 -15 -8 -27
2 -12 10 -15 10 -15 -4 0 -21 34 -21 54 0 9 8 16 31 16 50 0 27 -4 34 -19 34
-11 0 -27 -10 -35 -22z m40 -17 c-8 -13 -36 -15 -36 -3 0 4 5 13 12 20 14 14
34 0 24 -17z"/>
<path d="M2551 391 c-6 -11 -11 -33 -11 -50 0 -24 4 -31 20 -31 25 0 53 41 48
72 -4 30 -43 37 -57 9z m28 -57 c-6 -8 -16 -14 -21 -14 -14 0 -1 62 15 72 16
10 22 -39 6 -58z"/>
<path d="M2626 394 c-8 -20 1 -34 20 -34 18 0 18 -14 -1 -30 -8 -7 -15 -18
-15 -24 0 -6 14 5 30 24 17 19 27 27 24 18 -9 -26 3 -49 21 -42 20 8 20 54 0
54 -19 0 -19 14 0 30 9 7 13 15 10 19 -3 3 -17 -8 -30 -24 l-23 -30 5 28 c4
22 2 27 -15 27 -11 0 -23 -7 -26 -16z m34 -3 c0 -6 -4 -13 -10 -16 -5 -3 -10
1 -10 9 0 9 5 16 10 16 6 0 10 -4 10 -9z m46 -68 c-10 -10 -19 5 -10 18 6 11
8 11 12 0 2 -7 1 -15 -2 -18z"/>
<path d="M1464 375 c-18 -14 -17 -15 11 -9 21 5 27 3 20 -4 -5 -5 -19 -12 -30
-14 -11 -2 -21 -11 -23 -21 -3 -13 4 -17 31 -17 31 0 35 3 39 30 4 27 -6 50
-22 50 -3 0 -15 -7 -26 -15z m21 -45 c-3 -5 -10 -10 -16 -10 -5 0 -9 5 -9 10
0 6 7 10 16 10 8 0 12 -4 9 -10z"/>
<path d="M1574 375 c-18 -14 -17 -15 11 -9 21 5 27 3 20 -4 -5 -5 -19 -12 -30
-14 -11 -2 -21 -11 -23 -21 -3 -13 4 -17 31 -17 31 0 35 3 39 30 4 27 -6 50
-22 50 -3 0 -15 -7 -26 -15z m21 -45 c-3 -5 -10 -10 -16 -10 -5 0 -9 5 -9 10
0 6 7 10 16 10 8 0 12 -4 9 -10z"/>
<path d="M1659 383 c-9 -2 -20 -18 -23 -35 -8 -42 1 -49 15 -10 6 17 18 32 27
34 9 2 13 6 7 9 -5 3 -17 4 -26 2z"/>
<path d="M1814 375 c-18 -14 -17 -15 11 -9 21 5 27 3 20 -4 -5 -5 -19 -12 -30
-14 -11 -2 -21 -11 -23 -21 -3 -13 4 -17 31 -17 31 0 35 3 39 30 4 27 -6 50
-22 50 -3 0 -15 -7 -26 -15z m21 -45 c-3 -5 -10 -10 -16 -10 -5 0 -9 5 -9 10
0 6 7 10 16 10 8 0 12 -4 9 -10z"/>
<path d="M1899 383 c-9 -2 -20 -18 -23 -35 -8 -42 1 -49 15 -10 15 44 41 43
32 0 -7 -40 4 -33 16 10 10 32 -3 43 -40 35z"/>
<path d="M2224 375 c-18 -14 -17 -15 10 -9 21 5 27 4 22 -5 -4 -6 -15 -11 -26
-11 -18 0 -34 -23 -23 -34 4 -3 19 -6 33 -6 23 0 29 5 34 32 4 21 2 34 -6 40
-18 11 -21 10 -44 -7z m26 -45 c0 -5 -7 -10 -16 -10 -8 0 -12 5 -9 10 3 6 10
10 16 10 5 0 9 -4 9 -10z"/>
<path d="M2303 374 c-17 -13 -17 -15 0 -28 23 -18 22 -29 -3 -21 -11 4 -20 2
-20 -4 0 -6 11 -11 25 -11 33 0 44 28 19 47 -18 14 -18 15 4 8 12 -3 22 -2 22
3 0 17 -28 21 -47 6z"/>
<path d="M1525 343 c-4 -21 -11 -44 -17 -50 -7 -9 -7 -13 1 -13 12 0 23 23 35
73 3 15 2 27 -3 27 -5 0 -12 -17 -16 -37z"/>
<path d="M2367 373 c-10 -19 -17 -63 -8 -63 4 0 11 14 15 32 6 31 3 47 -7 31z"/>
</g>
</svg>
