<?xml version="1.0" encoding="UTF-8"?>
<svg version="1.1" viewBox="0 0 2048 307" width="1280" height="1280" xmlns="http://www.w3.org/2000/svg">
<path transform="translate(795,91)" d="m0 0h24l14 4 11 6 10 9 7 8 4 7v2h3l2-5 5-6 13-10 8-5 17-7 18-3h21l16 4 12 6 8 6 9 12 8 16 4 11 2 11 1 13v130l-7 1h-37l-1-1-1-124-1-15-4-13-6-9-6-4-9-3-14-1-11 2-9 4-11 8-6 9-7 16-2 7-2 28v96l-1 1h-42l-1-33-1-89-2-12-3-15-5-10-4-5-10-5-4-1h-14l-16 4-8 4-10 9-8 14-4 15-2 24-1 99h-43v-203h41v26l11-11 17-12 14-7z" fill="#FEFEFE"/>
<path transform="translate(1278,30)" d="m0 0h121l24 2 16 4 15 6 12 7 8 8 7 11 5 11 4 12 2 14-1 22-4 16-5 12-7 11-9 11-11 8-15 7-18 5-22 3h-74v107h-48l-1-272zm49 43-1 1v83h39l25-1 24-3 13-5 10-9 4-8 2-9v-16l-4-13-4-6-9-8-9-4-29-2zm-13 230v1h5v-1zm-21 1 4 1z" fill="#C18940"/>
<path transform="translate(251)" d="m0 0h44l1 121 7-9 12-9 18-8 12-3 8-1h11l18 3 19 8 8 6 10 10 5 8 7 20 3 20 1 24v110l-1 1h-42l-1-93-1-32-2-13-4-12-5-8-9-8-6-3-12-2h-9l-14 3-10 5-12 11-7 11-2 6-2 14-1 120-18 1h-26l-1-41v-259z" fill="#FEFEFE"/>
<path transform="translate(555,91)" d="m0 0h24l18 3 9 4 19 10 10 8 9 10 11 18 7 15 3 15 1 7v26l-1 1-113 1h-44l1 11 8 21 7 10 9 8 17 8 9 1h19l14-3 11-6 11-9 10-13 7 1 25 6 8 2-2 5-9 14-9 11-10 9-11 7-22 10-17 3-9 1h-24l-15-3-15-6-14-8-11-9-8-9-8-11-9-19-5-19-2-21v-14l3-18 6-20 8-14 7-9 9-10 14-11 17-8 17-5zm0 38-11 3-11 6-12 11-5 8-5 12-1 6 1 1 109-1-3-16-4-8-5-6-10-7-15-7-11-2z" fill="#FEFEFE"/>
<path transform="translate(1135,91)" d="m0 0h23l19 3 21 10 11 7 7 6 9 11 9 14 7 15 4 17 1 18v15l-1 1-111 1h-46l2 13 7 18 7 11 10 9 12 6 10 2h28l13-5 14-10 8-9 5-7 7 1 29 8 4 2-7 11-6 9-9 10-7 7-10 6-21 10-12 3-16 2h-25l-14-3-18-7-14-9-11-9-9-11-7-11-7-16-4-14-2-17v-28l3-15 7-21 7-12 11-14 9-8 13-8 19-8 11-3zm0 38-13 4-9 5-10 9-4 5-6 12-2 6v6l108-1 1-2-3-14-4-8-8-8-10-7-15-6-6-1z" fill="#FEFEFE"/>
<path transform="translate(1677,98)" d="m0 0h19l17 3 16 6 10 6 12 9 7 7 8 11 8 15 3 9 3 15 2 19-1 14-1 17-4 19-7 16-7 11-10 12-13 9-12 6-11 4-1 1h-63l-8-4-11-6-13-10-10-10-10-17-6-16-3-12-1-8v-44l8-28 8-15 8-10 8-8 13-9 13-6 15-4zm1 41-13 3-10 6-7 7-7 14-4 12-2 14v11l2 21 5 16 9 14 8 7 20 8h12l14-5 11-7 7-8 7-12 5-25v-20l-3-20-5-13-6-8-7-7-12-6-10-2z" fill="#56377F"/>
<path transform="translate(195,5)" d="m0 0h14l1 1v38l-1 1h-81v255l-1 1h-44v-256h-83v-39z" fill="#FEFEFE"/>
<path transform="translate(1278,30)" d="m0 0h121l24 2 16 4 15 6 12 7 8 8 7 11 5 11 4 12 2 14-1 22-2 1-6-2-7-1h-33l-1-19-4-13-4-6-8-7-9-4-29-2h-61l-1 3-1 48-33-2-13-1-1-1-1-86z" fill="#1C0BAA"/>
<path transform="translate(1520,103)" d="m0 0h44l1 1v203h-45l-1-4v-199zm22 200v1h20v-1z" fill="#C38C45"/>
<path transform="translate(1637,243)" d="m0 0h6l9 14 7 6 20 8h12l14-5 11-7 7-6 42 1 6 2-1 6-6 10-11 14-12 9-14 7-11 4-1 1h-63l-8-4-11-6-13-10-10-10-10-17-4-10v-5l5-1h31z" fill="#44298B"/>
<path transform="translate(1325,77)" d="m0 0h1v80l64-2 24-3 13-5 9-8 4-8 2-9 1 3 23-1h10l10 2 4 2-1 8-5 15-7 12-7 9-3 1-16-1h-29l-1 1-17 1h-27l-15-1h-28l-6-2h-48l-2-6v-44l42 3 5 1z" fill="#89635C"/>
<path transform="translate(1729,168)" d="m0 0 12 1 10 2 1 1h5v-1l13-1 8 1 2 8 2 19-1 14-1 17-4 19-4 9-7-2h-12l-30-1-2 1 2-5 6-10 5-25v-20l-3-20z" fill="#C28941"/>
<path transform="translate(1596,158)" d="m0 0 6 4 17 1 21 1 3 3-5 14-2 14v11l2 21 4 13v3l-11 2h-34l-2 2-4-15-1-8v-44z" fill="#C28940"/>
<path transform="translate(1285,231)" d="m0 0h40l1 17v59h-48v-62l1-13zm29 72v1h5v-1zm-21 1 4 1z" fill="#55367F"/>
<path transform="translate(1945,221)" d="m0 0h16l10 3 9 7 6 8 4 12 1 14h-61l4 11 8 8 5 2h11l8-3 8-7 1-1 8 1 6 5-3 5-10 10-6 3-5 1h-23l-8-3-10-10-5-9-2-5-1-6v-17l4-11 9-10 9-6zm1 14-9 6-5 8v3h41l-1-6-4-6-6-4-3-1z" fill="#24A65E"/>
<path transform="translate(1685,276)" d="m0 0 18 1 4 1h16l14 1h20l-2 5-11 9-12 7-16 6-1 1h-63l-8-4-11-6-13-10-4-4v-3l2-1 30-1z" fill="#1D0BAA"/>
<path transform="translate(1520,238)" d="m0 0 7 1 10 1h22l5 2 1 14v51h-45l-1-4v-53zm22 65v1h20v-1z" fill="#55367F"/>
<path transform="translate(1869,220)" d="m0 0h8l11 4 8 7 4 8 2 26v34l-11 1-5-1-1-51-3-7-4-4-9-1-8 2-5 5-4 8-1 48-1 1h-12l-3-1-1-7-1-45v-24l15-1 1 1 2 10 6-7 9-5z" fill="#24A65F"/>
<path transform="translate(1520,103)" d="m0 0h44l1 1v50l-1 8-5 1-27 1-12-1-1 3v-62z" fill="#724D6A"/>
<path transform="translate(1677,98)" d="m0 0h19l17 3 16 6 10 6 10 7-1 2-18 2-16 1h-44l-46-1-3-2 6-7 14-8 13-5 15-3z" fill="#1D0CAA"/>
<path transform="translate(1519,30)" d="m0 0h46l1 50h-47z" fill="#1D0BAA"/>
<path transform="translate(2010,199)" d="m0 0 16 1 1 23h21v13l-3 1-19 1 2 38 1 9 15 1 1 5 3 1v7l-7 1h-15l-6-3-5-4-4-9-1-15v-31h-9l-5-2 1-10 6-3h7zm35 28-1 4 2 2 1-6z" fill="#25A75F"/>
<path transform="translate(1278,165)" d="m0 0h1l1 5h48l9 2h30l14 1h24l16-1 1-1h37l10 2-4 5-8 6-7 1-4-1-39-2h-50l-23-1h-54l-2-4z" fill="#A17451"/>
<path transform="translate(1442,122)" d="m0 0 1 3 23-1h10l10 2 4 2-1 8-5 15-6 11-9-1-15-2h-7l-23-4-2-2 1-4 9-6 6-7 3-9z" fill="#734E6B"/>
<path transform="translate(1776,221)" d="m0 0 3 1v10l-3 16-4 9-7-2h-12l-30-1-2 1 2-5 6-10 4-18h38z" fill="#A17451"/>
<path transform="translate(1325,77)" d="m0 0h1v75h-28l-19-2-1-6v-23l42 3 5 1z" fill="#55367F"/>
<path transform="translate(1323,275)" d="m0 0h3v32h-47v-28h14l21-2zm-9 28v1h5v-1zm-21 1 4 1z" fill="#1C0BAA"/>
<path transform="translate(1561,276)" d="m0 0h3l1 2v29h-45v-30l13 2h16zm-19 27v1h20v-1z" fill="#1C0BAA"/>
<path transform="translate(1278,177)" d="m0 0 2 3h54l33 1h46l33 2 9 1-4 3-6 3-6-1h-21l-14-1-5 1h-68l-30-1-15 2-6 1-1 7h-1z" fill="#B58145"/>
<path transform="translate(1351,164)" d="m0 0h51l7 1 51 2 11 3-2 3-18-1h-29l-1 1-17 1h-27l-15-1h-28l-6-2h-48l-1-5 63-1z" fill="#8F6857"/>
<path transform="translate(1624,118)" d="m0 0m-2 1 2 1-2 2 7 1 55 1h31l26-2 9-1 7 7v2l-3 1h-11l-9 1-37 1h-28l-38-2h-10l-6-2 1-4z" fill="#43288B"/>
<path transform="translate(1723,253)" d="m0 0 42 1 6 2-1 6-6 10-4 4-9-2-12-1h-23l-16-4 3-2 10-6z" fill="#56377F"/>
<path transform="translate(1635,220)" d="m0 0 2 1 4 17 1 5-11 2h-34l-2 2-4-15v-7l2-2 36-2z" fill="#845E61"/>
<path transform="translate(1285,231)" d="m0 0h40l1 17v27h-1v-23l-19 1-21 2h-6l-1 4v-14l1-13z" fill="#835D60"/>
<path transform="translate(1769,147)" d="m0 0 3 4 5 13v7h-13l-6 1v1h-6l-6-2-15-2-3-3-6-10-4-5 18-1h17l14-1z" fill="#744F6C"/>
<path transform="translate(1520,103)" d="m0 0h44l1 1-1 23-18-2h-26l-1-9v-12z" fill="#200EA9"/>
<path transform="translate(1564,112)" d="m0 0h1v22l-1 9-2 1h-22l-16 1-4-1-1-4v-24h1v9l5-1h25l14 3z" fill="#55367F"/>
<path transform="translate(1596,158)" d="m0 0 6 4 17 1 21 1 3 3-5 14-2 2-16-1h-19l-9 1-1-1 1-9z" fill="#A17451"/>
<path transform="translate(1520,238)" d="m0 0 7 1 10 1h22l5 2 1 14v22h-1v-19l-19 1-9-2-12-1-4-2v48h-1v-53z" fill="#724D6B"/>
<path transform="translate(1521,222)" d="m0 0h42v2h2v32h-1l-1-14-6-1h-20l-13-1-3-1-1 11h-1v-18l1-9z" fill="#A17450"/>
<path transform="translate(1442,122)" d="m0 0 1 3 23-1h10l10 2 4 2-1 8-2 5-4 1h-35l-9-2-1-4 3-9z" fill="#55367E"/>
<path transform="translate(1564,154)" d="m0 0h1v12l-1 14-1 1h-16l-23 1-4-1-1-3v-12l1-3h21l23-1z" fill="#A07351"/>
<path transform="translate(1637,243)" d="m0 0h6l5 8-2 4-8 4-7 1-30 2-5-12v-5l5-1h31z" fill="#734E6B"/>
<path transform="translate(1647,253)" d="m0 0 3 1 6 7 10 5v1l-15 5-24 1h-17l-2 1-6-10v-3l31-2 10-3z" fill="#55367E"/>
<path transform="translate(1733,239)" d="m0 0h29l11 2 3 3-1 6-3 7-7-2h-12l-30-1-2 1 2-5 5-7h2l1-3z" fill="#724D6B"/>
<path transform="translate(1278,144)" d="m0 0h1v6l19 1 28 1v5h35v1l-5 1h-8l-12 3-9 1h-31l-11 1-7 1z" fill="#835D5F"/>
<path transform="translate(1618,151)" d="m0 0h23l9 2-7 13-9-1-17-1-15-1-5-3 1-8h13z" fill="#7E5963"/>
<path transform="translate(1635,220)" d="m0 0 2 1 2 12-4 1h-3v-2l-7 1-31 1-2 2-1-4v-7l2-2 36-2z" fill="#A17551"/>
<path transform="translate(1279,221)" d="m0 0 14 1h13l13-1h6l1 7v20h-1v-17l-15 1h-31v13h-1v-20z" fill="#A17451"/>
<path transform="translate(1604,141)" d="m0 0 4 1h30l15 2 5 2-7 7-10-1h-23l-11 1h-8l1-5z" fill="#654373"/>
<path transform="translate(1735,210)" d="m0 0 7 1 9 2 23-1 5-1 1 1v17h-1l-1-7-7 1h-26l-11-1v-7z" fill="#B58145"/>
<path transform="translate(1635,209)" d="m0 0h1v11l-7 2-36 2h-3v-11l1-2 6 1 16 1 15-1 7-1z" fill="#B58145"/>
<path transform="translate(1437,137)" d="m0 0 2 2 9 2h39l-3 10-4 1-8-1-26-1-14-3 1-5z" fill="#654374"/>
<path transform="translate(1325,204)" d="m0 0h1v24h-1v-7l-21 2h-11l-14-2-1 4v-14l3-1 10 3 19 1 14-1z" fill="#B58145"/>
<path transform="translate(1729,168)" d="m0 0 12 1 10 2 1 1h5v-1l13-1 8 1 1 9-6 1-32-1-9-1z" fill="#A27552"/>
<path transform="translate(1420,150)" d="m0 0h2l2 4 25 4 12 1 16 3-3 5-6-1-13-2-26-1-21-3-7-4v-1z" fill="#7E5964"/>
<path transform="translate(1310,243)" d="m0 0h15l1 5v27h-1v-23l-19 1-21 2h-6l-1 4 1-10 10-4 8-1h8z" fill="#7A5467"/>
<path transform="translate(1325,77)" d="m0 0h1v53l-1 2h-11l-17-1h-10l-8-1-1-9 42 3 5 1z" fill="#43288C"/>
<path transform="translate(1522,230)" d="m0 0 8 1h33l1 1v10l-7-1h-20l-13-1-3-1-1 11h-1v-18z" fill="#906857"/>
<path transform="translate(1733,179)" d="m0 0 43 1 4-1v9h-22l-10 1-13 1-1 4z" fill="#B58145"/>
<path transform="translate(1764,138)" d="m0 0 4 5 1 5-2 2-21 1h-29l-5-5 4-2 18-1 30-2z" fill="#664475"/>
<path transform="translate(1723,253)" d="m0 0 42 1 6 2-1 6-3 5h-2l-1-2-23-4-20-1-3-3z" fill="#644274"/>
<path transform="translate(1733,230)" d="m0 0 13 1h19l11 1 1 1v12l-7-4-8-1h-29l-3 3-2-1 3-10z" fill="#8F6858"/>
<path transform="translate(1596,158)" d="m0 0 6 4 17 1 21 1 3 3-2 4-5 1-37-1-6 1z" fill="#906958"/>
<path transform="translate(1317,270)" d="m0 0h8v5l-11 3-22 2-13-1v28h-1v-35l1-1z" fill="#44298C"/>
<path transform="translate(1519,200)" d="m0 0h1v15l7-1h10l9 1h16l2 2v7l-1-2-7 1h-35l-1 9h-1z" fill="#B58145"/>
<path transform="translate(1807,279)" d="m0 0h8l5 4 1 9-4 6-2 1h-12l-3-4-1-9 5-6z" fill="#23A65E"/>
<path transform="translate(1774,158)" d="m0 0 2 3 1 3v7h-13l-6 1v1h-6l-6-2-15-2-3-3-2-6 7 2 9 1h26l2 1 1-3z" fill="#8F6857"/>
<path transform="translate(1519,140)" d="m0 0 1 4h9l19-1h16v8l-1 1h-36l-8-1z" fill="#644273"/>
<path transform="translate(1282,143)" d="m0 0h37l7 1v8h-28l-19-2v-6z" fill="#644274"/>
<path transform="translate(1520,249)" d="m0 0 21 3h22l2 4v22h-1v-19l-19 1-9-2-12-1-4-2v48h-1v-53z" fill="#664472"/>
<path transform="translate(1564,154)" d="m0 0h1v12l-2 4-34 2-9-1v-8h21l23-1z" fill="#906857"/>
<path transform="translate(1643,249)" d="m0 0 4 1v4l-6 4-10 2-30 2-2-4v-4l5-1h14l15-1z" fill="#654474"/>
<path transform="translate(1590,180)" d="m0 0 2 2 16-1h17l11 1 1 4-1 7-1-2-14-2h-23l-7 1-1-2z" fill="#B58146"/>
<path transform="translate(1278,144)" d="m0 0h1v6l19 1 28 1v6l-9 1h-19l-19-2z" fill="#724D6B"/>
<path transform="translate(1564,112)" d="m0 0h1v16l-1 3-7 1h-33l-4-1-1-2v-13h1v9l5-1h25l14 3z" fill="#43288C"/>
<path transform="translate(1442,122)" d="m0 0 1 3 23-1h10l10 2 4 2v4l-25-1-9 1h-10l-5-1z" fill="#44298B"/>
<path transform="translate(1285,231)" d="m0 0h40v8h-24l-8-1h-10l-4 1v-7z" fill="#8F6858"/>
<path transform="translate(1520,271)" d="m0 0 20 1h12l9-1h3v5l-15 4h-16l-12-2-1-1z" fill="#43288C"/>
<path transform="translate(1733,239)" d="m0 0h29l11 2 3 3-1 6-1-3-17-1h-25l-5 2-2 1 2-5 3-1 1-3z" fill="#7F5A64"/>
<path transform="translate(1564,166)" d="m0 0h1v19l-3 2h-41l-1 10h-1v-19l1 3h12l21-1h10z" fill="#B58145"/>
<path transform="translate(1425,148)" d="m0 0 1 2 9 2 12 2 20 1 13 2-2 5-9-1-15-2h-7l-23-4-2-2 1-4z" fill="#795468"/>
<path transform="translate(1773,155)" d="m0 0h1v5l-4 4h-28l-13-2-5-3v-2l13 1h32l3-1z" fill="#805B63"/>
<path transform="translate(1623,232)" d="m0 0h9v2l7-1 1 4-7 1h-28l-12 2v-7z" fill="#8F6858"/>
<path transform="translate(1520,238)" d="m0 0 7 1 10 1h22l5 2v4h-28l-16-2z" fill="#7E5964"/>
<path transform="translate(1519,151)" d="m0 0h1l1 6 15 2 13-1h12l3-1v5l-5 1-27 1-12-1-1 3z" fill="#7E5964"/>
<path transform="translate(1618,151)" d="m0 0h23l9 2-2 3h-49l1-3z" fill="#724D6B"/>
<path transform="translate(1409,153)" d="m0 0 4 1 1 2 15 3 18 2 17 1 11 3-1 2-6-1-13-2-26-1-21-3-7-4v-1z" fill="#845E61"/>
<path transform="translate(1732,245)" d="m0 0h29l13 2v6l-5-2-9-1-16-1-16 1-5 2 1-3 4-3z" fill="#7A556A"/>
<path transform="translate(1771,151)" d="m0 0 2 2-1 5-9 1h-26l-14-2-2-3h47z" fill="#7A5569"/>
<path transform="translate(1325,302)" d="m0 0h1v5h-46v-4h39zm-32 2 4 1z" fill="#5D428F"/>
<path transform="translate(1596,158)" d="m0 0 6 4 17 1 21 1 3 3-4 2-4-1-33-1-6-1z" fill="#89625D"/>
<path transform="translate(1774,158)" d="m0 0 2 3-1 5-6 1h-29l-12-2-2-5 7 2 9 1h26l2 1 1-3z" fill="#88615B"/>
<path transform="translate(1637,243)" d="m0 0h6l1 3-8 1-3 1-21 1-16 1v-5l5-1h31z" fill="#795569"/>
<path transform="translate(1321,251)" d="m0 0 4 1v6l-30-1-5-1-11 1v-2l19-2 13-1z" fill="#644274"/>
<path transform="translate(1598,152)" d="m0 0 2 2-1 2 32-1 17 1-4 4-43-1-4-1z" fill="#7A5569"/>
<path transform="translate(1559,162)" d="m0 0h5l-1 4-34 2-9-1v-4h21z" fill="#88615B"/>
<path transform="translate(1279,152)" d="m0 0 11 2 21 1h15v3l-9 1h-19l-19-2z" fill="#795469"/>
<path transform="translate(1521,303)" d="m0 0h14 2 28v4h-45z" fill="#654B95"/>
<path transform="translate(1731,236)" d="m0 0h29l16 2 1 1v6l-7-4-8-1h-29l-3 3-2-1z" fill="#89625B"/>
<path transform="translate(1520,154)" d="m0 0 21 1h23l-1 3-6 1h-11l-12 1-13-2z" fill="#795469"/>
<path transform="translate(1283,237)" d="m0 0h10l13 1h18l1 2-5 1h-14l-17 1-10 2v-5z" fill="#88615B"/>
<path transform="translate(1315,248)" d="m0 0h9l1 4-19 1-21 2h-6l-1 4v-5l4-2 10-2 16-1z" fill="#724D6B"/>
<path transform="translate(1279,157)" d="m0 0 29 1h15l4-1 5 1-2 2-13 2-36-1-2-1z" fill="#7E5963"/>
<path transform="translate(1733,239)" d="m0 0h29l11 2 3 3-1 4v-3l-11-2h-33v-3z" fill="#835E61"/>
<path transform="translate(1310,243)" d="m0 0h15v2l-33 4-8 2h-5l1-3 9-3 8-1h8z" fill="#7E5964"/>
<path transform="translate(1639,240)" d="m0 0h3v3l-11 2h-34l-2 2 1-5 2-1h37z" fill="#7F5A64"/>
<path transform="translate(1520,236)" d="m0 0 27 2h16l1 4-7-1h-20l-13-1-4-2z" fill="#88615B"/>
<path transform="translate(1520,244)" d="m0 0h9l7 1 28 1v3h-16l-27-2z" fill="#795469"/>
<path transform="translate(1520,238)" d="m0 0 7 1 10 1h22l5 2-3 1-12 1-28-2z" fill="#835D60"/>
<path transform="translate(1519,151)" d="m0 0h1l1 9 6 1h24l13-1v2l-5 1-27 1-12-1-1 3z" fill="#835D60"/>
<path transform="translate(1436,160)" d="m0 0 28 2 11 3-1 2-6-1-13-2-17-1-3-2z" fill="#835D5F"/>
<path transform="translate(1603,161)" d="m0 0h20l8 1h13l-2 4-6-1-19-1-15-1z" fill="#835D60"/>
<path transform="translate(1605,237)" d="m0 0h35v3h-30l-8-1z" fill="#88615A"/>
<path transform="translate(2046,286)" d="m0 0h2v2l-3-1z" fill="#4EB77E"/>
<path transform="translate(123)" d="m0 0 3 1z" fill="#FEFEFE"/>
<path transform="translate(104)" d="m0 0 3 1z" fill="#FEFEFE"/>
<path transform="translate(99)" d="m0 0 3 1z" fill="#FEFEFE"/>
<path transform="translate(1646,306)" d="m0 0 2 1z" fill="#724D6B"/>
<path transform="translate(543,306)" d="m0 0 2 1z" fill="#FEFEFE"/>
<path transform="translate(129)" d="m0 0 2 1z" fill="#FEFEFE"/>
<path transform="translate(119)" d="m0 0 2 1z" fill="#FEFEFE"/>
<path transform="translate(114)" d="m0 0 2 1z" fill="#FEFEFE"/>
<path transform="translate(109)" d="m0 0 2 1z" fill="#FEFEFE"/>
<path transform="translate(89)" d="m0 0 2 1z" fill="#FEFEFE"/>
<path transform="translate(84)" d="m0 0 2 1z" fill="#FEFEFE"/>
<path transform="translate(79)" d="m0 0 2 1z" fill="#FEFEFE"/>
<path transform="translate(75)" d="m0 0 2 1z" fill="#FEFEFE"/>
<path transform="translate(65)" d="m0 0 2 1z" fill="#FEFEFE"/>
<path transform="translate(50)" d="m0 0 2 1z" fill="#FEFEFE"/>
<path transform="translate(41)" d="m0 0 2 1z" fill="#FEFEFE"/>
<path transform="translate(31)" d="m0 0 2 1z" fill="#FEFEFE"/>
<path transform="translate(25)" d="m0 0 2 1z" fill="#FEFEFE"/>
<path transform="translate(19)" d="m0 0 2 1z" fill="#FEFEFE"/>
<path transform="translate(12)" d="m0 0 2 1z" fill="#FEFEFE"/>
<path transform="translate(1124,306)" d="m0 0" fill="#FEFEFE"/>
<path transform="translate(208)" d="m0 0" fill="#FEFEFE"/>
<path transform="translate(139)" d="m0 0" fill="#FEFEFE"/>
<path transform="translate(134)" d="m0 0" fill="#FEFEFE"/>
<path transform="translate(96)" d="m0 0" fill="#FEFEFE"/>
<path transform="translate(70)" d="m0 0" fill="#FEFEFE"/>
<path transform="translate(60)" d="m0 0" fill="#FEFEFE"/>
<path transform="translate(36)" d="m0 0" fill="#FEFEFE"/>
<path transform="translate(4)" d="m0 0" fill="#FEFEFE"/>
</svg>
