<?xml version="1.0" standalone="no"?>
<!DOCTYPE svg PUBLIC "-//W3C//DTD SVG 20010904//EN"
 "http://www.w3.org/TR/2001/REC-SVG-20010904/DTD/svg10.dtd">
<svg version="1.0" xmlns="http://www.w3.org/2000/svg"
 width="2200.000000pt" height="1071.000000pt" viewBox="0 0 2200.000000 1071.000000"
 preserveAspectRatio="xMidYMid meet">
<metadata>
Created by potrace 1.16, written by Peter Selinger 2001-2019
</metadata>
<g transform="translate(0.000000,1071.000000) scale(0.100000,-0.100000)"
fill="#000000" stroke="none">
<path d="M0 5355 l0 -5355 11000 0 11000 0 0 5355 0 5355 -11000 0 -11000 0 0
-5355z m5282 2801 c234 -50 435 -253 498 -501 87 -348 -127 -716 -475 -816
-153 -43 -353 -26 -487 42 -237 121 -378 350 -378 615 0 314 211 586 510 659
73 18 249 18 332 1z m-2035 -802 c179 -59 392 -163 548 -267 129 -85 285 -214
285 -234 0 -14 -97 -289 -120 -338 -5 -11 -12 -30 -15 -42 -9 -33 -21 -28 -51
19 -100 158 -315 298 -477 310 -39 3 -39 3 -57 -52 -24 -75 -135 -396 -210
-610 -34 -96 -79 -227 -100 -290 -68 -203 -121 -354 -130 -375 -5 -11 -34 -96
-66 -190 -32 -93 -69 -204 -83 -245 l-26 -75 94 -32 c52 -18 143 -58 203 -88
557 -283 1045 -839 1338 -1525 17 -41 37 -88 45 -105 7 -16 16 -41 20 -55 4
-14 11 -29 15 -35 4 -5 13 -28 19 -50 7 -22 16 -49 21 -60 46 -113 168 -550
156 -562 -3 -3 -29 21 -58 53 -193 213 -426 424 -673 612 -66 50 -124 95 -130
99 -5 5 -48 34 -95 64 -298 196 -560 337 -820 443 -36 15 -74 31 -85 36 -106
49 -474 155 -665 191 -194 36 -490 69 -624 69 l-64 0 294 878 c162 482 405
1210 541 1617 136 407 248 742 250 744 8 12 322 -87 347 -109 6 -6 -419 -1304
-454 -1385 -12 -28 -450 -1339 -450 -1347 0 -4 35 -18 78 -32 129 -42 259 -90
329 -122 17 -8 34 -14 38 -14 4 0 21 -6 38 -14 18 -8 52 -23 77 -34 220 -93
584 -281 750 -386 182 -116 247 -159 320 -213 47 -34 96 -70 109 -80 38 -28
183 -145 226 -182 22 -19 110 -105 195 -190 164 -165 305 -334 409 -491 61
-92 70 -92 29 0 -52 117 -64 141 -109 233 -48 95 -138 254 -186 327 -13 19
-29 43 -36 54 -6 10 -41 57 -76 105 -388 521 -904 917 -1536 1177 -94 38 -266
97 -322 109 -18 3 -33 12 -33 18 0 12 495 1498 510 1532 5 11 16 43 24 70 21
70 356 1066 362 1077 8 12 27 10 81 -8z m3893 -189 c37 -110 70 -207 73 -215
3 -8 11 -33 17 -55 6 -22 15 -49 20 -60 10 -22 654 -1946 683 -2040 10 -33 22
-68 28 -77 19 -37 10 -46 -63 -63 -40 -10 -77 -21 -83 -25 -5 -4 -23 -10 -40
-14 -16 -4 -85 -30 -153 -57 -675 -270 -1251 -731 -1638 -1312 -30 -45 -58
-87 -64 -94 -5 -7 -10 -15 -10 -19 0 -3 -8 -18 -19 -32 -52 -76 -259 -507
-248 -518 2 -2 23 27 47 64 46 71 166 233 197 267 10 11 43 50 74 85 58 66
253 261 344 342 62 55 250 204 321 254 477 336 1024 613 1562 790 47 15 81 32
79 38 -2 6 -27 83 -56 171 -29 88 -56 169 -61 180 -5 11 -14 38 -20 60 -6 22
-15 49 -20 60 -11 25 -416 1231 -436 1300 -8 28 -18 57 -21 65 -3 8 -72 212
-153 452 l-147 437 41 17 c84 34 252 85 284 87 l34 2 207 -620 c712 -2124 871
-2601 871 -2608 0 -4 -27 -7 -60 -7 -120 0 -427 -33 -605 -65 -176 -32 -641
-165 -680 -195 -5 -4 -21 -11 -35 -15 -14 -4 -49 -18 -78 -31 -29 -13 -55 -24
-58 -24 -6 0 -356 -174 -389 -194 -267 -157 -377 -230 -555 -364 -128 -97
-251 -199 -350 -287 -82 -74 -343 -336 -368 -369 -12 -16 -25 -26 -29 -22 -10
10 53 251 117 446 90 271 147 412 266 645 122 240 227 403 384 599 302 373
677 657 1040 785 52 19 96 35 98 36 3 3 -73 235 -88 270 -5 11 -25 67 -44 125
-19 58 -65 191 -101 295 -37 105 -75 215 -85 245 -10 30 -55 161 -100 290 -45
129 -102 294 -127 365 -24 72 -54 158 -64 193 l-20 63 -37 -7 c-187 -32 -344
-130 -458 -286 -27 -37 -52 -67 -55 -68 -7 0 -27 50 -105 260 l-53 144 22 24
c35 38 182 151 286 220 175 115 524 274 590 269 23 -2 30 -17 91 -202z m-1770
-527 c219 -72 358 -196 410 -365 19 -63 20 -91 20 -745 l0 -680 -47 7 c-27 3
-79 13 -118 20 -262 52 -763 52 -1020 0 -38 -8 -94 -17 -122 -21 l-53 -7 0
690 c0 657 1 693 19 746 52 150 189 277 371 343 95 35 162 43 315 40 127 -3
162 -7 225 -28z m11565 -2 c308 -83 551 -280 693 -561 57 -114 69 -146 102
-270 74 -281 98 -725 60 -1135 -38 -401 -131 -692 -298 -923 -236 -328 -647
-489 -1076 -421 -209 33 -364 110 -501 248 -110 111 -171 212 -219 365 -27 86
-62 278 -53 288 7 6 499 52 508 47 4 -2 9 -27 13 -55 18 -135 95 -295 169
-351 65 -50 139 -80 212 -87 256 -23 463 97 579 334 37 76 86 228 110 340 16
74 38 236 33 242 -2 1 -21 -12 -43 -31 -126 -108 -285 -183 -459 -218 -180
-36 -407 -10 -578 66 -135 60 -299 196 -394 327 -193 264 -255 679 -157 1056
89 345 363 634 692 729 178 52 432 56 607 10z m2390 19 c317 -51 555 -235 709
-550 127 -259 176 -479 197 -894 22 -421 -17 -839 -103 -1111 -109 -345 -301
-585 -564 -706 -105 -49 -218 -73 -369 -80 -321 -15 -574 78 -773 285 -188
195 -298 470 -359 901 -26 180 -26 808 0 990 49 347 137 598 275 786 66 88
171 192 247 244 96 66 265 126 400 143 76 10 259 6 340 -8z m-13956 -1785
c191 -15 401 -52 576 -102 86 -24 299 -95 340 -113 17 -8 61 -27 100 -43 105
-46 90 -57 -22 -16 -238 87 -533 159 -753 184 -52 6 -131 15 -174 20 -105 13
-484 13 -599 0 -298 -34 -412 -52 -597 -94 -175 -40 -280 -69 -473 -130 -81
-26 -49 4 38 36 44 15 89 32 100 37 129 57 501 156 700 186 287 44 509 54 764
35z m60 -100 c47 -5 129 -14 181 -20 237 -27 662 -133 644 -161 -3 -5 -13 -5
-22 0 -48 24 -347 84 -527 105 -252 31 -332 36 -529 36 -195 0 -595 -29 -696
-50 -25 -5 -81 -14 -125 -20 -44 -7 -145 -25 -225 -42 -80 -16 -156 -32 -170
-35 -17 -4 -22 -2 -15 5 21 22 266 81 590 142 28 5 97 14 155 20 58 6 139 14
180 19 106 12 457 13 559 1z"/>
<path d="M16637 6199 c-151 -17 -309 -126 -400 -276 -103 -169 -131 -435 -67
-629 72 -216 290 -374 517 -374 255 0 451 158 520 420 24 92 24 339 -1 430
-42 156 -131 283 -249 358 -102 64 -196 85 -320 71z"/>
<path d="M19074 6199 c-176 -17 -317 -151 -395 -376 -118 -341 -132 -1158 -28
-1583 43 -173 130 -309 250 -389 80 -53 144 -72 249 -72 79 0 91 3 166 40 90
45 179 129 228 217 98 174 146 488 146 954 0 381 -32 660 -95 836 -92 258
-285 396 -521 373z"/>
</g>
</svg>
