<?xml version="1.0" standalone="no"?>
<!DOCTYPE svg PUBLIC "-//W3C//DTD SVG 20010904//EN"
 "http://www.w3.org/TR/2001/REC-SVG-20010904/DTD/svg10.dtd">
<svg version="1.0" xmlns="http://www.w3.org/2000/svg"
 width="2200.000000pt" height="1071.000000pt" viewBox="0 0 2200.000000 1071.000000"
 preserveAspectRatio="xMidYMid meet">

<g transform="translate(0.000000,1071.000000) scale(0.100000,-0.100000)"
fill="#000000" stroke="none">
<path d="M3098 7127 c-104 -314 -805 -2409 -814 -2430 -4 -12 -1 -17 11 -17
27 0 274 -86 391 -136 706 -301 1263 -774 1649 -1399 71 -115 203 -377 254
-505 17 -41 31 -72 31 -67 0 17 -93 325 -135 442 -290 818 -762 1431 -1364
1773 -107 60 -278 136 -346 153 -25 6 -45 14 -45 18 0 6 184 542 270 786 21
61 104 301 185 535 188 548 185 540 201 540 35 0 158 -32 209 -55 112 -49 253
-170 308 -263 25 -42 19 -52 103 174 l67 178 -44 39 c-181 159 -424 308 -649
397 -94 38 -186 70 -200 70 -3 0 -40 -105 -82 -233z"/>
<path d="M6965 7331 c-192 -68 -356 -150 -523 -262 -116 -77 -247 -180 -265
-209 -6 -11 11 -68 58 -195 37 -99 69 -184 72 -188 3 -5 18 10 33 33 92 139
247 250 408 291 126 32 104 60 221 -278 56 -164 166 -480 243 -703 78 -223
147 -423 154 -445 7 -22 42 -124 78 -227 35 -103 62 -189 58 -192 -4 -2 -43
-16 -87 -31 -121 -41 -307 -135 -435 -220 -543 -361 -955 -927 -1226 -1683
-46 -128 -137 -432 -132 -438 2 -2 15 25 28 59 71 184 202 431 333 627 225
338 574 687 927 926 200 136 441 266 666 359 101 42 344 125 366 125 13 0 -75
273 -414 1283 -236 705 -437 1306 -446 1336 -10 30 -22 56 -27 58 -6 1 -46
-10 -90 -26z"/>
<path d="M8970 5150 l0 -1640 275 0 275 0 0 640 0 640 409 0 c226 0 468 5 538
10 493 40 764 193 932 527 145 288 147 658 5 948 -128 261 -329 413 -629 475
-171 36 -283 40 -1051 40 l-754 0 0 -1640z m1618 1121 c194 -36 326 -186 353
-403 27 -219 -66 -418 -234 -497 -137 -64 -143 -64 -689 -69 l-498 -3 0 489
c0 269 3 492 8 496 10 11 995 -1 1060 -13z"/>
<path d="M11860 6500 l0 -290 260 0 260 0 0 290 0 290 -260 0 -260 0 0 -290z"/>
<path d="M3880 6051 c-86 -28 -159 -90 -201 -171 -20 -38 -24 -60 -24 -140 0
-79 4 -103 23 -142 112 -228 432 -249 568 -37 104 164 41 385 -134 471 -50 24
-182 35 -232 19z"/>
<path d="M6189 6046 c-93 -33 -165 -104 -200 -195 -29 -77 -23 -185 13 -256
31 -60 103 -130 162 -156 161 -71 354 6 430 170 32 70 29 188 -6 263 -35 75
-104 141 -174 167 -63 24 -169 27 -225 7z"/>
<path d="M13695 5969 c-292 -26 -575 -174 -747 -388 -72 -89 -143 -223 -178
-332 -102 -323 -103 -754 0 -1060 152 -454 546 -729 1045 -729 504 0 928 281
1064 705 64 198 86 374 78 635 -8 310 -68 515 -209 722 -132 196 -370 357
-615 418 -71 18 -277 42 -328 39 -11 -1 -60 -5 -110 -10z m274 -464 c92 -22
176 -70 252 -145 153 -151 219 -373 206 -699 -10 -277 -69 -449 -200 -583
-166 -171 -428 -216 -647 -111 -103 49 -211 158 -263 263 -122 250 -125 724
-6 962 81 162 207 268 370 312 71 19 208 19 288 1z"/>
<path d="M11860 4720 l0 -1210 260 0 260 0 0 1210 0 1210 -260 0 -260 0 0
-1210z"/>
<path d="M3870 5286 c-74 -21 -97 -33 -140 -72 -78 -71 -80 -79 -80 -370 0
-201 3 -255 13 -251 6 3 63 28 126 57 114 52 403 153 474 166 l39 7 -4 141
c-3 128 -5 145 -28 186 -65 115 -251 178 -400 136z"/>
<path d="M6197 5290 c-57 -15 -128 -54 -164 -92 -54 -56 -63 -91 -63 -251 l0
-144 61 -17 c116 -32 314 -108 448 -172 74 -35 136 -64 138 -64 9 0 2 527 -9
561 -17 58 -71 114 -143 150 -53 26 -78 32 -147 35 -46 2 -100 -1 -121 -6z"/>
<path d="M5005 4863 c-282 -12 -573 -62 -860 -148 -66 -20 -128 -38 -138 -41
-10 -3 -17 -8 -14 -10 2 -3 47 6 98 20 341 89 597 124 955 133 284 7 457 -4
689 -43 128 -21 411 -87 468 -109 9 -4 17 -5 17 -1 0 8 -270 92 -390 121 -166
39 -341 64 -530 75 -96 5 -186 9 -200 8 -14 -1 -56 -3 -95 -5z"/>
<path d="M4920 4760 c-204 -15 -619 -75 -606 -88 3 -2 69 6 148 17 230 34 328
41 598 48 264 6 496 -5 684 -32 121 -18 140 -18 64 1 -186 45 -637 72 -888 54z"/>
<path d="M5878 4683 c6 -2 18 -2 25 0 6 3 1 5 -13 5 -14 0 -19 -2 -12 -5z"/>
<path d="M5938 4673 c7 -3 16 -2 19 1 4 3 -2 6 -13 5 -11 0 -14 -3 -6 -6z"/>
<path d="M4278 4663 c7 -3 16 -2 19 1 4 3 -2 6 -13 5 -11 0 -14 -3 -6 -6z"/>
<path d="M4228 4653 c7 -3 16 -2 19 1 4 3 -2 6 -13 5 -11 0 -14 -3 -6 -6z"/>
<path d="M1841 3813 c-13 -49 -141 -582 -141 -587 0 -2 19 0 43 6 111 25 319
49 477 54 709 25 1515 -226 2250 -702 l145 -94 -65 61 c-401 376 -923 665
-1455 804 -287 75 -536 108 -822 109 -168 0 -193 2 -193 15 0 9 13 85 29 169
l28 154 -23 8 c-36 14 -183 40 -225 40 -36 0 -39 -2 -48 -37z"/>
<path d="M8270 3843 c-53 -8 -160 -35 -164 -42 -2 -3 9 -78 25 -166 16 -88 29
-162 29 -165 0 -3 -96 -7 -212 -7 -444 -2 -858 -90 -1285 -273 -348 -149 -718
-393 -978 -643 l-60 -58 65 45 c400 272 898 506 1333 625 343 94 565 125 897
125 244 0 382 -12 555 -48 60 -12 65 -12 61 3 -7 21 -146 601 -146 607 0 5
-84 3 -120 -3z"/>
<path d="M14869 3007 c-117 -33 -206 -148 -265 -344 -22 -72 -27 -109 -28
-203 -1 -131 11 -164 74 -203 49 -31 156 -30 222 1 131 64 239 279 255 508 8
121 -21 195 -93 232 -35 18 -116 22 -165 9z m113 -128 c30 -30 31 -32 25 -102
-6 -79 -33 -188 -68 -282 -30 -82 -102 -155 -152 -155 -19 0 -43 3 -52 6 -25
10 -45 59 -45 111 0 99 73 334 122 394 23 28 82 59 111 59 19 0 39 -11 59 -31z"/>
<path d="M18311 3010 c-93 -20 -176 -89 -223 -187 -57 -120 -46 -233 29 -291
30 -22 48 -27 107 -30 60 -3 78 0 121 22 27 14 51 24 53 22 2 -2 -9 -28 -23
-58 -30 -59 -76 -113 -117 -134 -29 -15 -96 -19 -114 -6 -18 12 -34 49 -34 80
0 29 -1 29 -47 25 -77 -7 -76 -7 -70 -68 11 -104 67 -150 182 -149 178 2 304
137 370 398 48 190 23 310 -75 361 -36 18 -107 25 -159 15z m92 -112 c34 -18
46 -40 47 -84 0 -78 -43 -159 -101 -190 -66 -33 -152 -12 -165 42 -32 127 118
286 219 232z"/>
<path d="M18879 3007 c-127 -36 -221 -165 -276 -377 -50 -198 -27 -329 67
-378 38 -20 55 -23 107 -18 148 13 246 111 311 311 94 287 53 448 -118 469
-25 3 -66 0 -91 -7z m108 -121 c26 -22 28 -29 27 -93 -2 -124 -71 -341 -127
-401 -52 -56 -122 -68 -162 -27 -21 20 -25 34 -25 86 0 115 60 321 114 392 51
66 125 85 173 43z"/>
<path d="M19375 3004 c-79 -41 -133 -130 -142 -236 -10 -105 31 -158 124 -158
72 0 111 18 161 75 62 71 91 194 62 269 -22 59 -136 86 -205 50z m100 -139 c0
-71 -27 -133 -67 -155 -58 -32 -84 28 -53 124 22 68 51 98 90 94 30 -3 30 -3
30 -63z"/>
<path d="M19546 2623 l-305 -398 51 -3 c39 -2 55 1 69 15 17 18 579 748 593
771 5 9 -6 12 -47 12 l-55 0 -306 -397z"/>
<path d="M9225 2998 c-6 -17 -185 -736 -185 -743 0 -3 89 -5 198 -5 151 0 211
4 251 16 93 27 181 131 197 232 7 47 -22 124 -55 141 -20 11 -19 13 20 48 55
50 79 100 79 165 0 63 -24 109 -72 135 -28 15 -63 18 -231 21 -157 3 -198 1
-202 -10z m288 -107 c76 -8 87 -17 87 -71 0 -81 -51 -110 -207 -117 -110 -6
-115 -5 -110 13 4 10 13 51 22 89 9 39 19 76 21 83 4 14 80 15 187 3z m-53
-311 c73 -10 90 -25 90 -78 0 -47 -32 -96 -78 -118 -49 -24 -272 -34 -272 -13
1 23 45 193 53 207 10 15 112 16 207 2z"/>
<path d="M10475 2998 c-6 -17 -185 -736 -185 -743 0 -3 27 -5 60 -5 l59 0 10
38 c6 20 46 183 91 362 44 179 83 333 86 343 5 15 -2 17 -56 17 -39 0 -62 -4
-65 -12z"/>
<path d="M11271 2963 c-7 -27 -14 -56 -17 -66 -5 -16 1 -18 57 -15 l63 3 13
50 c19 76 20 75 -46 75 l-59 0 -11 -47z"/>
<path d="M13025 2898 c-15 -62 -29 -114 -30 -115 -1 -2 -19 7 -41 18 -75 39
-201 13 -277 -59 -104 -99 -158 -299 -108 -407 22 -48 44 -69 95 -90 44 -19
121 -13 171 12 20 11 30 12 33 4 2 -6 27 -11 60 -11 l57 0 93 373 c51 204 92
375 92 380 0 4 -26 7 -59 7 l-59 0 -27 -112z m-98 -210 c14 -16 18 -37 18 -92
0 -61 -5 -82 -33 -138 -38 -77 -75 -109 -135 -115 -84 -10 -122 56 -97 166 24
110 77 181 147 200 39 10 79 2 100 -21z"/>
<path d="M14191 2973 c-5 -21 -13 -50 -17 -65 l-6 -28 61 0 60 0 10 38 c5 20
13 49 17 65 l6 27 -61 0 -60 0 -10 -37z"/>
<path d="M15581 2973 c-6 -21 -46 -184 -91 -363 -44 -179 -83 -333 -86 -342
-5 -16 2 -18 59 -18 l65 0 42 170 42 170 174 0 c115 0 174 -4 174 -11 0 -9
-64 -269 -76 -311 -5 -16 2 -18 60 -18 l65 0 10 38 c6 20 46 183 91 362 44
179 83 333 86 343 5 15 -2 17 -60 17 -75 0 -62 22 -112 -182 l-28 -118 -177 0
-177 0 38 150 38 150 -64 0 -63 0 -10 -37z"/>
<path d="M17405 2998 c-10 -30 -25 -94 -25 -105 0 -9 18 -13 59 -13 l59 0 11
48 c7 26 14 55 17 65 5 15 -2 17 -56 17 -40 0 -62 -4 -65 -12z"/>
<path d="M17537 2630 l-95 -380 62 0 61 0 93 373 c51 204 92 375 92 380 0 4
-26 7 -59 7 l-59 0 -95 -380z"/>
<path d="M9989 2804 c-138 -48 -241 -203 -243 -364 -1 -73 8 -103 45 -144 83
-95 275 -82 387 27 49 47 78 95 65 107 -4 4 -30 10 -58 13 -49 5 -51 4 -76
-32 -49 -70 -151 -94 -205 -48 -21 18 -28 35 -32 75 l-5 52 201 0 201 0 12 42
c6 24 9 73 7 110 -3 57 -8 73 -34 105 -17 21 -44 45 -60 53 -42 21 -150 23
-205 4z m164 -126 c11 -13 17 -34 15 -52 l-3 -31 -127 -3 c-71 -1 -128 0 -128
4 0 4 9 22 21 41 48 77 173 101 222 41z"/>
<path d="M10785 2807 c-59 -20 -97 -42 -126 -74 -29 -30 -63 -92 -56 -99 2 -3
27 -8 56 -13 50 -8 51 -8 70 25 30 50 60 65 131 65 77 1 106 -20 95 -69 -7
-35 -8 -35 -154 -57 -119 -18 -164 -34 -210 -78 -64 -61 -87 -147 -56 -207 39
-76 185 -90 307 -29 36 18 37 18 43 -1 5 -17 15 -20 65 -20 l58 0 0 53 c0 28
17 117 37 197 53 211 50 261 -18 297 -42 22 -187 28 -242 10z m129 -329 c-23
-75 -76 -123 -154 -138 -80 -15 -120 9 -106 65 9 37 49 58 150 76 124 23 118
23 110 -3z"/>
<path d="M11573 2802 c-28 -10 -67 -31 -87 -46 -35 -26 -93 -112 -83 -122 2
-3 28 -8 56 -13 50 -8 52 -8 71 24 31 50 63 66 130 66 73 1 100 -13 100 -49 0
-46 -13 -53 -116 -69 -162 -25 -199 -38 -254 -91 -81 -78 -91 -173 -25 -230
58 -52 176 -52 275 -2 48 25 50 25 50 0 0 -18 7 -20 63 -20 l62 0 -3 45 c-3
28 11 105 37 213 23 94 41 179 41 191 0 36 -28 80 -63 98 -49 25 -188 28 -254
5z m147 -312 c0 -25 -42 -91 -73 -114 -40 -30 -126 -50 -161 -36 -30 11 -40
40 -26 72 17 36 46 50 145 69 114 21 115 21 115 9z"/>
<path d="M12173 2800 c-27 -16 -33 -17 -33 -5 0 11 -13 15 -55 15 l-54 0 -10
-37 c-6 -21 -35 -139 -66 -263 -31 -124 -58 -233 -61 -243 -5 -16 1 -18 57
-15 l62 3 43 166 c23 91 49 179 57 195 35 66 83 89 148 70 24 -7 29 -3 58 43
l31 51 -33 20 c-41 26 -103 26 -144 0z"/>
<path d="M13349 2805 c-55 -18 -133 -83 -159 -135 l-19 -38 57 -10 c47 -8 58
-7 66 5 4 8 20 29 35 45 30 34 91 49 151 37 42 -9 58 -29 52 -68 -5 -34 -7
-35 -158 -56 -170 -24 -261 -91 -272 -203 -11 -124 99 -181 257 -133 38 12 73
26 76 31 10 17 25 11 25 -10 0 -18 7 -20 65 -20 l66 0 -6 33 c-5 23 6 88 34
204 55 228 54 269 -12 308 -43 25 -192 31 -258 10z m139 -337 c-24 -69 -73
-111 -150 -127 -77 -17 -118 8 -104 64 9 37 49 58 150 76 125 23 117 24 104
-13z"/>
<path d="M13948 2800 c-29 -15 -36 -16 -32 -5 5 12 -5 15 -53 15 l-58 0 -68
-272 c-37 -150 -67 -276 -67 -280 0 -5 26 -8 59 -8 l59 0 37 153 c48 192 76
255 129 281 35 17 41 17 70 4 l32 -16 32 49 c18 27 32 53 32 58 0 14 -65 41
-102 41 -18 0 -50 -9 -70 -20z"/>
<path d="M16383 2802 c-28 -10 -67 -31 -87 -46 -35 -26 -93 -112 -83 -122 2
-3 28 -8 56 -13 50 -8 52 -8 71 24 31 50 63 66 130 66 73 1 100 -13 100 -49 0
-46 -13 -53 -116 -69 -162 -25 -199 -38 -254 -91 -81 -78 -91 -173 -25 -230
58 -52 176 -52 275 -2 48 25 50 25 50 0 0 -18 7 -20 63 -20 l62 0 -3 45 c-3
28 11 105 37 213 23 94 41 179 41 191 0 36 -28 80 -63 98 -49 25 -188 28 -254
5z m147 -312 c0 -25 -42 -91 -73 -114 -40 -30 -126 -50 -161 -36 -30 11 -40
40 -26 72 17 36 46 50 145 69 114 21 115 21 115 9z"/>
<path d="M16930 2804 c-118 -43 -181 -156 -135 -244 19 -36 45 -50 157 -84 96
-30 115 -44 99 -75 -22 -41 -61 -61 -118 -61 -65 0 -103 29 -103 80 0 32 0 32
-42 25 -77 -12 -78 -13 -78 -59 0 -55 32 -104 85 -131 60 -30 173 -27 245 6
115 54 174 160 135 242 -19 41 -49 57 -173 96 -102 32 -120 51 -79 87 23 20
39 24 87 24 66 0 90 -15 90 -57 0 -25 2 -25 46 -19 26 3 53 6 60 6 19 0 18 73
-1 110 -9 16 -30 37 -48 47 -46 24 -170 28 -227 7z"/>
<path d="M11166 2543 c-104 -416 -100 -407 -163 -401 -32 2 -35 0 -58 -49
l-24 -52 35 -7 c55 -10 129 1 162 24 17 12 40 43 52 68 18 36 179 645 180 677
0 4 -26 7 -59 7 l-59 0 -66 -267z"/>
<path d="M14141 2773 c-6 -21 -35 -139 -66 -263 -31 -124 -58 -233 -61 -243
-5 -16 1 -18 57 -15 l63 3 68 270 c37 149 68 273 68 278 0 4 -27 7 -60 7 l-59
0 -10 -37z"/>
<path d="M17355 2798 c-6 -17 -135 -536 -135 -543 0 -3 27 -5 60 -5 l59 0 10
38 c6 20 35 138 66 262 31 124 58 233 61 243 5 15 -2 17 -56 17 -39 0 -62 -4
-65 -12z"/>
<path d="M4999 2756 c-116 -32 -232 -127 -282 -229 -15 -31 -27 -61 -27 -66 0
-6 21 -11 48 -11 46 0 48 1 71 45 86 162 301 226 471 140 50 -25 128 -103 154
-153 15 -29 21 -32 66 -32 48 0 49 1 40 25 -53 141 -179 252 -321 284 -59 14
-163 12 -220 -3z"/>
<path d="M19779 2626 c-63 -22 -97 -54 -131 -124 -28 -57 -33 -77 -33 -140 0
-72 1 -74 37 -108 32 -29 45 -34 85 -34 132 1 233 122 233 280 0 66 -23 104
-76 126 -41 17 -68 17 -115 0z m80 -108 c10 -27 -3 -100 -27 -147 -31 -65
-102 -78 -111 -20 -6 41 19 128 46 159 31 37 79 42 92 8z"/>
</g>
</svg>
