<?xml version="1.0" encoding="UTF-8"?>
<svg version="1.1" xmlns="http://www.w3.org/2000/svg" width="717" height="348">
<path d="M0 0 C1.48671021 0.55692151 2.96027068 1.14970738 4.421875 1.76953125 C10.72153634 4.34598027 17.1589814 6.44641334 23.625 8.5625 C36.97255307 12.94582472 36.97255307 12.94582472 42.76513672 15.16674805 C47.73415348 17.01940855 52.76013825 18.71672354 57.77392578 20.44384766 C59.76014952 21.12849854 61.74532824 21.81612179 63.73046875 22.50390625 C65.00254211 22.94288819 66.27467541 23.38169649 67.546875 23.8203125 C68.68995117 24.21492676 69.83302734 24.60954102 71.01074219 25.01611328 C73.33541185 25.78125692 75.61638468 26.45694391 78 27 C78 27.66 78 28.32 78 29 C79.11375 29.0825 80.2275 29.165 81.375 29.25 C85.74401894 29.78843543 89.39870357 31.24746115 93.4296875 32.9609375 C95.93017582 33.9717732 98.40776544 34.76052243 101 35.5 C104.47757747 36.49748696 107.7826995 37.67754062 111.125 39.0625 C115.37000961 40.8155815 119.51925946 42.00427988 124 43 C124 43.66 124 44.32 124 45 C125.27875 45.144375 126.5575 45.28875 127.875 45.4375 C130.25692894 45.70642746 131.84452691 45.92226346 134 47 C134 48.32 134 49.64 134 51 C133.40832031 51.12117188 132.81664062 51.24234375 132.20703125 51.3671875 C131.41683594 51.53476563 130.62664062 51.70234375 129.8125 51.875 C129.03519531 52.03742188 128.25789063 52.19984375 127.45703125 52.3671875 C124.98424878 52.94775555 124.98424878 52.94775555 122.65234375 53.94140625 C118.215628 55.71217203 113.58595423 56.8326993 108.984375 58.09765625 C106.14182204 58.70077901 106.14182204 58.70077901 105 60 C105.73017334 60.55457886 105.73017334 60.55457886 106.47509766 61.12036133 C108.63363386 63.7810354 108.38795978 65.67619405 108.3984375 69.07421875 C108.40431885 70.29246338 108.4102002 71.51070801 108.41625977 72.76586914 C108.39583618 74.70707642 108.39583618 74.70707642 108.375 76.6875 C108.36847412 77.99775146 108.36194824 79.30800293 108.35522461 80.65795898 C108.22489173 90.09861791 107.39838354 98.86625958 105 108 C104.80277344 108.79277344 104.60554687 109.58554688 104.40234375 110.40234375 C104.26957031 110.92957031 104.13679687 111.45679688 104 112 C103.34 112 102.68 112 102 112 C101.979375 113.03125 101.95875 114.0625 101.9375 115.125 C100.7645979 124.55848403 94.07505292 135.89049535 88 143 C87.34 143 86.68 143 86 143 C85.90203125 143.58910156 85.8040625 144.17820313 85.703125 144.78515625 C84.86052189 147.43935603 83.76659256 148.53927266 81.75 150.4375 C81.1209375 151.03691406 80.491875 151.63632813 79.84375 152.25390625 C79.2353125 152.83011719 78.626875 153.40632812 78 154 C77.0925 154.94875 76.185 155.8975 75.25 156.875 C73 159 73 159 70 160 C69.67 160.99 69.34 161.98 69 163 C68.34 163 67.68 163 67 163 C67 163.66 67 164.32 67 165 C65.68 165.33 64.36 165.66 63 166 C63 166.66 63 167.32 63 168 C60.73354942 169.34130761 58.46239903 170.67316234 56.1875 172 C55.54490234 172.3815625 54.90230469 172.763125 54.24023438 173.15625 C49.33984375 176 49.33984375 176 46 176 C46 176.66 46 177.32 46 178 C44.02 178.33 42.04 178.66 40 179 C40 179.66 40 180.32 40 181 C35.33333333 182.33333333 30.66666667 183.66666667 26 185 C24.96174072 185.34659668 23.92348145 185.69319336 22.85375977 186.05029297 C18.3271515 187.16581442 14.23246412 187.28801541 9.59375 187.265625 C8.71021851 187.26753845 7.82668701 187.2694519 6.91638184 187.27142334 C5.05737013 187.27277801 3.19834874 187.26913202 1.33935547 187.26074219 C-1.49142896 187.25003243 -4.32157885 187.26066196 -7.15234375 187.2734375 C-8.96614722 187.27211578 -10.7799503 187.26955312 -12.59375 187.265625 C-13.43248657 187.26967346 -14.27122314 187.27372192 -15.13537598 187.27789307 C-20.15047871 187.2382595 -24.2370949 186.57311093 -29 185 C-30.66246041 184.64628502 -32.32774271 184.30404678 -34 184 C-34 183.34 -34 182.68 -34 182 C-36.64 181.67 -39.28 181.34 -42 181 C-42 180.34 -42 179.68 -42 179 C-44.31 178.67 -46.62 178.34 -49 178 C-49 177.34 -49 176.68 -49 176 C-49.804375 175.95875 -50.60875 175.9175 -51.4375 175.875 C-55.71004744 174.82560238 -58.48886541 172.89223128 -62.046875 170.375 C-63.94866723 168.96350025 -63.94866723 168.96350025 -66 168 C-66 167.34 -66 166.68 -66 166 C-66.556875 165.938125 -67.11375 165.87625 -67.6875 165.8125 C-70.94477526 164.66805194 -72.6499098 162.47377916 -75 160 C-75.66 159.67 -76.32 159.34 -77 159 C-77 158.34 -77 157.68 -77 157 C-77.99 157.33 -78.98 157.66 -80 158 C-80.309375 158.66 -80.61875 159.32 -80.9375 160 C-82 162 -82 162 -84.125 162.75 C-84.74375 162.8325 -85.3625 162.915 -86 163 C-86 163.66 -86 164.32 -86 165 C-88.31 165.33 -90.62 165.66 -93 166 C-93 166.66 -93 167.32 -93 168 C-109.74180554 170.83389938 -109.74180554 170.83389938 -116 168 C-118.5625 165.1875 -118.5625 165.1875 -120 162 C-119.875 159.5 -119.875 159.5 -119 157 C-118.649375 155.906875 -118.29875 154.81375 -117.9375 153.6875 C-117.628125 152.800625 -117.31875 151.91375 -117 151 C-116.34 151 -115.68 151 -115 151 C-114.896875 150.46375 -114.79375 149.9275 -114.6875 149.375 C-113.81907303 146.37497956 -112.44379704 143.7620465 -111 141 C-110.34 141 -109.68 141 -109 141 C-108.896875 140.13117188 -108.79375 139.26234375 -108.6875 138.3671875 C-107.95868975 134.79767365 -106.75390771 132.30395773 -105 129.125 C-102.44679697 124.22627074 -101.21145448 120.49781646 -101 115 C-102.65 114.67 -104.3 114.34 -106 114 C-106 113.34 -106 112.68 -106 112 C-107.485 111.505 -107.485 111.505 -109 111 C-109 110.01 -109 109.02 -109 108 C-109.66 108 -110.32 108 -111 108 C-112.6414335 103.07569949 -112.41363809 99.22023236 -110.75 94.3125 C-108.46654022 89.99023685 -106.67958743 87.55986248 -102 86 C-102.495 85.505 -102.495 85.505 -103 85 C-105.31 85.99 -107.62 86.98 -110 88 C-112.56920205 85.43079795 -111.18558279 78.20481122 -111.1875 74.75 C-111.19974609 73.60402344 -111.21199219 72.45804687 -111.22460938 71.27734375 C-111.22750977 69.61638672 -111.22750977 69.61638672 -111.23046875 67.921875 C-111.23457764 66.90706055 -111.23868652 65.89224609 -111.24291992 64.84667969 C-110.98927351 61.87430065 -110.2468473 59.6944503 -109 57 C-110.85625 56.38125 -110.85625 56.38125 -112.75 55.75 C-113.55953125 55.47542969 -114.3690625 55.20085937 -115.203125 54.91796875 C-117.20273193 54.26167318 -119.21498837 53.64342733 -121.234375 53.05078125 C-122.31203125 52.72464844 -123.3896875 52.39851563 -124.5 52.0625 C-125.5209375 51.76472656 -126.541875 51.46695313 -127.59375 51.16015625 C-130 50 -130 50 -130.84375 47.87109375 C-130.8953125 47.25363281 -130.946875 46.63617188 -131 46 C-130.12859375 45.69707031 -129.2571875 45.39414063 -128.359375 45.08203125 C-121.58484095 42.69921354 -114.92585797 40.18430677 -108.3125 37.37890625 C-96.75209736 32.566616 -84.99530963 28.21812271 -73.26318359 23.84521484 C-70.8057213 22.92744414 -68.34998629 22.00515859 -65.89453125 21.08203125 C-56.54283791 17.56758082 -47.18689653 14.06560395 -37.81640625 10.6015625 C-36.2191488 10.01051993 -34.62189947 9.41945545 -33.0246582 8.82836914 C-29.87697441 7.66359578 -26.72819854 6.5018363 -23.57885742 5.34155273 C-22.12023833 4.80203306 -20.66165902 4.26240584 -19.203125 3.72265625 C-18.19995995 3.3544426 -18.19995995 3.3544426 -17.17652893 2.97879028 C-14.63463071 2.03592699 -12.17459366 1.0924917 -9.77636719 -0.17797852 C-6.57053383 -1.66149156 -3.30575341 -0.79830121 0 0 Z M-5.6875 40.75 C-7.0995411 41.30651608 -8.51230941 41.8611904 -9.92578125 42.4140625 C-10.61623535 42.68637695 -11.30668945 42.95869141 -12.01806641 43.23925781 C-14.77365385 44.29695804 -17.56702982 45.21685958 -20.375 46.125 C-24.02213114 47.3127819 -27.57797993 48.60293429 -31.125 50.0625 C-35.11692376 51.70397905 -39.11646743 52.98014596 -43.28515625 54.09375 C-45.68876981 54.89610733 -47.87732389 55.83392111 -50.17578125 56.890625 C-54.22550209 58.72717989 -58.30860543 60.1104084 -62.54907227 61.43359375 C-74.21489383 65.0235456 -74.21489383 65.0235456 -82 74 C-82.9590625 75.7015625 -82.9590625 75.7015625 -83.9375 77.4375 C-85.18765362 81.62919156 -85.85740263 85.66255138 -85 90 C-83.6040795 91.67735583 -83.6040795 91.67735583 -82 93 C-79.40888845 96.68210589 -79.60036617 100.67063352 -80 105 C-80.75 108.375 -80.75 108.375 -82 111 C-84.078125 112.1640625 -84.078125 112.1640625 -86 113 C-85.58955515 119.57791873 -85.13391403 125.74051886 -83 132 C-80.69 132 -78.38 132 -76 132 C-75.938125 132.721875 -75.87625 133.44375 -75.8125 134.1875 C-74.7446249 137.88399074 -72.89180184 139.53138868 -70 142 C-69.34 142 -68.68 142 -68 142 C-67.67 142.99 -67.34 143.98 -67 145 C-66.34 145 -65.68 145 -65 145 C-64.67 145.99 -64.34 146.98 -64 148 C-63.34 148 -62.68 148 -62 148 C-62 148.66 -62 149.32 -62 150 C-58.50584775 153.17650204 -52.91759481 158 -48 158 C-48 158.66 -48 159.32 -48 160 C-45.44225544 161.17818551 -42.87965758 162.34265655 -40.3125 163.5 C-39.59126953 163.83386719 -38.87003906 164.16773438 -38.12695312 164.51171875 C-34.28539628 166.23077159 -31.30557312 167.47556626 -27 167 C-27 167.66 -27 168.32 -27 169 C-24.97924243 169.31298952 -22.95839006 169.62536704 -20.9375 169.9375 C-19.81214844 170.11152344 -18.68679687 170.28554688 -17.52734375 170.46484375 C-16.36332031 170.64144531 -15.19929688 170.81804687 -14 171 C-12.27910156 171.27457031 -12.27910156 171.27457031 -10.5234375 171.5546875 C-0.84909102 172.77738761 8.55283693 172.3046152 18 170 C19.99810662 169.65549886 21.99722415 169.31622777 24 169 C24 168.34 24 167.68 24 167 C26.97 166.67 29.94 166.34 33 166 C33 165.34 33 164.68 33 164 C33.86625 163.896875 34.7325 163.79375 35.625 163.6875 C39.16683123 162.96601586 41.84312042 161.72876739 45 160 C45 159.34 45 158.68 45 158 C45.825 157.79375 46.65 157.5875 47.5 157.375 C51.89143822 155.64979213 55.54681549 153.22530939 59 150 C59 149.34 59 148.68 59 148 C59.59296875 147.90589844 60.1859375 147.81179687 60.796875 147.71484375 C63.49142641 146.84054781 64.46322756 145.73279682 66.25 143.5625 C66.77078125 142.94503906 67.2915625 142.32757813 67.828125 141.69140625 C69.18983536 140.06895498 69.18983536 140.06895498 69 138 C69.66 138 70.32 138 71 138 C72.6366755 135.73701547 74.14565511 133.48732888 75.625 131.125 C76.25535156 130.14853516 76.25535156 130.14853516 76.8984375 129.15234375 C79.21126526 125.83752498 79.21126526 125.83752498 80 122 C80.66 122 81.32 122 82 122 C83.00981089 119.27411167 84.00803308 116.54487736 85 113.8125 C85.28617188 113.04357422 85.57234375 112.27464844 85.8671875 111.48242188 C87.28784938 107.54177643 88.40963365 104.25848319 88 100 C88.66 100 89.32 100 90 100 C91.08834175 92.68341683 91.32457962 85.38723272 91.5625 78 C91.62727539 76.12248047 91.62727539 76.12248047 91.69335938 74.20703125 C91.79878017 71.13811477 91.90090342 68.06912611 92 65 C93.65 64.67 95.3 64.34 97 64 C96.67 63.34 96.34 62.68 96 62 C94.68611248 62.26401995 93.37397661 62.53675364 92.0625 62.8125 C91.33160156 62.96332031 90.60070312 63.11414063 89.84765625 63.26953125 C86.64298735 64.09157938 83.54730002 65.12433137 80.4152832 66.1862793 C76.48153172 67.51157938 72.52173395 68.7533208 68.5625 70 C67.72702637 70.26345215 66.89155273 70.5269043 66.03076172 70.79833984 C61.15968377 72.33082448 56.28233305 73.83661149 51.38671875 75.2890625 C48.39935655 76.17891507 45.41806867 77.08765102 42.4375 78 C41.42558594 78.309375 40.41367188 78.61875 39.37109375 78.9375 C36.80137232 79.74742379 34.24562391 80.581076 31.69140625 81.4375 C26.1857446 83.28218344 20.64630623 85.01453378 15.10546875 86.75 C9.71732811 88.44316367 4.35229559 90.19671761 -1 92 C-1 91.34 -1 90.68 -1 90 C-1.81339844 89.76925781 -2.62679687 89.53851563 -3.46484375 89.30078125 C-6.59939065 88.40872235 -9.73244501 87.51171625 -12.86474609 86.61181641 C-14.29942437 86.20073662 -15.73465658 85.79158561 -17.17041016 85.38427734 C-24.69362527 83.24842803 -32.05708821 81.09647638 -39.265625 78.0390625 C-45.07574345 75.83121749 -51.11223002 74.26482241 -57.08789062 72.56933594 C-58.83068995 72.05041254 -60.550197 71.45483503 -62.265625 70.8515625 C-65.15919595 69.8017714 -65.15919595 69.8017714 -69 70 C-68.67 68.68 -68.34 67.36 -68 66 C-65.36 65.34 -62.72 64.68 -60 64 C-60 63.34 -60 62.68 -60 62 C-58.2984375 61.87625 -58.2984375 61.87625 -56.5625 61.75 C-53.30481911 61.34950923 -50.76213779 60.56443209 -47.80859375 59.14453125 C-43.13971106 57.00164244 -38.41142024 55.42374544 -33.5 53.9375 C-31.90602486 53.44734614 -30.31227385 52.95646281 -28.71875 52.46484375 C-27.94660156 52.22749512 -27.17445313 51.99014648 -26.37890625 51.74560547 C-22.56789114 50.55114322 -18.78311395 49.27968236 -15 48 C-15 47.34 -15 46.68 -15 46 C-12.36 45.67 -9.72 45.34 -7 45 C-7 44.34 -7 43.68 -7 43 C-5.845 42.896875 -4.69 42.79375 -3.5 42.6875 C1.01171519 42.13964887 4.80605749 40.7225121 9 39 C9 38.67 9 38.34 9 38 C3.5113198 37.68757836 -0.67214401 38.68658841 -5.6875 40.75 Z M-106 58 C-102 59 -102 59 -102 59 Z M-102 59 C-102 59.66 -102 60.32 -102 61 C-99.69 61.33 -97.38 61.66 -95 62 C-95 63.98 -95 65.96 -95 68 C-94.34 68 -93.68 68 -93 68 C-92.67 66.35 -92.34 64.7 -92 63 C-95.3340947 60.80902348 -98.04179141 59.56545837 -102 59 Z M97 61 C101 62 101 62 101 62 Z M-96 68 C-97.4606285 70.64738916 -98 71.89448334 -98 75 C-97.34 75 -96.68 75 -96 75 C-95.67 72.69 -95.34 70.38 -95 68 C-95.33 68 -95.66 68 -96 68 Z M-99 76 C-101.30671915 78.71549154 -101.30671915 78.71549154 -100.625 81.1875 C-100.41875 81.785625 -100.2125 82.38375 -100 83 C-98.87483915 81.16715557 -98.87483915 81.16715557 -98 79 C-98.33 78.01 -98.66 77.02 -99 76 Z M-82 135 C-81.88628503 137.29225435 -81.75869036 139.58382388 -81.625 141.875 C-81.55539063 143.15117187 -81.48578125 144.42734375 -81.4140625 145.7421875 C-81.32758894 149.08061699 -81.32758894 149.08061699 -79 151 C-79.11341491 148.51979503 -79.24014686 146.04155031 -79.375 143.5625 C-79.4059375 142.85544922 -79.436875 142.14839844 -79.46875 141.41992188 C-79.57280629 139.60760812 -79.77919892 137.80182012 -80 136 C-80.66 135.67 -81.32 135.34 -82 135 Z " fill="#025D98" transform="translate(174,89)"/>
<path d="M0 0 C5.8351396 11.67027919 1.26352263 34.57155888 -2 47 C-2.19722656 47.79277344 -2.39445313 48.58554688 -2.59765625 49.40234375 C-2.73042969 49.92957031 -2.86320313 50.45679688 -3 51 C-3.66 51 -4.32 51 -5 51 C-5.020625 52.03125 -5.04125 53.0625 -5.0625 54.125 C-6.2354021 63.55848403 -12.92494708 74.89049535 -19 82 C-19.66 82 -20.32 82 -21 82 C-21.14695312 82.88365234 -21.14695312 82.88365234 -21.296875 83.78515625 C-22.13947811 86.43935603 -23.23340744 87.53927266 -25.25 89.4375 C-26.19359375 90.33662109 -26.19359375 90.33662109 -27.15625 91.25390625 C-27.7646875 91.83011719 -28.373125 92.40632813 -29 93 C-29.9075 93.94875 -30.815 94.8975 -31.75 95.875 C-34 98 -34 98 -37 99 C-37.33 99.99 -37.66 100.98 -38 102 C-38.66 102 -39.32 102 -40 102 C-40 102.66 -40 103.32 -40 104 C-41.32 104.33 -42.64 104.66 -44 105 C-44 105.66 -44 106.32 -44 107 C-46.26645058 108.34130761 -48.53760097 109.67316234 -50.8125 111 C-51.45509766 111.3815625 -52.09769531 111.763125 -52.75976562 112.15625 C-57.66015625 115 -57.66015625 115 -61 115 C-61 115.66 -61 116.32 -61 117 C-62.98 117.33 -64.96 117.66 -67 118 C-67 118.66 -67 119.32 -67 120 C-71.66666667 121.33333333 -76.33333333 122.66666667 -81 124 C-82.03825928 124.34659668 -83.07651855 124.69319336 -84.14624023 125.05029297 C-88.6728485 126.16581442 -92.76753588 126.28801541 -97.40625 126.265625 C-98.28978149 126.26753845 -99.17331299 126.2694519 -100.08361816 126.27142334 C-101.94262987 126.27277801 -103.80165126 126.26913202 -105.66064453 126.26074219 C-108.49142896 126.25003243 -111.32157885 126.26066196 -114.15234375 126.2734375 C-115.96614722 126.27211578 -117.7799503 126.26955312 -119.59375 126.265625 C-120.43248657 126.26967346 -121.27122314 126.27372192 -122.13537598 126.27789307 C-127.15047871 126.2382595 -131.2370949 125.57311093 -136 124 C-137.66246041 123.64628502 -139.32774271 123.30404678 -141 123 C-141 122.34 -141 121.68 -141 121 C-143.64 120.67 -146.28 120.34 -149 120 C-149 119.34 -149 118.68 -149 118 C-151.31 117.67 -153.62 117.34 -156 117 C-156 116.34 -156 115.68 -156 115 C-156.804375 114.95875 -157.60875 114.9175 -158.4375 114.875 C-162.71004744 113.82560238 -165.48886541 111.89223128 -169.046875 109.375 C-170.94866723 107.96350025 -170.94866723 107.96350025 -173 107 C-173 106.34 -173 105.68 -173 105 C-173.8353125 104.9071875 -173.8353125 104.9071875 -174.6875 104.8125 C-177.94477526 103.66805194 -179.6499098 101.47377916 -182 99 C-182.66 98.67 -183.32 98.34 -184 98 C-184 97.34 -184 96.68 -184 96 C-184.66 96 -185.32 96 -186 96 C-186.08302368 95.07719238 -186.08302368 95.07719238 -186.16772461 94.13574219 C-186.42107482 91.34019004 -186.67923694 88.54510238 -186.9375 85.75 C-187.06801758 84.29787109 -187.06801758 84.29787109 -187.20117188 82.81640625 C-187.28818359 81.88183594 -187.37519531 80.94726562 -187.46484375 79.984375 C-187.543396 79.12553711 -187.62194824 78.26669922 -187.70288086 77.38183594 C-187.97709903 75.18358411 -188.41066966 73.13281455 -189 71 C-186 70 -186 70 -183 71 C-182.67 72.65 -182.34 74.3 -182 76 C-181.01 76.33 -180.02 76.66 -179 77 C-177.76227566 78.46572619 -176.52810996 79.93530592 -175.33984375 81.44140625 C-173.87616825 83.24121937 -173.87616825 83.24121937 -171.1875 85.25 C-170.465625 85.8275 -169.74375 86.405 -169 87 C-169 87.66 -169 88.32 -169 89 C-167.515 89.495 -167.515 89.495 -166 90 C-166 90.66 -166 91.32 -166 92 C-165.113125 92.268125 -164.22625 92.53625 -163.3125 92.8125 C-160.2090334 93.9250635 -157.68889315 95.10195778 -155 97 C-155 97.66 -155 98.32 -155 99 C-153.93265625 99.17015625 -153.93265625 99.17015625 -152.84375 99.34375 C-148.84118479 100.2674189 -145.40326458 102.06359127 -141.71875 103.84375 C-139.12377531 104.94735993 -136.77600227 105.55744891 -134 106 C-134 106.66 -134 107.32 -134 108 C-133.14277344 108.06058594 -132.28554687 108.12117188 -131.40234375 108.18359375 C-129.68724609 108.30927734 -129.68724609 108.30927734 -127.9375 108.4375 C-126.24947266 108.55931641 -126.24947266 108.55931641 -124.52734375 108.68359375 C-122.18538698 108.89366961 -119.8485908 109.17335824 -117.5234375 109.5234375 C-108.67063451 110.72082327 -99.78822331 110.50551371 -91.09765625 108.4453125 C-88.37550602 107.86742586 -85.7710524 107.85415514 -83 108 C-83 107.34 -83 106.68 -83 106 C-78.545 105.505 -78.545 105.505 -74 105 C-74 104.34 -74 103.68 -74 103 C-72.56570999 102.32645501 -71.12742943 101.66140299 -69.6875 101 C-68.88699219 100.62875 -68.08648437 100.2575 -67.26171875 99.875 C-65 99 -65 99 -62 99 C-62 98.34 -62 97.68 -62 97 C-61.154375 96.608125 -60.30875 96.21625 -59.4375 95.8125 C-55.06541978 93.50722134 -50.85149767 90.93835806 -47.41796875 87.34375 C-46 86 -46 86 -44 86 C-43.7525 85.443125 -43.505 84.88625 -43.25 84.3125 C-41.77075182 81.57589087 -40.06532561 79.32349131 -38 77 C-37.34 77 -36.68 77 -36 77 C-35.61328125 76.20335937 -35.61328125 76.20335937 -35.21875 75.390625 C-33.72555397 72.46166356 -32.12816182 69.60618218 -30.5 66.75 C-29.8915625 65.67234375 -29.283125 64.5946875 -28.65625 63.484375 C-27.83640625 62.25460938 -27.83640625 62.25460938 -27 61 C-26.34 61 -25.68 61 -25 61 C-24.9175 60.236875 -24.835 59.47375 -24.75 58.6875 C-23.89416701 54.47965449 -22.48025977 50.68229094 -20.9375 46.68359375 C-20.04430519 44.12682361 -19.46258436 41.66467865 -19 39 C-18.34 39 -17.68 39 -17 39 C-16.96241577 37.41747437 -16.96241577 37.41747437 -16.92407227 35.80297852 C-16.83015891 31.90229372 -16.72989966 28.00179375 -16.62768555 24.10131836 C-16.58427561 22.41060701 -16.54260511 20.71985009 -16.50268555 19.02905273 C-16.44512906 16.60386394 -16.38139351 14.17890585 -16.31640625 11.75390625 C-16.29969376 10.99348526 -16.28298126 10.23306427 -16.26576233 9.44960022 C-16.11387171 4.11387171 -16.11387171 4.11387171 -15 3 C-13.33382885 2.95936168 -11.66611905 2.957279 -10 3 C-10 2.34 -10 1.68 -10 1 C-6.61981469 -0.04005702 -3.5219721 -0.08004482 0 0 Z " fill="#DAB20B" transform="translate(281,150)"/>
<path d="M0 0 C10.0819001 5.96256419 15.18129691 14.06505239 18.0546875 25.1953125 C21.58003221 42.53228167 21.39960481 65.76704805 11.8046875 81.06640625 C6.21571102 88.67292806 -0.23688684 93.73032663 -9.625 95.5625 C-19.60314855 96.47643331 -28.99072846 95.83551738 -37 89.375 C-41.48225922 85.11006244 -43.69506475 80.35230575 -45.625 74.5625 C-45.625 72.2525 -45.625 69.9425 -45.625 67.5625 C-37.21 67.0675 -37.21 67.0675 -28.625 66.5625 C-27.9753125 68.66625 -27.9753125 68.66625 -27.3125 70.8125 C-25.81526259 75.73457084 -25.81526259 75.73457084 -22.625 79.5625 C-18.09831974 80.94413735 -14.08258844 81.20421412 -9.8125 79 C-2.29281261 73.8247879 -1.27976824 66.0118469 0.375 57.5625 C-0.44677734 58.10390625 -0.44677734 58.10390625 -1.28515625 58.65625 C-9.66394269 63.56090547 -18.0959238 63.97727964 -27.52734375 61.93359375 C-34.69461858 59.47087836 -40.19480756 54.78892164 -43.97265625 48.21875 C-48.63272775 38.19709086 -49.39889361 26.40147437 -45.71875 15.90625 C-41.79725709 7.50305091 -35.85050617 2.58897155 -27.625 -1.4375 C-19.23105626 -4.23548125 -7.99395585 -3.70526507 0 0 Z M-25.3125 17.375 C-29.2250328 22.76795062 -30.44758224 27.93043068 -29.625 34.5625 C-27.94325619 39.7847571 -25.75217067 42.96445378 -21.625 46.5625 C-17.91263586 48.41868207 -13.67656912 48.01059981 -9.625 47.5625 C-5.14464556 45.36305327 -2.76187386 43.06118182 -0.625 38.5625 C1.28320042 32.1039755 1.02853813 25.57588567 -1.56640625 19.35546875 C-3.70058342 15.74075538 -6.88892388 13.43053806 -10.625 11.5625 C-17.55691186 11.03933684 -20.56797715 12.40980167 -25.3125 17.375 Z " fill="#DDB206" transform="translate(531.625,133.4375)"/>
<path d="M0 0 C0.78632812 -0.020625 1.57265625 -0.04125 2.3828125 -0.0625 C10.43135606 -0.11597869 17.39266867 2.60811074 23.25 8.25 C35.21093685 24.24460174 35.7014459 45.85368422 33.35083008 64.98095703 C31.69614162 76.22373712 27.90047377 85.62110599 19.25 93.25 C11.93176953 98.66699946 4.05123378 98.8323538 -4.75 98.25 C-13.2423885 96.92192203 -18.98520072 93.06384492 -24.25 86.33203125 C-35.52879616 69.51454055 -34.45763745 45.27547675 -30.75 26.25 C-28.34470461 16.74968754 -23.89062979 8.64838314 -15.5 3.25 C-10.38899358 0.3060603 -5.80651649 0.03734094 0 0 Z M-8.75 18.25 C-17.76597186 31.28298902 -15.62522855 52.71702504 -13.44140625 67.59375 C-12.3357634 73.44053933 -10.58686146 77.31384874 -6.4375 81.6875 C-3.02535537 83.67130502 -0.70491064 84.25 3.25 84.25 C8.0934313 81.87576897 10.7450178 78.99157345 13.25 74.25 C17.8211344 59.57425272 18.86076341 36.35296194 12.25 22.25 C10.15139304 18.5791248 8.12768813 15.92973656 4.0703125 14.4609375 C-1.35437936 13.52942476 -4.7073561 14.30137108 -8.75 18.25 Z " fill="#DDB206" transform="translate(587.75,130.75)"/>
<path d="M0 0 C2.69082872 0.17635452 5.32851446 0.61835921 8 1 C8 1.66 8 2.32 8 3 C9.01320313 3.07347656 9.01320313 3.07347656 10.046875 3.1484375 C10.93890625 3.22320312 11.8309375 3.29796875 12.75 3.375 C13.63171875 3.44460937 14.5134375 3.51421875 15.421875 3.5859375 C18.04455706 4.00715613 19.64681929 4.82093261 22 6 C23.31419374 6.4200544 24.64100727 6.80225387 25.9765625 7.1484375 C26.72494385 7.34719482 27.4733252 7.54595215 28.24438477 7.75073242 C29.02998779 7.95674072 29.81559082 8.16274902 30.625 8.375 C36.53931882 9.96280387 42.17380381 11.73183399 47.80859375 14.15234375 C51.45218607 15.56171903 55.1706967 16.25884452 59 17 C59 17.66 59 18.32 59 19 C60.299375 19.144375 61.59875 19.28875 62.9375 19.4375 C66.875 19.875 66.875 19.875 68 21 C68.12867311 22.8602132 68.18847364 24.72522854 68.22119141 26.58959961 C68.24436432 27.78431381 68.26753723 28.97902802 68.29141235 30.20994568 C68.3112619 31.51093704 68.33111145 32.81192841 68.3515625 34.15234375 C68.374668 35.49134297 68.39805823 36.83033731 68.42172241 38.16932678 C68.47023891 40.97962274 68.51515976 43.78994797 68.55761719 46.6003418 C68.61240263 50.20652505 68.67623688 53.81248079 68.74279213 57.41846371 C68.7928262 60.18500687 68.83796901 62.95161326 68.88163376 65.71826363 C68.91375524 67.69592629 68.95009762 69.67351893 68.98648071 71.65110779 C69.0033493 72.84897415 69.0202179 74.04684052 69.03759766 75.28100586 C69.05456696 76.33944199 69.07153625 77.39787811 69.08901978 78.48838806 C69 81 69 81 68 83 C66.35 82.67 64.7 82.34 63 82 C63 81.34 63 80.68 63 80 C61.35 79.34 59.7 78.68 58 78 C58 77.34 58 76.68 58 76 C57.34 75.773125 56.68 75.54625 56 75.3125 C52.11341372 73.6121185 48.36320183 71.60376916 45 69 C45 68.34 45 67.68 45 67 C44.319375 66.91234375 43.63875 66.8246875 42.9375 66.734375 C39.27150241 65.8178756 36.25735987 64.09888572 33 62.25 C26.2067911 58.50666669 19.31330924 55.60203994 12 53 C10.39477633 52.39864733 8.79043464 51.79492786 7.1875 51.1875 C6.135625 50.795625 5.08375 50.40375 4 50 C4 49.34 4 48.68 4 48 C2.35 47.67 0.7 47.34 -1 47 C-1.02527002 40.46721214 -1.04283292 33.93443679 -1.05493164 27.40161133 C-1.05997317 25.17732268 -1.06680623 22.95303737 -1.07543945 20.72875977 C-1.08751298 17.53921691 -1.09322996 14.34971771 -1.09765625 11.16015625 C-1.10281754 10.15912369 -1.10797882 9.15809113 -1.11329651 8.12672424 C-1.11337204 7.20584518 -1.11344757 6.28496613 -1.11352539 5.33618164 C-1.115746 4.52121719 -1.11796661 3.70625275 -1.12025452 2.86659241 C-1 1 -1 1 0 0 Z " fill="#02B3E3" transform="translate(103,166)"/>
<path d="M0 0 C0 15.18 0 30.36 0 46 C-1.65 46.33 -3.3 46.66 -5 47 C-5 47.66 -5 48.32 -5 49 C-5.825 49.268125 -6.65 49.53625 -7.5 49.8125 C-17.89005957 53.33769878 -27.46262566 58.01556791 -37.14941406 63.13623047 C-38.20854004 63.68561279 -38.20854004 63.68561279 -39.2890625 64.24609375 C-40.2473999 64.74967407 -40.2473999 64.74967407 -41.22509766 65.26342773 C-43 66 -43 66 -46 66 C-46 66.66 -46 67.32 -46 68 C-47.68125012 69.19542478 -49.42248083 70.30712843 -51.1875 71.375 C-54.20052473 73.20620914 -57.00009861 75.00008018 -59.73828125 77.2265625 C-62 79 -62 79 -64 79 C-64 79.66 -64 80.32 -64 81 C-66.475 81.495 -66.475 81.495 -69 82 C-69 61.54 -69 41.08 -69 20 C-65.23312136 18.11656068 -63.97041037 17.77942165 -60 18 C-60 17.34 -60 16.68 -60 16 C-58.72125 15.7525 -57.4425 15.505 -56.125 15.25 C-52.63555578 14.48243115 -49.47629222 13.45370708 -46.1875 12.0625 C-41.45131684 10.07492859 -36.69328894 8.83034171 -31.69921875 7.66015625 C-28.84895972 7.00721998 -28.84895972 7.00721998 -25.5625 5.8125 C-22.89793488 4.96763789 -20.77707279 4.83664278 -18 5 C-18 4.34 -18 3.68 -18 3 C-15.94237091 2.29805625 -13.87863969 1.61398303 -11.8125 0.9375 C-10.66394531 0.55464844 -9.51539063 0.17179688 -8.33203125 -0.22265625 C-5 -1 -5 -1 0 0 Z " fill="#DCB208" transform="translate(247,167)"/>
<path d="M0 0 C8.188125 -0.0825 16.37625 -0.165 24.8125 -0.25 C28.65612183 -0.30462402 28.65612183 -0.30462402 32.57739258 -0.36035156 C34.64143032 -0.37204986 36.70547739 -0.38223897 38.76953125 -0.390625 C39.81443726 -0.41108887 40.85934326 -0.43155273 41.93591309 -0.45263672 C51.43279091 -0.45707607 60.49048861 1.59036092 67.56640625 8.29296875 C73.34320838 15.17161325 74.74975615 23.25284497 74 32 C72.55482183 39.9117381 69.54050712 46.81921694 62.80859375 51.53515625 C52.5690714 57.17264609 41.16647171 57.29881586 29.75 57.125 C23.93375 57.063125 23.93375 57.063125 18 57 C18 68.55 18 80.1 18 92 C12.06 92 6.12 92 0 92 C0 61.64 0 31.28 0 0 Z M18 15 C18 23.91 18 32.82 18 42 C21.444375 42.04125 24.88875 42.0825 28.4375 42.125 C30.03742798 42.15231201 30.03742798 42.15231201 31.66967773 42.18017578 C38.87721204 42.22151792 45.86446304 42.09035797 52 38 C55.20629876 34.79370124 55.20838857 32.63141424 55.3125 28.1875 C55.27926299 24.22279903 55.21259374 22.37963167 53.25 18.875 C48.91099139 15.25915949 45.92859494 14.75501233 40.265625 14.8046875 C38.32236328 14.81435547 38.32236328 14.81435547 36.33984375 14.82421875 C34.97655981 14.84092807 33.61327856 14.85785794 32.25 14.875 C30.87110015 14.8850366 29.49219335 14.89416127 28.11328125 14.90234375 C24.74211277 14.92591835 21.37103436 14.96178928 18 15 Z " fill="#005C99" transform="translate(310,133)"/>
<path d="M0 0 C2.38963496 0.00849885 4.77685958 -0.02034614 7.16625977 -0.05200195 C17.73072557 -0.09913863 26.96673339 1.37796291 37.09008789 4.44604492 C38.09297852 4.74744385 39.09586914 5.04884277 40.12915039 5.359375 C48.71073112 8.05899727 56.37467795 12.91554072 64.09008789 17.44604492 C64.09008789 18.10604492 64.09008789 18.76604492 64.09008789 19.44604492 C64.88672852 19.54079102 64.88672852 19.54079102 65.69946289 19.63745117 C69.14980564 20.80447887 71.61008758 23.05520733 74.34008789 25.38354492 C74.89438477 25.83922852 75.44868164 26.29491211 76.01977539 26.7644043 C77.41981113 27.94202057 78.76040303 29.18953454 80.09008789 30.44604492 C80.09008789 31.10604492 80.09008789 31.76604492 80.09008789 32.44604492 C81.08008789 32.77604492 82.07008789 33.10604492 83.09008789 33.44604492 C84.91478801 35.55809939 86.60756994 37.65606021 88.27758789 39.88354492 C88.74100586 40.48231445 89.20442383 41.08108398 89.68188477 41.69799805 C93.09008789 46.18036239 93.09008789 46.18036239 93.09008789 48.44604492 C93.75008789 48.44604492 94.41008789 48.44604492 95.09008789 48.44604492 C96.63305664 50.52807617 96.63305664 50.52807617 98.27758789 53.25854492 C98.82801758 54.15186523 99.37844727 55.04518555 99.94555664 55.96557617 C101.09008789 58.44604492 101.09008789 58.44604492 100.09008789 61.44604492 C95.53772931 62.03344603 92.41005044 60.41874592 88.41430664 58.49682617 C86.30555775 57.54345903 84.31200034 56.93750367 82.09008789 56.32104492 C76.40265255 54.2914561 72.58978019 49.16900929 69.09008789 44.44604492 C69.09008789 43.78604492 69.09008789 43.12604492 69.09008789 42.44604492 C68.43008789 42.44604492 67.77008789 42.44604492 67.09008789 42.44604492 C65.94619268 41.30214971 64.80514131 40.15531216 63.67602539 38.99682617 C53.15669702 28.71068488 40.09501582 23.24918494 26.09008789 19.44604492 C25.02459717 19.10597412 23.95910645 18.76590332 22.86132812 18.41552734 C17.04513973 16.92034484 11.25143787 17.07410956 5.28686523 17.07543945 C3.12278828 17.07111034 0.96083044 17.03485534 -1.20288086 16.99682617 C-14.06577324 16.89076261 -25.90776828 19.18415316 -37.34741211 25.38354492 C-38.01208496 25.72836914 -38.67675781 26.07319336 -39.36157227 26.4284668 C-44.02662214 28.87833348 -48.47249479 31.60609783 -52.90991211 34.44604492 C-53.56991211 34.44604492 -54.22991211 34.44604492 -54.90991211 34.44604492 C-55.23991211 35.43604492 -55.56991211 36.42604492 -55.90991211 37.44604492 C-57.58178711 39.05932617 -57.58178711 39.05932617 -59.65991211 40.75854492 C-62.3071655 42.98831032 -64.63647627 45.16905413 -66.78491211 47.88354492 C-67.48616211 48.72916992 -68.18741211 49.57479492 -68.90991211 50.44604492 C-69.56991211 50.44604492 -70.22991211 50.44604492 -70.90991211 50.44604492 C-71.23991211 51.43604492 -71.56991211 52.42604492 -71.90991211 53.44604492 C-77.4066162 56.86291504 -83.78738596 58.47695123 -89.90991211 60.44604492 C-91.91060571 61.11062717 -93.91080636 61.77670148 -95.90991211 62.44604492 C-94.55754465 55.00802387 -90.19345688 49.53231703 -85.90991211 43.44604492 C-85.42780273 42.72416992 -84.94569336 42.00229492 -84.44897461 41.25854492 C-81.98106536 37.61169813 -79.38103499 35.11613945 -75.90991211 32.44604492 C-75.04366211 31.31295898 -75.04366211 31.31295898 -74.15991211 30.15698242 C-71.54537538 27.0068288 -68.71197608 24.66922062 -65.47241211 22.19604492 C-64.91231445 21.7500293 -64.3522168 21.30401367 -63.77514648 20.84448242 C-60.54488059 18.35676307 -57.9985199 16.84344232 -53.90991211 16.44604492 C-53.90991211 15.78604492 -53.90991211 15.12604492 -53.90991211 14.44604492 C-36.33613775 5.31281328 -19.97851391 -0.10788194 0 0 Z " fill="#DAB20B" transform="translate(169.909912109375,58.553955078125)"/>
<path d="M0 0 C5.86629385 5.35487336 10.47391748 10.93783534 11.31420898 19.0234375 C11.47630869 22.62497028 11.5075459 26.20744606 11.5 29.8125 C11.52835937 31.03259766 11.55671875 32.25269531 11.5859375 33.50976562 C11.60725691 43.42862045 9.33428282 50.37614005 2.8125 57.875 C-4.2715919 64.46196265 -13.78426493 66.28103995 -23.12890625 66.14453125 C-32.26716394 65.68451011 -39.39760088 62.85307445 -45.79296875 56.109375 C-53.36335742 46.61367761 -54.77722181 35.87422205 -54 24 C-52.68217342 15.05441452 -49.94806328 7.05793549 -42.78515625 1.18359375 C-30.21976589 -7.49300691 -12.88047691 -9.42038346 0 0 Z M-32.3125 13.3125 C-37.16471943 21.04010872 -36.91175588 30.17447059 -36 39 C-34.58197473 44.38849601 -31.70116048 47.98643559 -27 51 C-23.38069302 52.20643566 -20.80768995 52.32268559 -17 52 C-11.23215669 48.9464359 -7.84973397 45.50671521 -5.75 39.3125 C-4.03999899 31.10141408 -4.29263407 22.63822554 -8 15 C-10.94788292 11.15527439 -14.20743015 8.83087224 -19 7.9375 C-24.41722225 7.6540407 -28.49186027 9.49186027 -32.3125 13.3125 Z " fill="#005C99" transform="translate(468,161)"/>
<path d="M0 0 C5.61 0 11.22 0 17 0 C17 22.44 17 44.88 17 68 C11.39 68 5.78 68 0 68 C0 45.56 0 23.12 0 0 Z " fill="#005C98" transform="translate(391,157)"/>
<path d="M0 0 C4.08375 -0.0928125 4.08375 -0.0928125 8.25 -0.1875 C9.10110352 -0.21481201 9.95220703 -0.24212402 10.82910156 -0.27026367 C14.20382837 -0.30743203 16.47174904 -0.26331028 19.53125 1.26171875 C21.31389193 3.37149443 21.43559851 4.27788854 21.25 7 C21.21390625 7.680625 21.1778125 8.36125 21.140625 9.0625 C21.07101562 10.0215625 21.07101562 10.0215625 21 11 C20.7226499 14.18490007 20.7226499 14.18490007 23 17 C23.1171875 18.9375 23.1171875 18.9375 22.875 21 C22.81054688 21.680625 22.74609375 22.36125 22.6796875 23.0625 C21.67235055 25.93398924 20.74026477 26.62986762 18 28 C14.90421534 28.35648429 11.86077889 28.28155584 8.75 28.1875 C5.8625 28.125625 2.975 28.06375 0 28 C0 18.76 0 9.52 0 0 Z M5 3 C5 5.97 5 8.94 5 12 C10.7974423 12.24428343 10.7974423 12.24428343 16 10 C16 8.35 16 6.7 16 5 C12.36576791 2.67409146 9.22911669 2.83734167 5 3 Z M5 15 C5 18.3 5 21.6 5 25 C11.31268603 25.37552165 11.31268603 25.37552165 17 23 C17 21.02 17 19.04 17 17 C12.8794254 15.00214565 9.54805635 14.82164485 5 15 Z " fill="#005B9A" transform="translate(309,242)"/>
<path d="M0 0 C2.31 0.33 4.62 0.66 7 1 C7 1.66 7 2.32 7 3 C9.31 3.33 11.62 3.66 14 4 C14.63602662 10.0422529 12.38893827 14.60732318 10 20 C9.3503125 21.670625 9.3503125 21.670625 8.6875 23.375 C6.31662115 27.06303376 3.97796756 28.19183293 0 30 C-0.66 29.67 -1.32 29.34 -2 29 C-2.0580772 24.91672643 -2.09362249 20.83355917 -2.125 16.75 C-2.14175781 15.59113281 -2.15851562 14.43226563 -2.17578125 13.23828125 C-2.18222656 12.12324219 -2.18867187 11.00820312 -2.1953125 9.859375 C-2.20578613 8.83295898 -2.21625977 7.80654297 -2.22705078 6.74902344 C-1.99836111 3.98015712 -1.4243299 2.35581208 0 0 Z " fill="#DEB50E" transform="translate(65,147)"/>
<path d="M0 0 C2.4140625 0.46484375 2.4140625 0.46484375 5.4765625 2.27734375 C8.93968056 7.97473152 9.0571719 14.44283994 7.7265625 20.90234375 C5.65730574 26.5188978 5.65730574 26.5188978 2.4140625 28.46484375 C-1.03491162 29.06841422 -4.14503482 29.14502219 -7.5859375 28.46484375 C-10.2109375 26.08984375 -10.2109375 26.08984375 -11.5859375 23.46484375 C-11.5859375 22.80484375 -11.5859375 22.14484375 -11.5859375 21.46484375 C-9.9359375 21.46484375 -8.2859375 21.46484375 -6.5859375 21.46484375 C-6.2559375 22.45484375 -5.9259375 23.44484375 -5.5859375 24.46484375 C-2.1209375 23.96984375 -2.1209375 23.96984375 1.4140625 23.46484375 C1.4140625 21.81484375 1.4140625 20.16484375 1.4140625 18.46484375 C0.81078125 18.51125 0.2075 18.55765625 -0.4140625 18.60546875 C-6.81958236 18.89475029 -6.81958236 18.89475029 -10.1484375 17.02734375 C-12.31174187 13.17101857 -12.30751254 9.77894132 -11.5859375 5.46484375 C-9.10436408 -0.06229705 -5.5940957 -0.33828602 0 0 Z M-2.5859375 3.46484375 C-4.70515877 4.55227663 -4.70515877 4.55227663 -6.5859375 6.46484375 C-7.3359375 9.46484375 -7.3359375 9.46484375 -6.5859375 12.46484375 C-4.19536808 14.40025855 -4.19536808 14.40025855 -1.5859375 15.46484375 C0.53328377 14.37741087 0.53328377 14.37741087 2.4140625 12.46484375 C3.1640625 9.46484375 3.1640625 9.46484375 2.4140625 6.46484375 C0.02349308 4.52942895 0.02349308 4.52942895 -2.5859375 3.46484375 Z " fill="#005A9B" transform="translate(575.5859375,241.53515625)"/>
<path d="M0 0 C2.3828125 0.35546875 2.3828125 0.35546875 4.9453125 2.10546875 C8.56384842 7.76926411 7.84882637 14.8794829 7.3828125 21.35546875 C5.36240434 26.86567283 5.36240434 26.86567283 2.3828125 28.35546875 C-1.00213876 28.76826768 -4.23817426 28.84130426 -7.6171875 28.35546875 C-11.03515829 25.43768881 -12.20604622 22.77523752 -12.6171875 18.35546875 C-12.89774882 12.55720138 -13.03363199 6.5475621 -9.3515625 1.68359375 C-6.43371854 -0.55079126 -3.54757839 -0.10859934 0 0 Z M-6.6171875 6.35546875 C-8.44130477 11.09817365 -8.19906912 16.53223969 -6.6796875 21.29296875 C-5.7826712 23.29157696 -5.7826712 23.29157696 -4.6171875 24.35546875 C-2.95101635 24.39610707 -1.28330655 24.39818975 0.3828125 24.35546875 C2.43983053 20.95975645 2.65250367 18.29370285 2.6328125 14.35546875 C2.64054687 12.80859375 2.64054687 12.80859375 2.6484375 11.23046875 C2.38780415 8.40949597 1.83577594 6.75401157 0.3828125 4.35546875 C-3.57176598 4.00723068 -3.57176598 4.00723068 -6.6171875 6.35546875 Z " fill="#005A9B" transform="translate(452.6171875,241.64453125)"/>
<path d="M0 0 C4.80390446 0.04117632 4.80390446 0.04117632 7.75 2.125 C10.35217288 6.0848283 10.3782158 9.48601122 10.4375 14.125 C10.46328125 15.32769531 10.4890625 16.53039062 10.515625 17.76953125 C10.15738255 21.63769675 9.21451188 24.02106566 7.1875 27.3125 C4.73367866 28.53941067 2.98765897 28.51425931 0.25 28.5625 C-0.62527344 28.58828125 -1.50054688 28.6140625 -2.40234375 28.640625 C-4.8125 28.3125 -4.8125 28.3125 -6.56640625 26.984375 C-9.39074269 23.19498317 -9.03000071 18.94677703 -9.0625 14.4375 C-9.083125 13.72980469 -9.10375 13.02210938 -9.125 12.29296875 C-9.15883742 7.75029545 -8.55182783 4.95110212 -5.8125 1.3125 C-4.16284831 -0.33715169 -2.2648645 0.06300502 0 0 Z M-1.83984375 4.3125 C-4.30446659 6.81128593 -4.36065695 8.68118396 -4.40820312 12.1171875 C-4.39724609 12.84164062 -4.38628906 13.56609375 -4.375 14.3125 C-4.39884766 15.03695313 -4.42269531 15.76140625 -4.44726562 16.5078125 C-4.49900578 18.90061201 -4.49900578 18.90061201 -3.8125 22.3125 C-1.42798844 24.38475845 -1.42798844 24.38475845 1.1875 25.3125 C4.14877396 22.96228257 5.10987073 21.79654133 5.71875 18 C5.70328125 16.1746875 5.70328125 16.1746875 5.6875 14.3125 C5.6978125 13.095625 5.708125 11.87875 5.71875 10.625 C5.10872105 6.8212901 4.19728301 5.6277177 1.1875 3.3125 C-0.03978746 3.23877189 -0.03978746 3.23877189 -1.83984375 4.3125 Z " fill="#005C98" transform="translate(594.8125,241.6875)"/>
<path d="M0 0 C5.61 0 11.22 0 17 0 C17 5.61 17 11.22 17 17 C11.39 17 5.78 17 0 17 C0 11.39 0 5.78 0 0 Z " fill="#005C98" transform="translate(391,133)"/>
<path d="M0 0 C1.06089844 -0.03738281 2.12179687 -0.07476562 3.21484375 -0.11328125 C6.0625 0.3125 6.0625 0.3125 7.8984375 1.78515625 C9.60652782 5.49366106 9.63272131 9.02141127 9.75 13.0625 C9.80124023 14.25166016 9.80124023 14.25166016 9.85351562 15.46484375 C9.93569104 17.41357504 10.00078045 19.36301362 10.0625 21.3125 C7.10392591 21.36629226 4.14632279 21.40607093 1.1875 21.4375 C-0.07513672 21.46263672 -0.07513672 21.46263672 -1.36328125 21.48828125 C-2.57177734 21.49794922 -2.57177734 21.49794922 -3.8046875 21.5078125 C-4.54831543 21.51828613 -5.29194336 21.52875977 -6.05810547 21.53955078 C-7.9375 21.3125 -7.9375 21.3125 -9.9375 19.3125 C-10.3125 15.875 -10.3125 15.875 -9.9375 12.3125 C-7.04873865 9.45036318 -4.67652023 8.88743554 -0.6875 8.625 C0.20453125 8.55925781 1.0965625 8.49351562 2.015625 8.42578125 C2.69109375 8.38839844 3.3665625 8.35101563 4.0625 8.3125 C3.7325 6.9925 3.4025 5.6725 3.0625 4.3125 C-1.27934202 4.49714366 -1.27934202 4.49714366 -4.9375 6.3125 C-6.60367115 6.35313832 -8.27138095 6.355221 -9.9375 6.3125 C-7.80230171 0.36444762 -6.19416158 0.14265342 0 0 Z M-4.9375 14.3125 C-4.9375 15.3025 -4.9375 16.2925 -4.9375 17.3125 C-3.20174351 18.18686418 -3.20174351 18.18686418 -0.9375 18.3125 C1.85561693 16.59482418 1.85561693 16.59482418 4.0625 14.3125 C4.0625 13.6525 4.0625 12.9925 4.0625 12.3125 C0.26692119 12.3125 -1.56652617 12.81428941 -4.9375 14.3125 Z " fill="#005A9A" transform="translate(404.9375,248.6875)"/>
<path d="M0 0 C1.43859375 -0.00773438 1.43859375 -0.00773438 2.90625 -0.015625 C5.5 0.25 5.5 0.25 8.5 2.25 C8.93237305 4.22119141 8.93237305 4.22119141 9.01171875 6.6015625 C9.06489258 7.87773437 9.06489258 7.87773437 9.11914062 9.1796875 C9.14169922 10.06914062 9.16425781 10.95859375 9.1875 11.875 C9.23874023 13.22078125 9.23874023 13.22078125 9.29101562 14.59375 C9.37362402 16.81237538 9.44272719 19.0305994 9.5 21.25 C6.72813012 21.35787818 3.96044463 21.43723327 1.1875 21.5 C0.40181641 21.53351563 -0.38386719 21.56703125 -1.19335938 21.6015625 C-7.0021502 21.70043554 -7.0021502 21.70043554 -9.55078125 19.39453125 C-10.81184248 16.54546698 -10.54433639 15.1592228 -9.5 12.25 C-7.76725201 9.98367564 -6.84826185 9.32184615 -4.01953125 8.73828125 C-3.12621094 8.68027344 -2.23289062 8.62226563 -1.3125 8.5625 C-0.41144531 8.49675781 0.48960937 8.43101562 1.41796875 8.36328125 C2.44857422 8.30720703 2.44857422 8.30720703 3.5 8.25 C3.17 7.26 2.84 6.27 2.5 5.25 C0.63803054 4.32606836 0.63803054 4.32606836 -1.5 4.25 C-2.49 4.91 -3.48 5.57 -4.5 6.25 C-7.1875 6.375 -7.1875 6.375 -9.5 6.25 C-9.1875 4.375 -9.1875 4.375 -8.5 2.25 C-5.14802157 0.01534771 -3.92208754 -0.02108649 0 0 Z M-4.5 13.25 C-4.83 14.24 -5.16 15.23 -5.5 16.25 C-3.80287793 17.55859649 -3.80287793 17.55859649 -1.5 18.25 C1.30329738 17.18478871 1.30329738 17.18478871 3.5 15.25 C3.5 14.26 3.5 13.27 3.5 12.25 C0.66032769 12.25 -1.73735711 12.65267181 -4.5 13.25 Z " fill="#005A9B" transform="translate(504.5,248.75)"/>
<path d="M0 0 C0.9590625 -0.01675781 1.918125 -0.03351563 2.90625 -0.05078125 C5.9665278 0.377842 6.62401671 0.92731647 8.5 3.3125 C8.93237305 5.30541992 8.93237305 5.30541992 9.01171875 7.54296875 C9.06489258 8.74663086 9.06489258 8.74663086 9.11914062 9.97460938 C9.14169922 10.80798828 9.16425781 11.64136719 9.1875 12.5 C9.23874023 13.7674707 9.23874023 13.7674707 9.29101562 15.06054688 C9.37341471 17.14406649 9.43838645 19.22826216 9.5 21.3125 C6.72858283 21.39339542 3.95952181 21.45294062 1.1875 21.5 C0.40181641 21.52513672 -0.38386719 21.55027344 -1.19335938 21.57617188 C-1.95068359 21.58583984 -2.70800781 21.59550781 -3.48828125 21.60546875 C-4.18477783 21.6211792 -4.88127441 21.63688965 -5.59887695 21.65307617 C-8.12300647 21.20089167 -9.00247091 20.36839982 -10.5 18.3125 C-10.375 14.75 -10.375 14.75 -9.5 11.3125 C-6.33759418 9.20422945 -4.99342531 8.97432535 -1.3125 8.6875 C-0.41144531 8.61273438 0.48960937 8.53796875 1.41796875 8.4609375 C2.10503906 8.41195313 2.79210937 8.36296875 3.5 8.3125 C3.17 7.3225 2.84 6.3325 2.5 5.3125 C0.63803054 4.38856836 0.63803054 4.38856836 -1.5 4.3125 C-2.49 4.9725 -3.48 5.6325 -4.5 6.3125 C-7.1875 6.4375 -7.1875 6.4375 -9.5 6.3125 C-9.1875 4.4375 -9.1875 4.4375 -8.5 2.3125 C-5.16602694 0.08985129 -3.90485109 0.01574537 0 0 Z M-5.5 14.3125 C-5.17 15.3025 -4.84 16.2925 -4.5 17.3125 C-1.50923816 18.6909869 -1.50923816 18.6909869 1.1875 17.0625 C1.950625 16.485 2.71375 15.9075 3.5 15.3125 C3.5 14.3225 3.5 13.3325 3.5 12.3125 C-0.29557881 12.3125 -2.12902617 12.81428941 -5.5 14.3125 Z " fill="#005B9A" transform="translate(374.5,248.6875)"/>
<path d="M0 0 C1.65 0 3.3 0 5 0 C5.33 2.31 5.66 4.62 6 7 C6.62648438 6.97679687 7.25296875 6.95359375 7.8984375 6.9296875 C8.71570313 6.91164062 9.53296875 6.89359375 10.375 6.875 C11.18710937 6.85179687 11.99921875 6.82859375 12.8359375 6.8046875 C15 7 15 7 17 9 C18.42876221 12.77408886 18.1113375 16.77537881 18.0625 20.75 C18.05798828 21.44738281 18.05347656 22.14476562 18.04882812 22.86328125 C18.0371002 24.57555803 18.01916653 26.28779033 18 28 C16.35 28 14.7 28 13 28 C12.96261719 27.02417969 12.92523438 26.04835938 12.88671875 25.04296875 C12.82097656 23.77066406 12.75523437 22.49835938 12.6875 21.1875 C12.60048828 19.29064453 12.60048828 19.29064453 12.51171875 17.35546875 C12.2886506 14.03396307 12.2886506 14.03396307 10.45703125 12.05078125 C9.97621094 11.70402344 9.49539063 11.35726562 9 11 C8.01 11.66 7.02 12.32 6 13 C5.61588725 15.609621 5.39706803 18.0058074 5.3125 20.625 C5.27833984 21.33140625 5.24417969 22.0378125 5.20898438 22.765625 C5.12648692 24.50985688 5.06156665 26.25490395 5 28 C3.35 28 1.7 28 0 28 C0 18.76 0 9.52 0 0 Z " fill="#005B99" transform="translate(474,242)"/>
<path d="M0 0 C2.5625 1.5625 2.5625 1.5625 4 4 C4.33 6.31 4.66 8.62 5 11 C0.05 11 -4.9 11 -10 11 C-8.67468763 15.94214716 -8.67468763 15.94214716 -6.0625 16.9375 C-3.68549908 17.20896722 -3.68549908 17.20896722 -1 15 C2.1875 14.875 2.1875 14.875 5 15 C2.25 19.875 2.25 19.875 0 21 C-4.93250055 21.61110626 -8.76686268 21.71521964 -13.125 19.1875 C-15.8917249 14.48406766 -15.95722984 10.32060254 -15 5 C-11.49038028 -0.96635353 -6.34703904 -1.13646307 0 0 Z M-8.25 4.3125 C-8.8275 4.869375 -9.405 5.42625 -10 6 C-10 6.66 -10 7.32 -10 8 C-6.7 8 -3.4 8 0 8 C-1.48958333 4.02083333 -1.48958333 4.02083333 -3.875 3.0625 C-6.12789724 2.80870524 -6.12789724 2.80870524 -8.25 4.3125 Z " fill="#005B99" transform="translate(349,249)"/>
<path d="M0 0 C0.9590625 -0.00773438 1.918125 -0.01546875 2.90625 -0.0234375 C5.5 0.375 5.5 0.375 7.34375 1.7109375 C8.5 3.375 8.5 3.375 8.5 6.375 C4.87471432 6.57640476 2.63498292 6.23276765 -0.5 4.375 C-1.16 5.035 -1.82 5.695 -2.5 6.375 C1.13 7.695 4.76 9.015 8.5 10.375 C9.93076923 16.575 9.93076923 16.575 8.1875 19.8125 C4.07321142 22.20452824 0.1415977 22.15373981 -4.5 21.375 C-7.125 19.5625 -7.125 19.5625 -8.5 17.375 C-8.5 16.385 -8.5 15.395 -8.5 14.375 C-6.85 14.375 -5.2 14.375 -3.5 14.375 C-3.17 15.035 -2.84 15.695 -2.5 16.375 C-0.57361988 17.12743555 -0.57361988 17.12743555 1.5 17.375 C2.16 17.045 2.82 16.715 3.5 16.375 C3.5 15.715 3.5 15.055 3.5 14.375 C2.80132813 14.19324219 2.10265625 14.01148438 1.3828125 13.82421875 C0.47273437 13.57285156 -0.43734375 13.32148438 -1.375 13.0625 C-2.27992188 12.81886719 -3.18484375 12.57523437 -4.1171875 12.32421875 C-6.5 11.375 -6.5 11.375 -8.5 8.375 C-8.84824345 5.58905243 -8.98972581 4.05508434 -7.32421875 1.7421875 C-4.82438533 -0.13134932 -3.0957097 -0.0249654 0 0 Z " fill="#005A9B" transform="translate(524.5,248.625)"/>
<path d="M0 0 C1.65 0.33 3.3 0.66 5 1 C5 1.66 5 2.32 5 3 C6.299375 3.144375 7.59875 3.28875 8.9375 3.4375 C12.875 3.875 12.875 3.875 14 5 C14.12867311 6.8602132 14.18847364 8.72522854 14.22119141 10.58959961 C14.24436432 11.78431381 14.26753723 12.97902802 14.29141235 14.20994568 C14.3112619 15.51093704 14.33111145 16.81192841 14.3515625 18.15234375 C14.374668 19.49134297 14.39805823 20.83033731 14.42172241 22.16932678 C14.47023891 24.97962274 14.51515976 27.78994797 14.55761719 30.6003418 C14.61240263 34.20652505 14.67623688 37.81248079 14.74279213 41.41846371 C14.7928262 44.18500687 14.83796901 46.95161326 14.88163376 49.71826363 C14.91375524 51.69592629 14.95009762 53.67351893 14.98648071 55.65110779 C15.0033493 56.84897415 15.0202179 58.04684052 15.03759766 59.28100586 C15.05456696 60.33944199 15.07153625 61.39787811 15.08901978 62.48838806 C15 65 15 65 14 67 C12.35 66.67 10.7 66.34 9 66 C9 65.34 9 64.68 9 64 C7.35 63.34 5.7 62.68 4 62 C4.99 61.505 4.99 61.505 6 61 C7.65 61.66 9.3 62.32 11 63 C11 44.19 11 25.38 11 6 C9.68 6 8.36 6 7 6 C7 5.34 7 4.68 7 4 C3.7 3.67 0.4 3.34 -3 3 C-2.01 2.67 -1.02 2.34 0 2 C0 1.34 0 0.68 0 0 Z " fill="#179BBE" transform="translate(157,182)"/>
<path d="M0 0 C2.00720923 0.28674418 4.0085944 0.61866701 6 1 C2.69636982 3.20242012 -0.05183234 3.96540072 -3.875 5 C-8.0835742 6.14373142 -11.93499906 7.37399963 -16 9 C-16 27.48 -16 45.96 -16 65 C-13.03 62.69 -10.06 60.38 -7 58 C-6.01 58 -5.02 58 -4 58 C-5.10095362 61.30286086 -5.6896019 61.78510901 -8.4375 63.6875 C-9.05496094 64.12449219 -9.67242187 64.56148438 -10.30859375 65.01171875 C-12 66 -12 66 -14 66 C-14 66.66 -14 67.32 -14 68 C-16.475 68.495 -16.475 68.495 -19 69 C-19 48.54 -19 28.08 -19 7 C-15.23312136 5.11656068 -13.97041037 4.77942165 -10 5 C-10 4.34 -10 3.68 -10 3 C-9.04287109 2.80083984 -9.04287109 2.80083984 -8.06640625 2.59765625 C-7.24011719 2.42105469 -6.41382813 2.24445313 -5.5625 2.0625 C-4.32693359 1.80146484 -4.32693359 1.80146484 -3.06640625 1.53515625 C-1.02338796 1.19247006 -1.02338796 1.19247006 0 0 Z " fill="#A88D23" transform="translate(197,180)"/>
<path d="M0 0 C2.69082872 0.17635452 5.32851446 0.61835921 8 1 C8 1.66 8 2.32 8 3 C11.3 3.33 14.6 3.66 18 4 C17.67 4.66 17.34 5.32 17 6 C10.97334205 6.46358907 8.39922836 5.13307612 2 3 C2.33 17.52 2.66 32.04 3 47 C3.99 47 4.98 47 6 47 C6 47.66 6 48.32 6 49 C8.64 49.33 11.28 49.66 14 50 C14.33 50.99 14.66 51.98 15 53 C11.30099992 52.11223998 7.65449539 51.05418136 4 50 C4 49.34 4 48.68 4 48 C2.35 47.67 0.7 47.34 -1 47 C-1.02527002 40.46721214 -1.04283292 33.93443679 -1.05493164 27.40161133 C-1.05997317 25.17732268 -1.06680623 22.95303737 -1.07543945 20.72875977 C-1.08751298 17.53921691 -1.09322996 14.34971771 -1.09765625 11.16015625 C-1.10281754 10.15912369 -1.10797882 9.15809113 -1.11329651 8.12672424 C-1.11337204 7.20584518 -1.11344757 6.28496613 -1.11352539 5.33618164 C-1.115746 4.52121719 -1.11796661 3.70625275 -1.12025452 2.86659241 C-1 1 -1 1 0 0 Z " fill="#085C7B" transform="translate(103,166)"/>
<path d="M0 0 C0 0.66 0 1.32 0 2 C-1.62568675 2.60963253 -3.25143532 3.21910058 -4.87744141 3.82788086 C-6.30782118 4.36505477 -7.7371665 4.9049903 -9.16552734 5.44750977 C-12.8957987 6.85992281 -16.63007652 8.22610606 -20.4140625 9.48828125 C-29.81166146 12.67892375 -35.04104404 15.49021993 -39.8125 24.375 C-41.19575108 28.59755591 -41.70959912 32.58390385 -42 37 C-41.01 37.33 -40.02 37.66 -39 38 C-39 39.32 -39 40.64 -39 42 C-39.66 42 -40.32 42 -41 42 C-42.04892238 40.36368108 -43.04906703 38.69514137 -44 37 C-44.33 36.67 -44.66 36.34 -45 36 C-45.6578856 27.94090138 -43.04246035 21.26487498 -38 15 C-35.875 14.375 -35.875 14.375 -34 14 C-33.71334473 13.36360596 -33.42668945 12.72721191 -33.13134766 12.0715332 C-32 10 -32 10 -30.20068359 9.08276367 C-29.12294678 8.78462769 -29.12294678 8.78462769 -28.0234375 8.48046875 C-27.21874023 8.24247559 -26.41404297 8.00448242 -25.58496094 7.75927734 C-24.73192383 7.50871582 -23.87888672 7.2581543 -23 7 C-21.27978617 6.40353241 -19.56362276 5.79526398 -17.8515625 5.17578125 C-16.99175781 4.86962891 -16.13195312 4.56347656 -15.24609375 4.24804688 C-13.47419631 3.6156036 -11.70338722 2.9801041 -9.93359375 2.34179688 C-9.08152344 2.03951172 -8.22945312 1.73722656 -7.3515625 1.42578125 C-6.58666504 1.15161377 -5.82176758 0.87744629 -5.03369141 0.5949707 C-3 0 -3 0 0 0 Z " fill="#29719C" transform="translate(131,142)"/>
<path d="M0 0 C1.65 0 3.3 0 5 0 C5.05794812 4.27077656 5.09357874 8.54145236 5.125 12.8125 C5.14175781 14.02744141 5.15851563 15.24238281 5.17578125 16.49414062 C5.18222656 17.65751953 5.18867188 18.82089844 5.1953125 20.01953125 C5.20578613 21.09307861 5.21625977 22.16662598 5.22705078 23.27270508 C5 26 5 26 3 29 C1.0546875 29.29296875 1.0546875 29.29296875 -1.125 29.1875 C-2.40375 29.125625 -3.6825 29.06375 -5 29 C-4.6875 27.0625 -4.6875 27.0625 -4 25 C-3.01 24.67 -2.02 24.34 -1 24 C-0.67 16.08 -0.34 8.16 0 0 Z " fill="#005B99" transform="translate(387,249)"/>
<path d="M0 0 C4.29 0 8.58 0 13 0 C12.67 1.32 12.34 2.64 12 4 C10.35 4.33 8.7 4.66 7 5 C6.34 10.28 5.68 15.56 5 21 C3.35 21 1.7 21 0 21 C0 14.07 0 7.14 0 0 Z " fill="#005A98" transform="translate(417,249)"/>
<path d="M0 0 C1.65 0 3.3 0 5 0 C5 9.24 5 18.48 5 28 C3.35 28 1.7 28 0 28 C0 18.76 0 9.52 0 0 Z " fill="#005C99" transform="translate(545,242)"/>
<path d="M0 0 C1.65 0 3.3 0 5 0 C5 9.24 5 18.48 5 28 C3.35 28 1.7 28 0 28 C0 18.76 0 9.52 0 0 Z " fill="#005C99" transform="translate(357,242)"/>
<path d="M0 0 C2.17890019 1.59652134 2.90414847 2.48127407 3.3984375 5.15625 C3.39070312 5.9296875 3.38296875 6.703125 3.375 7.5 C3.38273438 8.2734375 3.39046875 9.046875 3.3984375 9.84375 C2.90414847 12.51872593 2.17890019 13.40347866 0 15 C-6.10699588 15.65432099 -6.10699588 15.65432099 -8.6953125 13.7578125 C-10.34361055 11.53705165 -10.40244171 10.24417088 -10.375 7.5 C-10.38273438 6.7265625 -10.39046875 5.953125 -10.3984375 5.15625 C-9.3305481 -0.62291619 -5.10780837 -0.54726518 0 0 Z M-5 3 C-5.93380961 7.53140653 -5.93380961 7.53140653 -5 12 C-4.01 12 -3.02 12 -2 12 C-0.95785309 7.38492226 -0.95785309 7.38492226 -2 3 C-2.99 3 -3.98 3 -5 3 Z " fill="#00589D" transform="translate(636,255)"/>
<path d="M0 0 C7.06292967 -0.67265997 7.06292967 -0.67265997 9.73046875 1.2421875 C11.33458209 3.46326752 11.40220479 4.77952074 11.375 7.5 C11.38273438 8.2734375 11.39046875 9.046875 11.3984375 9.84375 C10.90414847 12.51872593 10.17890019 13.40347866 8 15 C1.89479871 15.65412871 1.89479871 15.65412871 -0.69921875 13.7578125 C-2.34904962 11.52831133 -2.3720759 10.2496568 -2.3125 7.5 C-2.30863281 6.7265625 -2.30476562 5.953125 -2.30078125 5.15625 C-2 3 -2 3 0 0 Z M3 3 C1.95785309 7.61507774 1.95785309 7.61507774 3 12 C3.99 12 4.98 12 6 12 C7.04214691 7.38492226 7.04214691 7.38492226 6 3 C5.01 3 4.02 3 3 3 Z " fill="#00599A" transform="translate(610,242)"/>
<path d="M0 0 C0.66 0 1.32 0 2 0 C2.27303259 27.30325929 2.27303259 27.30325929 -1 35 C-1.36871088 36.65919896 -1.71281674 38.3247643 -2 40 C-2.66 40 -3.32 40 -4 40 C-4.0825 41.19625 -4.165 42.3925 -4.25 43.625 C-4.7767929 48.04377027 -6.29865987 50.51439983 -9 54 C-10.35959196 49.92122411 -9.1465 48.10107458 -7.625 44.125 C-6.09023029 40.0865836 -4.69819911 36.27038058 -4 32 C-3.34 32 -2.68 32 -2 32 C-1.97494385 31.13721436 -1.9498877 30.27442871 -1.92407227 29.38549805 C-1.82888615 26.18176231 -1.72965556 22.97818463 -1.62768555 19.7746582 C-1.58439782 18.38864017 -1.54271836 17.00257094 -1.50268555 15.61645508 C-1.44483416 13.62308202 -1.38070224 11.62989435 -1.31640625 9.63671875 C-1.27974854 8.43748779 -1.24309082 7.23825684 -1.20532227 6.00268555 C-1 3 -1 3 0 0 Z " fill="#E4CA25" transform="translate(266,157)"/>
<path d="M0 0 C1.32 0 2.64 0 4 0 C2.74241557 4.06497208 1.23747765 7.67690212 -0.8203125 11.3984375 C-1.35527344 12.37167969 -1.89023437 13.34492188 -2.44140625 14.34765625 C-2.99699219 15.34667969 -3.55257812 16.34570312 -4.125 17.375 C-4.68832031 18.39722656 -5.25164063 19.41945313 -5.83203125 20.47265625 C-7.2169331 22.98425792 -8.60636455 25.49323719 -10 28 C-11.65 28 -13.3 28 -15 28 C-13.1514505 22.91387793 -10.58294652 18.21289146 -8.0625 13.4375 C-7.61970703 12.58736328 -7.17691406 11.73722656 -6.72070312 10.86132812 C-6.28822266 10.03955078 -5.85574219 9.21777344 -5.41015625 8.37109375 C-5.01965088 7.62786865 -4.62914551 6.88464355 -4.22680664 6.11889648 C-2.93276224 3.88386935 -1.75903281 1.89919692 0 0 Z " fill="#00579E" transform="translate(629,242)"/>
<path d="M0 0 C2.4375 0.8125 2.4375 0.8125 5 2 C5.33 2.99 5.66 3.98 6 5 C6.66 5 7.32 5 8 5 C12 9.47058824 12 9.47058824 12 12 C12.66 12 13.32 12 14 12 C14.33 12.66 14.66 13.32 15 14 C16.82164603 14.93234357 16.82164603 14.93234357 19.03515625 15.7265625 C19.84404297 16.0359375 20.65292969 16.3453125 21.48632812 16.6640625 C22.33646484 16.98117188 23.18660156 17.29828125 24.0625 17.625 C24.91650391 17.94984375 25.77050781 18.2746875 26.65039062 18.609375 C28.76463372 19.41255115 30.88113975 20.20910214 33 21 C32.505 20.071875 32.01 19.14375 31.5 18.1875 C30 15 30 15 30 12 C29.01 11.67 28.02 11.34 27 11 C27.33 9.68 27.66 8.36 28 7 C28.33 8.32 28.66 9.64 29 11 C29.66 11 30.32 11 31 11 C32.54296875 13.08203125 32.54296875 13.08203125 34.1875 15.8125 C34.73792969 16.70582031 35.28835938 17.59914063 35.85546875 18.51953125 C37 21 37 21 36 24 C31.44764141 24.58740111 28.31996255 22.972701 24.32421875 21.05078125 C22.21546986 20.0974141 20.22191245 19.49145874 18 18.875 C12.31256466 16.84541118 8.4996923 11.72296437 5 7 C5 6.34 5 5.68 5 5 C4.34 5 3.68 5 3 5 C1.375 3.625 1.375 3.625 0 2 C0 1.34 0 0.68 0 0 Z " fill="#D0B238" transform="translate(234,96)"/>
<path d="M0 0 C0 15.18 0 30.36 0 46 C-1.98 46.495 -1.98 46.495 -4 47 C-4 46.34 -4 45.68 -4 45 C-3.34 45 -2.68 45 -2 45 C-2 30.81 -2 16.62 -2 2 C-4.31 2.33 -6.62 2.66 -9 3 C-9 2.01 -9 1.02 -9 0 C-5.32211882 -1.22596039 -4.21550387 -0.84310077 0 0 Z " fill="#DABA15" transform="translate(247,167)"/>
<path d="M0 0 C0.33 0 0.66 0 1 0 C1.33389335 4.78580469 0.61029935 7.0362121 -2 11 C-2.45375 12.175625 -2.9075 13.35125 -3.375 14.5625 C-5.12350342 18.26125724 -6.55893614 19.84933509 -10 22 C-10.99 22 -11.98 22 -13 22 C-13.20720114 31.05370885 -13.20720114 31.05370885 -12 40 C-12.66 40 -13.32 40 -14 40 C-14 39.01 -14 38.02 -14 37 C-14.66 37 -15.32 37 -16 37 C-17.6414335 32.07569949 -17.41363809 28.22023236 -15.75 23.3125 C-13.46654022 18.99023685 -11.67958743 16.55986248 -7 15 C-5.75049948 12.44598152 -5.75049948 12.44598152 -4.8125 9.4375 C-4.29623047 7.91962891 -4.29623047 7.91962891 -3.76953125 6.37109375 C-3.51558594 5.58863281 -3.26164062 4.80617187 -3 4 C-2.34 4 -1.68 4 -1 4 C-0.67 2.68 -0.34 1.36 0 0 Z " fill="#30749E" transform="translate(79,160)"/>
<path d="M0 0 C1.67542976 0.28604898 3.34385343 0.61781233 5 1 C5.33 2.65 5.66 4.3 6 6 C6.99 6.33 7.98 6.66 9 7 C10.1875 9.0625 10.1875 9.0625 11 11 C8.53199953 9.84826645 6.95216435 8.95216435 5 7 C4.79639777 16.05391651 4.79639777 16.05391651 6 25 C6.66 25.66 7.32 26.32 8 27 C7.67 27.99 7.34 28.98 7 30 C6.01 29.34 5.02 28.68 4 28 C4 27.34 4 26.68 4 26 C3.34 26 2.68 26 2 26 C1.91697632 25.07719238 1.91697632 25.07719238 1.83227539 24.13574219 C1.57892518 21.34019004 1.32076306 18.54510238 1.0625 15.75 C0.97548828 14.78191406 0.88847656 13.81382812 0.79882812 12.81640625 C0.71181641 11.88183594 0.62480469 10.94726562 0.53515625 9.984375 C0.41732788 8.69611816 0.41732788 8.69611816 0.29711914 7.38183594 C0.05446858 5.00191232 0.05446858 5.00191232 -0.59594727 2.75097656 C-0.72928467 2.1731543 -0.86262207 1.59533203 -1 1 C-0.67 0.67 -0.34 0.34 0 0 Z " fill="#D4B536" transform="translate(93,220)"/>
<path d="M0 0 C1.65 0 3.3 0 5 0 C5 6.93 5 13.86 5 21 C3.35 21 1.7 21 0 21 C0 14.07 0 7.14 0 0 Z " fill="#005C99" transform="translate(537,249)"/>
<path d="M0 0 C0.66 1.32 1.32 2.64 2 4 C1.34 4 0.68 4 0 4 C-0.020625 5.03125 -0.04125 6.0625 -0.0625 7.125 C-1.2354021 16.55848403 -7.92494708 27.89049535 -14 35 C-14.66 35 -15.32 35 -16 35 C-16.061875 35.8353125 -16.061875 35.8353125 -16.125 36.6875 C-17.46930374 40.24030274 -20.00974189 41.70958953 -23 44 C-22.13152833 39.6393518 -19.74354929 36.82502128 -17 33.4375 C-13.40023468 29.07828376 -13.40023468 29.07828376 -11 24 C-10.34 24 -9.68 24 -9 24 C-8.67 22.35 -8.34 20.7 -8 19 C-7.34 19 -6.68 19 -6 19 C-5.85304688 18.07380859 -5.85304688 18.07380859 -5.703125 17.12890625 C-4.60941374 10.93435198 -2.79970361 5.62658881 0 0 Z " fill="#D4BD55" transform="translate(276,197)"/>
<path d="M0 0 C0.80993408 0.0028299 1.61986816 0.00565979 2.4543457 0.00857544 C5.01138834 0.01966535 7.56806535 0.04474798 10.125 0.0703125 C11.87108865 0.0803568 13.61718285 0.0894801 15.36328125 0.09765625 C19.61732585 0.11956784 23.87110119 0.15401868 28.125 0.1953125 C28.125 0.5253125 28.125 0.8553125 28.125 1.1953125 C27.08794922 1.23495117 26.05089844 1.27458984 24.98242188 1.31542969 C21.05272772 1.47014115 17.12427225 1.64711438 13.19580078 1.83007812 C11.51083214 1.90560568 9.8255981 1.97547268 8.14013672 2.0390625 C-3.41041181 2.47987055 -13.74222028 4.06483541 -24.875 7.1953125 C-26.53771562 7.54782586 -28.20303564 7.889659 -29.875 8.1953125 C-29.545 7.2053125 -29.215 6.2153125 -28.875 5.1953125 C-26.43359375 4.31640625 -26.43359375 4.31640625 -23.3125 3.6328125 C-21.79462891 3.29056641 -21.79462891 3.29056641 -20.24609375 2.94140625 C-19.13363281 2.69519531 -18.02117187 2.44898438 -16.875 2.1953125 C-15.66851807 1.85395264 -14.46203613 1.51259277 -13.21899414 1.16088867 C-8.76943227 0.04769389 -4.56724872 -0.06138453 0 0 Z " fill="#826D19" transform="translate(162.875,58.8046875)"/>
<path d="M0 0 C-4.455 1.485 -4.455 1.485 -9 3 C-9 3.66 -9 4.32 -9 5 C-7.88625 5.10183594 -6.7725 5.20367187 -5.625 5.30859375 C-0.54322888 5.94381514 4.15223035 7.45774676 9 9.0625 C10.30517578 9.48499023 10.30517578 9.48499023 11.63671875 9.91601562 C13.75997589 10.60432426 15.88088417 11.29906661 18 12 C18 12.66 18 13.32 18 14 C9.52878553 13.33559102 1.76766643 10.59877276 -6.25 7.91015625 C-8.49204721 7.16811506 -10.70083665 6.53057616 -13 6 C-12.67 4.35 -12.34 2.7 -12 1 C-4.5 -1.125 -4.5 -1.125 0 0 Z " fill="#2A74A1" transform="translate(118,153)"/>
<path d="M0 0 C0 0.66 0 1.32 0 2 C-1.11117187 2.31453125 -2.22234375 2.6290625 -3.3671875 2.953125 C-10.66857136 5.04545451 -17.78165055 7.19870765 -24.7890625 10.15234375 C-29.78939021 12.06943052 -34.65873317 13 -40 13 C-40 12.34 -40 11.68 -40 11 C-38.64652311 10.53963371 -37.292173 10.08183463 -35.9375 9.625 C-35.18339844 9.36976563 -34.42929687 9.11453125 -33.65234375 8.8515625 C-30.45511206 7.82505807 -27.22885029 6.92252865 -24 6 C-22.35969163 5.50062136 -20.72043376 4.99778398 -19.08203125 4.4921875 C-18.22029297 4.22792969 -17.35855469 3.96367187 -16.47070312 3.69140625 C-14.68566231 3.14317182 -12.90181706 2.5910307 -11.11914062 2.03515625 C-10.26126953 1.77347656 -9.40339844 1.51179687 -8.51953125 1.2421875 C-7.74714111 1.0035498 -6.97475098 0.76491211 -6.17895508 0.51904297 C-4 0 -4 0 0 0 Z " fill="#2770A0" transform="translate(297,141)"/>
<path d="M0 0 C0.99 0 1.98 0 3 0 C3.48367094 25.56014882 3.48367094 25.56014882 -1 34 C-1.16938829 22.63216352 -0.63922005 11.34615583 0 0 Z " fill="#DCBB30" transform="translate(279,161)"/>
<path d="M0 0 C0.66 0.33 1.32 0.66 2 1 C2.45132857 3.82891565 2.79653887 6.59055954 3.0625 9.4375 C3.39059465 14.88447892 3.39059465 14.88447892 5 20 C5.41067154 24.62005487 4.93664706 27.3545071 2 31 C-0.6875 32.3125 -0.6875 32.3125 -3 33 C-3 32.34 -3 31.68 -3 31 C-2.51015625 30.60683594 -2.0203125 30.21367187 -1.515625 29.80859375 C0.8152635 27.0271469 0.32355969 24.62646707 0.25 21.0625 C0.23976807 20.40169434 0.22953613 19.74088867 0.21899414 19.06005859 C0.10609512 13.74933953 -0.30854193 8.47646365 -0.87890625 3.1953125 C-0.91886719 2.47085938 -0.95882812 1.74640625 -1 1 C-0.67 0.67 -0.34 0.34 0 0 Z " fill="#3B7BAB" transform="translate(90,220)"/>
<path d="M0 0 C0 0.66 0 1.32 0 2 C-1.27875 2.2475 -2.5575 2.495 -3.875 2.75 C-7.23854997 3.49341213 -10.27507896 4.45403392 -13.4375 5.8125 C-18.35258329 7.8766792 -23.37030113 9.33140537 -28.5 10.75 C-29.30236084 10.97276611 -30.10472168 11.19553223 -30.93139648 11.42504883 C-36.72476811 13 -36.72476811 13 -39 13 C-39 12.34 -39 11.68 -39 11 C-30.8805968 7.8520758 -22.86137503 4.78445433 -14.40234375 2.66015625 C-12.03400171 2.00934356 -9.83391551 1.17940488 -7.5625 0.25 C-4.01089555 -0.996177 -3.33280732 -1.08407798 0 0 Z " fill="#25688F" transform="translate(228,163)"/>
<path d="M0 0 C-3.41016497 2.86453858 -6.90694544 4.34703566 -11 6 C-10.21496094 6.17015625 -9.42992187 6.3403125 -8.62109375 6.515625 C-2.40756532 7.94892972 2.66722086 9.48521375 8 13 C3.3201902 14.5599366 -0.50914434 12.69339406 -5.125 11.3125 C-6.05699219 11.05533203 -6.98898438 10.79816406 -7.94921875 10.53320312 C-8.83480469 10.27087891 -9.72039063 10.00855469 -10.6328125 9.73828125 C-11.44637207 9.50149658 -12.25993164 9.26471191 -13.09814453 9.02075195 C-15 8 -15 8 -15.77294922 5.89135742 C-15.84787598 5.26720947 -15.92280273 4.64306152 -16 4 C-5.62642369 -0.59225513 -5.62642369 -0.59225513 0 0 Z " fill="#245F80" transform="translate(59,131)"/>
<path d="M0 0 C12.87 0 25.74 0 39 0 C39.495 1.485 39.495 1.485 40 3 C26.47 3 12.94 3 -1 3 C-0.67 2.01 -0.34 1.02 0 0 Z " fill="#D3B223" transform="translate(153,273)"/>
<path d="M0 0 C0.66 0 1.32 0 2 0 C2 0.99 2 1.98 2 3 C-1.33614554 5.22409702 -4.14423489 5.92544251 -8 7 C-9.96773586 7.70533913 -11.91603491 8.45327028 -13.8671875 9.203125 C-17.5415803 10.57597506 -21.27160594 11.78309361 -25 13 C-25.33 12.34 -25.66 11.68 -26 11 C-25.34 11 -24.68 11 -24 11 C-24 10.34 -24 9.68 -24 9 C-22.96359375 8.66226563 -21.9271875 8.32453125 -20.859375 7.9765625 C-19.4895304 7.52620263 -18.11974166 7.07567286 -16.75 6.625 C-16.06808594 6.40328125 -15.38617188 6.1815625 -14.68359375 5.953125 C-11.93648743 5.0463132 -9.27806208 4.13903104 -6.6875 2.84375 C-4.41207149 1.70603575 -2.50426021 1.86087443 0 2 C0 1.34 0 0.68 0 0 Z " fill="#2C648A" transform="translate(159,135)"/>
<path d="M0 0 C0.33 0.99 0.66 1.98 1 3 C0.43410156 3.39832031 -0.13179687 3.79664062 -0.71484375 4.20703125 C-1.44832031 4.73683594 -2.18179688 5.26664062 -2.9375 5.8125 C-3.66839844 6.33457031 -4.39929688 6.85664062 -5.15234375 7.39453125 C-7.26883226 8.95867127 -7.26883226 8.95867127 -8 12 C-8.99 12 -9.98 12 -11 12 C-11 12.66 -11 13.32 -11 14 C-11.66 14 -12.32 14 -13 14 C-13.33 14.99 -13.66 15.98 -14 17 C-14.66 17 -15.32 17 -16 17 C-16 17.99 -16 18.98 -16 20 C-16.66 20 -17.32 20 -18 20 C-18.12375 20.639375 -18.2475 21.27875 -18.375 21.9375 C-18.58125 22.618125 -18.7875 23.29875 -19 24 C-19.66 24.33 -20.32 24.66 -21 25 C-21.66 24.34 -22.32 23.68 -23 23 C-19.68780878 18.31057463 -16.59346806 14.50554142 -12 11 C-11.1028125 9.824375 -11.1028125 9.824375 -10.1875 8.625 C-7.2468429 5.09621148 -3.73507967 2.63812666 0 0 Z " fill="#BEA53B" transform="translate(106,80)"/>
<path d="M0 0 C0 0.66 0 1.32 0 2 C0.68964844 1.9278125 1.37929687 1.855625 2.08984375 1.78125 C18.04575893 0.20535714 18.04575893 0.20535714 25 2 C21.16327717 4.55781522 18.05464013 4.25306456 13.61328125 4.1953125 C12.79627243 4.1924826 11.97926361 4.18965271 11.13749695 4.18673706 C8.52901541 4.17554541 5.9208777 4.1504429 3.3125 4.125 C1.54362475 4.11496888 -0.22525588 4.10584326 -1.99414062 4.09765625 C-6.32955949 4.07560942 -10.66472145 4.0410867 -15 4 C-14 2 -14 2 -10.875 0.875 C-7.09941262 0.02244801 -3.85361088 -0.15729024 0 0 Z " fill="#F3DE32" transform="translate(167,72)"/>
<path d="M0 0 C0.66 0 1.32 0 2 0 C1.5247412 1.64696604 1.04468109 3.29254728 0.5625 4.9375 C0.29566406 5.85402344 0.02882813 6.77054688 -0.24609375 7.71484375 C-1 10 -1 10 -2 11 C-2.23192865 12.51469448 -2.41215238 14.03754562 -2.5625 15.5625 C-2.64628906 16.38878906 -2.73007813 17.21507812 -2.81640625 18.06640625 C-2.87699219 18.70449219 -2.93757813 19.34257812 -3 20 C-2.01 20.33 -1.02 20.66 0 21 C0 22.32 0 23.64 0 25 C-0.66 25 -1.32 25 -2 25 C-3.04892238 23.36368108 -4.04906703 21.69514137 -5 20 C-5.33 19.67 -5.66 19.34 -6 19 C-6.54661016 12.30402558 -4.94943029 7.11908846 -1.4375 1.5 C-0.963125 1.005 -0.48875 0.51 0 0 Z " fill="#447FA5" transform="translate(92,159)"/>
<path d="M0 0 C4.455 0.99 4.455 0.99 9 2 C9.63531905 8.03553102 7.34472669 12.6002827 5 18 C4.32854569 19.66474362 3.66050642 21.33088242 3 23 C2.01 22.67 1.02 22.34 0 22 C1.33333333 18 2.66666667 14 4 10 C4.66 10 5.32 10 6 10 C5.89830839 7.05272465 5.89830839 7.05272465 5 4 C2.53744315 2.54708727 2.53744315 2.54708727 0 2 C0 1.34 0 0.68 0 0 Z " fill="#E0C341" transform="translate(70,149)"/>
<path d="M0 0 C0.33 0 0.66 0 1 0 C0.67 3.63 0.34 7.26 0 11 C-0.66 11 -1.32 11 -2 11 C-2.0825 12.19625 -2.165 13.3925 -2.25 14.625 C-2.7767929 19.04377027 -4.29865987 21.51439983 -7 25 C-8.35959196 20.92122411 -7.1465 19.10107458 -5.625 15.125 C-4.09023029 11.0865836 -2.69819911 7.27038058 -2 3 C-1.34 3 -0.68 3 0 3 C0 2.01 0 1.02 0 0 Z " fill="#E9CE5B" transform="translate(264,186)"/>
<path d="M0 0 C2.64 0.33 5.28 0.66 8 1 C8 1.66 8 2.32 8 3 C12.29 3.33 16.58 3.66 21 4 C21.33 4.99 21.66 5.98 22 7 C14.40100624 6.53112592 6.88459027 5.44229513 0 2 C0 1.34 0 0.68 0 0 Z " fill="#D4B52D" transform="translate(139,255)"/>
<path d="M0 0 C0.66 0 1.32 0 2 0 C1.35927181 4.8676216 -0.64821301 8.84714225 -2.8125 13.1875 C-3.15603516 13.91130859 -3.49957031 14.63511719 -3.85351562 15.38085938 C-6.46502126 20.64796735 -6.46502126 20.64796735 -9.26171875 22.48828125 C-9.83535156 22.65714844 -10.40898438 22.82601562 -11 23 C-9.68938409 18.76570244 -8.05643741 14.92592596 -6 11 C-5.34 11 -4.68 11 -4 11 C-3.8453125 9.6696875 -3.8453125 9.6696875 -3.6875 8.3125 C-2.98284093 4.9173245 -2.0445434 2.78057902 0 0 Z " fill="#73A9C3" transform="translate(69,219)"/>
<path d="M0 0 C5.61 0 11.22 0 17 0 C16.67 0.99 16.34 1.98 16 3 C10.61509359 3.91657981 5.45769811 4.11138159 0 4 C0 2.68 0 1.36 0 0 Z " fill="#C4A627" transform="translate(168,260)"/>
<path d="M0 0 C0.66 0 1.32 0 2 0 C1.125 4.75 1.125 4.75 0 7 C-0.66 7 -1.32 7 -2 7 C-2.0825 7.7425 -2.165 8.485 -2.25 9.25 C-3.15099419 12.55364537 -4.49924588 13.72658717 -7 16 C-7.66 16.99 -8.32 17.98 -9 19 C-9.66 19 -10.32 19 -11 19 C-11 19.66 -11 20.32 -11 21 C-11.66 21 -12.32 21 -13 21 C-12.34 19.35 -11.68 17.7 -11 16 C-10.34 16 -9.68 16 -9 16 C-8.7421875 15.46890625 -8.484375 14.9378125 -8.21875 14.390625 C-6.72555397 11.46166356 -5.12816182 8.60618218 -3.5 5.75 C-2.8915625 4.67234375 -2.283125 3.5946875 -1.65625 2.484375 C-0.83640625 1.25460938 -0.83640625 1.25460938 0 0 Z " fill="#C6B165" transform="translate(254,211)"/>
<path d="M0 0 C5.94 1.485 5.94 1.485 12 3 C12 4.32 12 5.64 12 7 C9.36 7.66 6.72 8.32 4 9 C3.67 8.01 3.34 7.02 3 6 C3.99 6 4.98 6 6 6 C6 5.34 6 4.68 6 4 C5.01 4 4.02 4 3 4 C3 3.34 3 2.68 3 2 C2.01 2 1.02 2 0 2 C0 1.34 0 0.68 0 0 Z " fill="#3079A0" transform="translate(296,133)"/>
<path d="M0 0 C4.26601407 0.38089411 7.91643468 0.84386553 11.875 2.5 C16.47353047 4.37788595 21.07760526 4.70748064 26 5 C23.33788628 6.37579827 20.93703384 7.37063561 18 8 C18 7.34 18 6.68 18 6 C16.88625 5.9175 15.7725 5.835 14.625 5.75 C9.3848781 5.12080974 4.79758766 3.11369129 0 1 C0 0.67 0 0.34 0 0 Z " fill="#31749E" transform="translate(155,173)"/>
<path d="M0 0 C0.66 0.33 1.32 0.66 2 1 C1.67 1.66 1.34 2.32 1 3 C0.6694867 8.40486458 0.88266106 13.69264005 2 19 C1.34 19 0.68 19 0 19 C0 18.01 0 17.02 0 16 C-0.66 16 -1.32 16 -2 16 C-3.486285 11.54114499 -3.52346063 7.60527927 -2.0625 3.125 C-1 1 -1 1 0 0 Z " fill="#3F85B2" transform="translate(65,181)"/>
<path d="M0 0 C0.66 1.32 1.32 2.64 2 4 C2.66 4 3.32 4 4 4 C5.54296875 6.08203125 5.54296875 6.08203125 7.1875 8.8125 C7.73792969 9.70582031 8.28835938 10.59914063 8.85546875 11.51953125 C10 14 10 14 9 17 C6.625 17.1875 6.625 17.1875 4 17 C3.34 16.01 2.68 15.02 2 14 C3.32 14 4.64 14 6 14 C5.505 13.071875 5.01 12.14375 4.5 11.1875 C3 8 3 8 3 5 C2.01 4.67 1.02 4.34 0 4 C0 2.68 0 1.36 0 0 Z " fill="#B9A447" transform="translate(261,103)"/>
<path d="M0 0 C0.33 0.66 0.66 1.32 1 2 C2.88311102 2.23538888 4.7675003 2.46366851 6.65625 2.6484375 C10.59902463 3.23985369 14.26997466 4.62714345 18 6 C18 6.99 18 7.98 18 9 C11.61435743 8.18132788 5.38079365 6.58719576 0 3 C0 2.01 0 1.02 0 0 Z " fill="#2B8CB3" transform="translate(251,116)"/>
<path d="M0 0 C0.66 0.33 1.32 0.66 2 1 C2.28629777 6.53509023 2.26719764 10.26819653 -1 15 C-3.6875 16.375 -3.6875 16.375 -6 17 C-6 16.34 -6 15.68 -6 15 C-5.34 15 -4.68 15 -4 15 C-3.67 13.68 -3.34 12.36 -3 11 C-2.34 11 -1.68 11 -1 11 C-1.01160156 10.28972656 -1.02320312 9.57945312 -1.03515625 8.84765625 C-1.04869141 7.46900391 -1.04869141 7.46900391 -1.0625 6.0625 C-1.07410156 5.14597656 -1.08570312 4.22945312 -1.09765625 3.28515625 C-1 1 -1 1 0 0 Z " fill="#4481AE" transform="translate(93,185)"/>
<path d="M0 0 C6.04801071 0.54981916 11.30601106 1.90429574 17 4 C17 4.66 17 5.32 17 6 C17.99 6 18.98 6 20 6 C19.67 6.66 19.34 7.32 19 8 C15.7 7.34 12.4 6.68 9 6 C9 5.34 9 4.68 9 4 C4.545 3.01 4.545 3.01 0 2 C0 1.34 0 0.68 0 0 Z " fill="#2EC8ED" transform="translate(122,172)"/>
<path d="M0 0 C0 0.66 0 1.32 0 2 C-0.54527344 2.10957031 -1.09054688 2.21914062 -1.65234375 2.33203125 C-6.62105884 3.37673545 -11.30387654 4.71526514 -16.0546875 6.51171875 C-18 7 -18 7 -21 6 C-4.58204851 -1.48688991 -4.58204851 -1.48688991 0 0 Z " fill="#2E6E99" transform="translate(228,163)"/>
<path d="M0 0 C0.99 0 1.98 0 3 0 C3 0.66 3 1.32 3 2 C2.34 2 1.68 2 1 2 C1 13.88 1 25.76 1 38 C0.67 38 0.34 38 0 38 C-0.16723026 32.74912156 -0.32782815 27.49809906 -0.48217773 22.24682617 C-0.53567402 20.45900968 -0.59100904 18.67124725 -0.64819336 16.88354492 C-0.72989235 14.31961734 -0.80505945 11.75557047 -0.87890625 9.19140625 C-0.90594131 8.3872377 -0.93297638 7.58306915 -0.96083069 6.75453186 C-1.01285627 4.83701578 -1.01187441 2.91818497 -1 1 C-0.67 0.67 -0.34 0.34 0 0 Z " fill="#2DC1E9" transform="translate(103,166)"/>
<path d="M0 0 C2.97 0.33 5.94 0.66 9 1 C9 1.66 9 2.32 9 3 C10.918125 3.185625 10.918125 3.185625 12.875 3.375 C16.75 3.75 16.75 3.75 19 6 C15.55860159 7.18422255 13.49050031 6.80199625 10.0625 5.6875 C8.75345703 5.26597656 8.75345703 5.26597656 7.41796875 4.8359375 C4.90916733 3.96859743 2.43618195 3.05567884 0 2 C0 1.34 0 0.68 0 0 Z " fill="#245F8B" transform="translate(137,167)"/>
<path d="M0 0 C-6.89384769 3.65247435 -14.28189495 5.28536064 -22 6 C-22 5.34 -22 4.68 -22 4 C-14.50811985 1.35286902 -8.02072623 -0.16041452 0 0 Z " fill="#256493" transform="translate(279,148)"/>
<path d="M0 0 C-3.31257082 2.20838055 -6.63416025 3.38286788 -10.375 4.625 C-11.035 4.85445312 -11.695 5.08390625 -12.375 5.3203125 C-16.02421532 6.54156384 -19.14816234 7.28256724 -23 7 C-20.30911724 5.20607816 -17.98862913 4.10715694 -15 2.9375 C-14.13375 2.59589844 -13.2675 2.25429687 -12.375 1.90234375 C-8.01431785 0.24557142 -4.67085499 -0.08812934 0 0 Z " fill="#3175A7" transform="translate(183,125)"/>
<path d="M0 0 C0.33 0 0.66 0 1 0 C1.33 7.26 1.66 14.52 2 22 C2.99 22 3.98 22 5 22 C5.33 21.01 5.66 20.02 6 19 C6.99 19.33 7.98 19.66 9 20 C6.51015791 22.75661088 4.79450934 24.60746455 1 25 C0 24 0 24 -0.11352539 21.68334961 C-0.10828857 20.68311768 -0.10305176 19.68288574 -0.09765625 18.65234375 C-0.09443359 17.57275391 -0.09121094 16.49316406 -0.08789062 15.38085938 C-0.07951172 14.24455078 -0.07113281 13.10824219 -0.0625 11.9375 C-0.05798828 10.79732422 -0.05347656 9.65714844 -0.04882812 8.48242188 C-0.03699747 5.65489649 -0.0205141 2.8274736 0 0 Z " fill="#B1962F" transform="translate(63,152)"/>
<path d="M0 0 C2.0625 0.4375 2.0625 0.4375 4 1 C4.36263859 6.8022175 3.25684543 10.63999211 1 16 C0.34 16 -0.32 16 -1 16 C-0.34 11.38 0.32 6.76 1 2 C0.34 1.67 -0.32 1.34 -1 1 C-0.67 0.67 -0.34 0.34 0 0 Z " fill="#37759D" transform="translate(72,202)"/>
<path d="M0 0 C0.66 1.32 1.32 2.64 2 4 C1.34 4 0.68 4 0 4 C-0.1546875 5.7634375 -0.1546875 5.7634375 -0.3125 7.5625 C-0.82914958 11.82485903 -2.1508361 15.14087534 -4 19 C-4.66 19 -5.32 19 -6 19 C-4.91081033 12.13523882 -3.09761199 6.22529789 0 0 Z " fill="#D9C059" transform="translate(276,197)"/>
<path d="M0 0 C2.00720923 0.28674418 4.0085944 0.61866701 6 1 C3.23944978 2.84036681 1.25401883 3.68344114 -1.875 4.625 C-2.71804687 4.88539063 -3.56109375 5.14578125 -4.4296875 5.4140625 C-7.04224458 6.00963022 -9.33041371 6.10525251 -12 6 C-11.34 5.67 -10.68 5.34 -10 5 C-10 4.34 -10 3.68 -10 3 C-9.04287109 2.80083984 -9.04287109 2.80083984 -8.06640625 2.59765625 C-7.24011719 2.42105469 -6.41382813 2.24445313 -5.5625 2.0625 C-4.32693359 1.80146484 -4.32693359 1.80146484 -3.06640625 1.53515625 C-1.02338796 1.19247006 -1.02338796 1.19247006 0 0 Z " fill="#BCA229" transform="translate(197,180)"/>
<path d="M0 0 C-2.79189666 1.42767443 -5.61603038 2.70786227 -8.5 3.9375 C-11.65367226 5.32470015 -14.37794815 6.71995492 -17 9 C-17.33 8.01 -17.66 7.02 -18 6 C-17.38125 5.9175 -16.7625 5.835 -16.125 5.75 C-13.81653196 5.21189267 -13.81653196 5.21189267 -13 3 C-12 1 -12 1 -10.375 0.25 C-6.90262273 -0.1155134 -3.49135702 -0.05818928 0 0 Z " fill="#275C84" transform="translate(111,151)"/>
<path d="M0 0 C0.33 0 0.66 0 1 0 C1 2.64 1 5.28 1 8 C2.65 8.33 4.3 8.66 6 9 C6 9.66 6 10.32 6 11 C8.64 11.33 11.28 11.66 14 12 C14.33 12.99 14.66 13.98 15 15 C11.30099992 14.11223998 7.65449539 13.05418136 4 12 C4 11.34 4 10.68 4 10 C2.68 10 1.36 10 0 10 C0 6.7 0 3.4 0 0 Z " fill="#2DC3E4" transform="translate(103,204)"/>
<path d="M0 0 C0 3.63 0 7.26 0 11 C-0.33 11 -0.66 11 -1 11 C-1.33 8.03 -1.66 5.06 -2 2 C-4.31 2.33 -6.62 2.66 -9 3 C-9 2.01 -9 1.02 -9 0 C-5.32211882 -1.22596039 -4.21550387 -0.84310077 0 0 Z " fill="#CDAC21" transform="translate(247,167)"/>
<path d="M0 0 C2.31 0.33 4.62 0.66 7 1 C7.98120464 4.05263664 7.98120464 5.94736336 7 9 C6.34 9 5.68 9 5 9 C5 9.66 5 10.32 5 11 C4.34 11 3.68 11 3 11 C3.33 8.69 3.66 6.38 4 4 C2.68 3.34 1.36 2.68 0 2 C0 1.34 0 0.68 0 0 Z " fill="#3B7BA8" transform="translate(77,148)"/>
<path d="M0 0 C3.465 1.98 3.465 1.98 7 4 C7 4.66 7 5.32 7 6 C8.175625 6.4640625 8.175625 6.4640625 9.375 6.9375 C12 8 12 8 14 9 C14 9.66 14 10.32 14 11 C9.96678237 9.78065514 6.45730521 8.44045073 3 6 C3 5.34 3 4.68 3 4 C1.68 3.34 0.36 2.68 -1 2 C-0.67 1.34 -0.34 0.68 0 0 Z " fill="#D9BE35" transform="translate(105,251)"/>
<path d="M0 0 C0.66 0.33 1.32 0.66 2 1 C-0.87444093 4.03413209 -3.29141347 6.14570673 -7 8 C-7.33 8.99 -7.66 9.98 -8 11 C-8.66 11 -9.32 11 -10 11 C-10 11.66 -10 12.32 -10 13 C-11.32 12.67 -12.64 12.34 -14 12 C-12.8803014 10.99406757 -11.7540588 9.9954151 -10.625 9 C-9.99851563 8.443125 -9.37203125 7.88625 -8.7265625 7.3125 C-7 6 -7 6 -5 6 C-5 5.34 -5 4.68 -5 4 C-3.37373596 2.61767557 -1.7074998 1.28062485 0 0 Z " fill="#D6BA52" transform="translate(251,241)"/>
<path d="M0 0 C0 0.66 0 1.32 0 2 C-6.625 6 -6.625 6 -10 6 C-10 6.66 -10 7.32 -10 8 C-11.98 8.66 -13.96 9.32 -16 10 C-16 9.34 -16 8.68 -16 8 C-13.92111288 6.52313012 -11.86716626 5.18604262 -9.6875 3.875 C-9.09259766 3.50246094 -8.49769531 3.12992188 -7.88476562 2.74609375 C-3.38338484 0 -3.38338484 0 0 0 Z " fill="#C8AB37" transform="translate(211,227)"/>
<path d="M0 0 C1.65 0.33 3.3 0.66 5 1 C5 1.66 5 2.32 5 3 C7.64 3.33 10.28 3.66 13 4 C13 4.99 13 5.98 13 7 C10.03 6.505 10.03 6.505 7 6 C7 5.34 7 4.68 7 4 C3.7 3.67 0.4 3.34 -3 3 C-2.01 2.67 -1.02 2.34 0 2 C0 1.34 0 0.68 0 0 Z " fill="#2DB6DD" transform="translate(157,182)"/>
<path d="M0 0 C0.99 0 1.98 0 3 0 C1.73809862 3.78570414 0.45144185 4.21831571 -2.9375 6.1875 C-3.83339844 6.71730469 -4.72929688 7.24710937 -5.65234375 7.79296875 C-8 9 -8 9 -10 9 C-10.33 9.99 -10.66 10.98 -11 12 C-11.33 10.68 -11.66 9.36 -12 8 C-9 6 -9 6 -6 6 C-6 5.34 -6 4.68 -6 4 C-4.35 3.67 -2.7 3.34 -1 3 C-0.67 2.01 -0.34 1.02 0 0 Z " fill="#C2A52E" transform="translate(125,84)"/>
<path d="M0 0 C0.78375 0.04125 1.5675 0.0825 2.375 0.125 C2.375 0.785 2.375 1.445 2.375 2.125 C5.675 2.455 8.975 2.785 12.375 3.125 C12.045 3.785 11.715 4.445 11.375 5.125 C5.61216896 5.57996035 0.76931697 3.91599852 -4.625 2.125 C-2.625 0.125 -2.625 0.125 0 0 Z " fill="#23AFD3" transform="translate(108.625,166.875)"/>
<path d="M0 0 C0.66 0 1.32 0 2 0 C2 0.66 2 1.32 2 2 C1.34 2 0.68 2 0 2 C-0.226875 2.639375 -0.45375 3.27875 -0.6875 3.9375 C-5.54545455 15.27272727 -5.54545455 15.27272727 -9 17 C-7.69573151 10.33373883 -4.39708176 5.1541265 0 0 Z " fill="#D8C35E" transform="translate(83,104)"/>
<path d="M0 0 C0 0.66 0 1.32 0 2 C-2.12392506 2.6700834 -4.24917524 3.33596797 -6.375 4 C-7.55835938 4.37125 -8.74171875 4.7425 -9.9609375 5.125 C-13 6 -13 6 -15 6 C-14 3 -14 3 -10.875 1.3125 C-7.20642866 -0.14581407 -3.94606007 -0.24159551 0 0 Z " fill="#E3BE30" transform="translate(149,76)"/>
<path d="M0 0 C0.66 0 1.32 0 2 0 C2 3.96 2 7.92 2 12 C1.34 12 0.68 12 0 12 C-1.5471219 9.5428064 -2.04484402 8.367721 -1.6875 5.4375 C-1.17232879 3.61098388 -0.60013019 1.80039058 0 0 Z " fill="#4F86A6" transform="translate(56,243)"/>
<path d="M0 0 C4.72065967 1.54269924 9.41664092 3.07794619 14 5 C13.67 5.66 13.34 6.32 13 7 C8.33333333 5.66666667 3.66666667 4.33333333 -1 3 C-0.67 2.01 -0.34 1.02 0 0 Z " fill="#CDAE26" transform="translate(250,111)"/>
<path d="M0 0 C5.31027254 1.46032495 9.46330032 3.98320986 14 7 C10.08428299 8.305239 8.96107003 7.32239848 5.3125 5.5625 C4.31863281 5.08941406 3.32476562 4.61632812 2.30078125 4.12890625 C1.54152344 3.75636719 0.78226563 3.38382812 0 3 C0 2.01 0 1.02 0 0 Z " fill="#C6A025" transform="translate(216,67)"/>
<path d="M0 0 C0 0.99 0 1.98 0 3 C-0.66 3 -1.32 3 -2 3 C-2.268125 3.639375 -2.53625 4.27875 -2.8125 4.9375 C-4 7 -4 7 -7 8 C-7 8.66 -7 9.32 -7 10 C-8.32 10 -9.64 10 -11 10 C-11 9.34 -11 8.68 -11 8 C-9.02053408 6.63636792 -7.0180755 5.30581356 -5 4 C-3.98198643 3.01834406 -2.9753197 2.02408568 -2 1 C-1.34 0.67 -0.68 0.34 0 0 Z " fill="#D5B73E" transform="translate(237,235)"/>
<path d="M0 0 C0.33 0 0.66 0 1 0 C1.5497272 5.63470383 -0.04952165 8.38987758 -3 13 C-3.66 13 -4.32 13 -5 13 C-4.34 10.03 -3.68 7.06 -3 4 C-2.34 4 -1.68 4 -1 4 C-0.67 2.68 -0.34 1.36 0 0 Z " fill="#5790B4" transform="translate(79,160)"/>
<path d="M0 0 C0 0.66 0 1.32 0 2 C-1.74784829 2.36463732 -3.49840502 2.7163078 -5.25 3.0625 C-6.71179688 3.35833984 -6.71179688 3.35833984 -8.203125 3.66015625 C-10.868119 3.98397535 -12.48871723 3.85503199 -15 3 C-9.63999211 0.74315457 -5.8022175 -0.36263859 0 0 Z " fill="#E5C037" transform="translate(167,72)"/>
<path d="M0 0 C-0.33 0.66 -0.66 1.32 -1 2 C-2.32 2.33 -3.64 2.66 -5 3 C-5.33 7.29 -5.66 11.58 -6 16 C-6.33 16 -6.66 16 -7 16 C-7 10.72 -7 5.44 -7 0 C-3.86650268 -1.04449911 -3.01031744 -0.93423645 0 0 Z " fill="#DCB92F" transform="translate(186,186)"/>
<path d="M0 0 C-1.98 0.33 -3.96 0.66 -6 1 C-6 1.66 -6 2.32 -6 3 C-8.64 3.33 -11.28 3.66 -14 4 C-14 3.01 -14 2.02 -14 1 C-12.41913952 0.63495397 -10.83516093 0.28339494 -9.25 -0.0625 C-8.36828125 -0.25972656 -7.4865625 -0.45695313 -6.578125 -0.66015625 C-4.01320972 -0.99825872 -2.42908361 -0.81158635 0 0 Z " fill="#DEBC34" transform="translate(233,172)"/>
<path d="M0 0 C1.65 0.33 3.3 0.66 5 1 C5.33 2.65 5.66 4.3 6 6 C6.99 6.33 7.98 6.66 9 7 C10.1875 9.0625 10.1875 9.0625 11 11 C7.64379729 9.61122646 5.92701272 8.08322035 4 5 C4 4.34 4 3.68 4 3 C2.35 3 0.7 3 -1 3 C-0.67 2.01 -0.34 1.02 0 0 Z " fill="#E2CB5E" transform="translate(93,220)"/>
<path d="M0 0 C0.33 0 0.66 0 1 0 C1 3.63 1 7.26 1 11 C1.99 11.33 2.98 11.66 4 12 C4 13.32 4 14.64 4 16 C3.34 16 2.68 16 2 16 C-1.13614991 12.01950204 -1.36152705 8.97099689 -1 4 C-0.5 1.5625 -0.5 1.5625 0 0 Z " fill="#5087AE" transform="translate(88,168)"/>
<path d="M0 0 C0 0.99 0 1.98 0 3 C-1.60256108 3.50512244 -3.20711792 4.00391627 -4.8125 4.5 C-6.15248047 4.91765625 -6.15248047 4.91765625 -7.51953125 5.34375 C-10 6 -10 6 -13 6 C-12.67 5.01 -12.34 4.02 -12 3 C-9.78515625 2.05078125 -9.78515625 2.05078125 -7.0625 1.3125 C-6.16660156 1.06113281 -5.27070313 0.80976562 -4.34765625 0.55078125 C-2 0 -2 0 0 0 Z " fill="#AB9327" transform="translate(146,61)"/>
<path d="M0 0 C-3.732388 3.57011026 -8.0949989 4.10913442 -13 5 C-13.33 4.34 -13.66 3.68 -14 3 C-9.07015675 0.96006486 -5.42039575 -0.40652968 0 0 Z " fill="#2A679F" transform="translate(59,131)"/>
<path d="M0 0 C0.66 0 1.32 0 2 0 C3.60725635 3.21451269 3.05748185 6.43612536 3 10 C2.01 10 1.02 10 0 10 C0 6.7 0 3.4 0 0 Z " fill="#CBAE39" transform="translate(279,150)"/>
<path d="M0 0 C4.75 0.875 4.75 0.875 7 2 C7 2.66 7 3.32 7 4 C7.99 4 8.98 4 10 4 C9.67 4.99 9.34 5.98 9 7 C4.545 5.02 4.545 5.02 0 3 C0 2.01 0 1.02 0 0 Z " fill="#D3B934" transform="translate(119,245)"/>
<path d="M0 0 C5.28 0 10.56 0 16 0 C16.33 0.99 16.66 1.98 17 3 C11.39 2.34 5.78 1.68 0 1 C0 0.67 0 0.34 0 0 Z " fill="#D8B82E" transform="translate(181,60)"/>
<path d="M0 0 C0.99 0.33 1.98 0.66 3 1 C2.43224464 2.29858939 1.84508337 3.58870441 1.25 4.875 C0.92515625 5.59429687 0.6003125 6.31359375 0.265625 7.0546875 C-1.21929686 9.3370674 -2.50415408 10.00375898 -5 11 C-3.77472971 6.94718288 -2.30119506 3.55639236 0 0 Z " fill="#5B99BA" transform="translate(63,231)"/>
<path d="M0 0 C-4.455 1.485 -4.455 1.485 -9 3 C-9 3.66 -9 4.32 -9 5 C-9.66 5 -10.32 5 -11 5 C-11.33 3.68 -11.66 2.36 -12 1 C-4.5 -1.125 -4.5 -1.125 0 0 Z " fill="#33719D" transform="translate(118,153)"/>
<path d="M0 0 C-2.05123248 2.05123248 -3.27005063 2.64147118 -5.9375 3.625 C-6.97197266 4.01558594 -6.97197266 4.01558594 -8.02734375 4.4140625 C-10 5 -10 5 -13 5 C-13 4.34 -13 3.68 -13 3 C-4.57142857 -0.42857143 -4.57142857 -0.42857143 0 0 Z " fill="#2E6E94" transform="translate(132,147)"/>
<path d="M0 0 C4.12751449 0.60698743 7.3321148 2.03810791 11 4 C6.74938644 5.41687119 4.28148375 4.19320039 0 3 C0 2.01 0 1.02 0 0 Z " fill="#2677A6" transform="translate(56,140)"/>
<path d="M0 0 C8.57142857 2 8.57142857 2 12 4 C12 4.33 12 4.66 12 5 C3.42857143 4.14285714 3.42857143 4.14285714 0 2 C0 1.34 0 0.68 0 0 Z " fill="#317099" transform="translate(196,98)"/>
<path d="M0 0 C3.63559661 3.43361902 6.36113346 6.7973607 9 11 C8.01 11 7.02 11 6 11 C4.6273318 9.02678947 3.29572383 7.02456848 2 5 C1.01 4.34 0.02 3.68 -1 3 C-0.67 2.01 -0.34 1.02 0 0 Z " fill="#C8AE44" transform="translate(252,92)"/>
<path d="M0 0 C-1.17744585 3.53233755 -1.95605641 3.86308075 -5.0625 5.6875 C-5.79597656 6.12449219 -6.52945313 6.56148437 -7.28515625 7.01171875 C-7.85105469 7.33785156 -8.41695312 7.66398438 -9 8 C-8.40279244 4.84143557 -8.08036011 4.07613063 -5.625 1.75 C-3 0 -3 0 0 0 Z " fill="#B29A2E" transform="translate(193,238)"/>
<path d="M0 0 C0.66 0.33 1.32 0.66 2 1 C2.4140625 3.50390625 2.4140625 3.50390625 2.625 6.5625 C2.69976562 7.57441406 2.77453125 8.58632812 2.8515625 9.62890625 C2.92503906 10.80259766 2.92503906 10.80259766 3 12 C2.34 12 1.68 12 1 12 C1 10.02 1 8.04 1 6 C0.34 6 -0.32 6 -1 6 C-1.042721 4.33388095 -1.04063832 2.66617115 -1 1 C-0.67 0.67 -0.34 0.34 0 0 Z " fill="#4992C4" transform="translate(90,220)"/>
<path d="M0 0 C0 0.66 0 1.32 0 2 C-1.24420647 2.5345256 -2.49570936 3.05208611 -3.75 3.5625 C-4.44609375 3.85253906 -5.1421875 4.14257812 -5.859375 4.44140625 C-8.30012784 5.07831803 -9.6403655 4.80248831 -12 4 C-8.54145481 0.54145481 -4.78095787 0 0 0 Z " fill="#CBAF2D" transform="translate(242,214)"/>
<path d="M0 0 C0.66 0 1.32 0 2 0 C2 0.99 2 1.98 2 3 C3.093125 2.95875 4.18625 2.9175 5.3125 2.875 C9 3 9 3 12 5 C7.48281619 6.36884358 4.41225737 5.47075246 0 4 C0 2.68 0 1.36 0 0 Z " fill="#295F82" transform="translate(105,155)"/>
<path d="M0 0 C1.48206495 0.254496 2.96068615 0.52911762 4.4375 0.8125 C5.67306641 1.03873047 5.67306641 1.03873047 6.93359375 1.26953125 C7.95646484 1.63111328 7.95646484 1.63111328 9 2 C9.33 2.99 9.66 3.98 10 5 C6.44219804 4.39009109 3.3171411 3.4216319 0 2 C0 1.34 0 0.68 0 0 Z " fill="#2E72A6" transform="translate(173,90)"/>
<path d="M0 0 C1.50433594 0.29197266 1.50433594 0.29197266 3.0390625 0.58984375 C4.19535156 0.82380859 4.19535156 0.82380859 5.375 1.0625 C5.375 1.3925 5.375 1.7225 5.375 2.0625 C1.085 2.0625 -3.205 2.0625 -7.625 2.0625 C-7.625 1.4025 -7.625 0.7425 -7.625 0.0625 C-4.81015955 -1.34492022 -3.05563887 -0.60402164 0 0 Z " fill="#BCA026" transform="translate(197.625,74.9375)"/>
<path d="M0 0 C3.33727786 1.17255709 5.77437487 2.18868404 8 5 C8 5.66 8 6.32 8 7 C6.68 7 5.36 7 4 7 C0 2.77777778 0 2.77777778 0 0 Z " fill="#B99F30" transform="translate(104,232)"/>
<path d="M0 0 C0.66 0 1.32 0 2 0 C2 1.65 2 3.3 2 5 C2.66 5 3.32 5 4 5 C4.33 7.64 4.66 10.28 5 13 C2.03472242 10.5546615 1.44417786 8.55397653 0.8125 4.8125 C0.65394531 3.91144531 0.49539062 3.01039063 0.33203125 2.08203125 C0.22246094 1.39496094 0.11289063 0.70789063 0 0 Z " fill="#4A94B7" transform="translate(85,203)"/>
<path d="M0 0 C3.375 0.3125 3.375 0.3125 7 1 C7.66 1.99 8.32 2.98 9 4 C6.03 3.67 3.06 3.34 0 3 C0 2.01 0 1.02 0 0 Z " fill="#2D81AC" transform="translate(270,124)"/>
<path d="M0 0 C0.33 0.99 0.66 1.98 1 3 C-0.12073862 3.83905565 -1.24674547 4.67107831 -2.375 5.5 C-3.00148438 5.9640625 -3.62796875 6.428125 -4.2734375 6.90625 C-6 8 -6 8 -8 8 C-8 7.34 -8 6.68 -8 6 C-6.25 4.4921875 -6.25 4.4921875 -4 2.875 C-3.2575 2.33617188 -2.515 1.79734375 -1.75 1.2421875 C-1.1725 0.83226563 -0.595 0.42234375 0 0 Z " fill="#B49A2F" transform="translate(106,80)"/>
<path d="M0 0 C3.3 0.99 6.6 1.98 10 3 C10 3.99 10 4.98 10 6 C8.35 5.67 6.7 5.34 5 5 C5 4.34 5 3.68 5 3 C2.525 2.01 2.525 2.01 0 1 C0 0.67 0 0.34 0 0 Z " fill="#329FC7" transform="translate(161,243)"/>
<path d="M0 0 C0.66 0.33 1.32 0.66 2 1 C0.7260411 3.03833424 -0.61061923 5.03852126 -2 7 C-2.66 7 -3.32 7 -4 7 C-4 7.66 -4 8.32 -4 9 C-4.66 9 -5.32 9 -6 9 C-5.34 7.35 -4.68 5.7 -4 4 C-3.34 4 -2.68 4 -2 4 C-1.34 2.68 -0.68 1.36 0 0 Z " fill="#CEB653" transform="translate(247,223)"/>
<path d="M0 0 C0.66 0 1.32 0 2 0 C1 4 1 4 0 8 C-0.99 7.67 -1.98 7.34 -3 7 C-1.125 1.125 -1.125 1.125 0 0 Z " fill="#CEB548" transform="translate(73,164)"/>
<path d="M0 0 C2.31 0.33 4.62 0.66 7 1 C6 3 6 3 4 4 C3.34 3.67 2.68 3.34 2 3 C1.67 3.99 1.34 4.98 1 6 C1 5.34 1 4.68 1 4 C0.34 3.67 -0.32 3.34 -1 3 C-0.67 2.01 -0.34 1.02 0 0 Z " fill="#B59222" transform="translate(65,147)"/>
<path d="M0 0 C1.8871875 0.061875 1.8871875 0.061875 3.8125 0.125 C0.13990617 2.57339588 -2.73398201 4.125 -7.1875 4.125 C-7.1875 3.465 -7.1875 2.805 -7.1875 2.125 C-4.09861478 0.06574319 -3.47814073 -0.1140374 0 0 Z " fill="#1E5584" transform="translate(159.1875,131.875)"/>
<path d="M0 0 C0.33 0.66 0.66 1.32 1 2 C3.32156597 2.40729228 5.6568787 2.74438677 8 3 C8.33 3.99 8.66 4.98 9 6 C5.26512223 5.5020163 3.18762365 5.12508244 0 3 C0 2.01 0 1.02 0 0 Z " fill="#2582AB" transform="translate(251,116)"/>
<path d="M0 0 C4.455 0.99 4.455 0.99 9 2 C9 2.66 9 3.32 9 4 C2.25 3.125 2.25 3.125 0 2 C0 1.34 0 0.68 0 0 Z " fill="#2D71A9" transform="translate(212,104)"/>
<path d="M0 0 C0 0.66 0 1.32 0 2 C-1.98 2.33 -3.96 2.66 -6 3 C-6 3.66 -6 4.32 -6 5 C-7.32 5 -8.64 5 -10 5 C-9.67 4.01 -9.34 3.02 -9 2 C-5.82757352 0.68964993 -3.44118336 0 0 0 Z " fill="#2C749F" transform="translate(165,90)"/>
<path d="M0 0 C-0.33 0.66 -0.66 1.32 -1 2 C-1.94875 1.979375 -2.8975 1.95875 -3.875 1.9375 C-6.90666283 1.77448174 -6.90666283 1.77448174 -9 3 C-9 2.34 -9 1.68 -9 1 C-9.66 0.67 -10.32 0.34 -11 0 C-6.94952424 -1.35015859 -4.2079832 -0.62084998 0 0 Z " fill="#1B6588" transform="translate(174,89)"/>
<path d="M0 0 C4.42761914 1.39153744 6.9556255 3.52071486 10 7 C10 7.66 10 8.32 10 9 C8 9 8 9 5.5625 6.75 C3.52995714 4.5687345 1.71180852 2.43257 0 0 Z " fill="#DEBF3A" transform="translate(238,81)"/>
<path d="M0 0 C2.97 0 5.94 0 9 0 C8.67 0.99 8.34 1.98 8 3 C5.125 3.1875 5.125 3.1875 2 3 C1.34 2.01 0.68 1.02 0 0 Z " fill="#9C831A" transform="translate(176,260)"/>
<path d="M0 0 C0.33 0.99 0.66 1.98 1 3 C-0.65 4.32 -2.3 5.64 -4 7 C-6 6 -6 6 -7 4 C-5.35 3.67 -3.7 3.34 -2 3 C-2 2.34 -2 1.68 -2 1 C-1.34 0.67 -0.68 0.34 0 0 Z " fill="#AA8E25" transform="translate(221,246)"/>
<path d="M0 0 C-0.33 0.99 -0.66 1.98 -1 3 C-3.64 3.33 -6.28 3.66 -9 4 C-8.34 3.67 -7.68 3.34 -7 3 C-7 2.34 -7 1.68 -7 1 C-4.50935112 0.31292445 -2.62113708 0 0 0 Z " fill="#E4C42B" transform="translate(217,175)"/>
<path d="M0 0 C7.75 0.875 7.75 0.875 10 2 C10 2.66 10 3.32 10 4 C6.53058454 3.54177532 3.32604951 3.10868317 0 2 C0 1.34 0 0.68 0 0 Z " fill="#33BCD9" transform="translate(122,172)"/>
<path d="M0 0 C0.66 0.66 1.32 1.32 2 2 C-0.31 3.32 -2.62 4.64 -5 6 C-5.66 5.34 -6.32 4.68 -7 4 C-4.77810176 1.77810176 -2.91517292 1.07401108 0 0 Z " fill="#C1A827" transform="translate(97,109)"/>
<path d="M0 0 C2.29013653 3.4352048 2.17842973 4.985331 2 9 C0.68 9.33 -0.64 9.66 -2 10 C-2 9.34 -2 8.68 -2 8 C-1.34 8 -0.68 8 0 8 C0 5.36 0 2.72 0 0 Z " fill="#DBB61E" transform="translate(245,204)"/>
<path d="M0 0 C2.64 0 5.28 0 8 0 C7.67 0.66 7.34 1.32 7 2 C4.93359375 2.6328125 4.93359375 2.6328125 2.4375 3.125 C1.19806641 3.37636719 1.19806641 3.37636719 -0.06640625 3.6328125 C-0.70449219 3.75398437 -1.34257812 3.87515625 -2 4 C-2 3.34 -2 2.68 -2 2 C-1.34 2 -0.68 2 0 2 C0 1.34 0 0.68 0 0 Z " fill="#226EA6" transform="translate(135,144)"/>
<path d="M0 0 C0.66 0 1.32 0 2 0 C2 0.99 2 1.98 2 3 C-1.4352048 5.29013653 -2.985331 5.17842973 -7 5 C-6.01 4.67 -5.02 4.34 -4 4 C-4 3.34 -4 2.68 -4 2 C-2.68 2 -1.36 2 0 2 C0 1.34 0 0.68 0 0 Z " fill="#2B7EAB" transform="translate(159,135)"/>
<path d="M0 0 C2.64 0.33 5.28 0.66 8 1 C8.33 1.99 8.66 2.98 9 4 C5.65626525 3.44271087 2.96687001 2.64826111 0 1 C0 0.67 0 0.34 0 0 Z " fill="#3081AF" transform="translate(231,111)"/>
<path d="M0 0 C0 0.66 0 1.32 0 2 C-4.455 3.485 -4.455 3.485 -9 5 C-8.67 4.01 -8.34 3.02 -8 2 C-5.27366306 0.89786379 -2.95855967 0 0 0 Z " fill="#2D77AE" transform="translate(127,104)"/>
<path d="M0 0 C2.76276177 0.52268466 5.3260876 1.10869587 8 2 C8 2.66 8 3.32 8 4 C3.545 3.01 3.545 3.01 -1 2 C-0.67 1.34 -0.34 0.68 0 0 Z " fill="#DBBC2B" transform="translate(120,262)"/>
<path d="M0 0 C1.32 0.33 2.64 0.66 4 1 C0.535 3.97 0.535 3.97 -3 7 C-2 3 -2 3 0 0 Z " fill="#BA9F3B" transform="translate(256,234)"/>
<path d="M0 0 C0.66 0.33 1.32 0.66 2 1 C2 2.98 2 4.96 2 7 C1.01 7.495 1.01 7.495 0 8 C-0.38063221 5.6739143 -0.71269945 3.33944736 -1 1 C-0.67 0.67 -0.34 0.34 0 0 Z " fill="#D8BC37" transform="translate(265,180)"/>
<path d="M0 0 C0 0.99 0 1.98 0 3 C-2.31 3.33 -4.62 3.66 -7 4 C-7 3.01 -7 2.02 -7 1 C-4.50935112 0.31292445 -2.62113708 0 0 0 Z " fill="#2272AE" transform="translate(83,121)"/>
<path d="M0 0 C1.32 0 2.64 0 4 0 C4 0.66 4 1.32 4 2 C4.99 2.33 5.98 2.66 7 3 C7.33 3.99 7.66 4.98 8 6 C4.63408134 4.55746343 2.48952921 2.66735273 0 0 Z " fill="#2C9ABA" transform="translate(151,235)"/>
<path d="M0 0 C2.97 0.33 5.94 0.66 9 1 C9.33 1.99 9.66 2.98 10 4 C6.58978257 3.21302675 3.31114834 2.12880057 0 1 C0 0.67 0 0.34 0 0 Z " fill="#2DA2C3" transform="translate(108,215)"/>
<path d="M0 0 C1.65 0.33 3.3 0.66 5 1 C5.33 1.99 5.66 2.98 6 4 C3.03 3.67 0.06 3.34 -3 3 C-2.01 2.67 -1.02 2.34 0 2 C0 1.34 0 0.68 0 0 Z " fill="#219BB9" transform="translate(157,182)"/>
<path d="M0 0 C2.76276177 0.52268466 5.3260876 1.10869587 8 2 C8 2.66 8 3.32 8 4 C2.25 3.125 2.25 3.125 0 2 C0 1.34 0 0.68 0 0 Z " fill="#2F76A4" transform="translate(187,95)"/>
<path d="M0 0 C4.24822374 0.47202486 6.19989709 2.96655518 9 6 C5.06326356 4.68775452 2.77280706 3.08089673 0 0 Z " fill="#C9AE37" transform="translate(223,88)"/>
<path d="M0 0 C3.3 0.99 6.6 1.98 10 3 C9.01 3.66 8.02 4.32 7 5 C4.95703125 4.5390625 4.95703125 4.5390625 2.8125 3.625 C2.09707031 3.32851562 1.38164062 3.03203125 0.64453125 2.7265625 C0.10183594 2.48679687 -0.44085938 2.24703125 -1 2 C-0.67 1.34 -0.34 0.68 0 0 Z " fill="#EBCD32" transform="translate(206,79)"/>
<path d="M0 0 C2.4375 0.375 2.4375 0.375 5 1 C5.33 1.66 5.66 2.32 6 3 C3.69 3 1.38 3 -1 3 C-0.67 2.01 -0.34 1.02 0 0 Z " fill="#A88D29" transform="translate(153,273)"/>
<path d="M0 0 C3.465 1.98 3.465 1.98 7 4 C5.02 4.99 5.02 4.99 3 6 C3 5.34 3 4.68 3 4 C1.68 3.34 0.36 2.68 -1 2 C-0.67 1.34 -0.34 0.68 0 0 Z " fill="#B49C2D" transform="translate(105,251)"/>
<path d="M0 0 C1.32 0.33 2.64 0.66 4 1 C4 1.66 4 2.32 4 3 C5.32 3.66 6.64 4.32 8 5 C7.01 5.495 7.01 5.495 6 6 C3.28564404 5.06694014 2.21956837 4.37326623 0.75 1.875 C0.5025 1.25625 0.255 0.6375 0 0 Z " fill="#DDC13B" transform="translate(111,239)"/>
<path d="M0 0 C2 3 2 3 1.625 6.1875 C1.41875 7.115625 1.2125 8.04375 1 9 C0.34 8.67 -0.32 8.34 -1 8 C-1.04241723 5.66705225 -1.04092937 3.33297433 -1 1 C-0.67 0.67 -0.34 0.34 0 0 Z " fill="#E2C94A" transform="translate(266,172)"/>
<path d="M0 0 C2.31 0.33 4.62 0.66 7 1 C6.67 1.99 6.34 2.98 6 4 C4.02 3.34 2.04 2.68 0 2 C0 1.34 0 0.68 0 0 Z " fill="#257CAB" transform="translate(287,130)"/>
<path d="M0 0 C0.99 0 1.98 0 3 0 C2.67 0.99 2.34 1.98 2 3 C0.35 3 -1.3 3 -3 3 C-3 3.66 -3 4.32 -3 5 C-3.66 5 -4.32 5 -5 5 C-5 4.01 -5 3.02 -5 2 C-3.35 2 -1.7 2 0 2 C0 1.34 0 0.68 0 0 Z " fill="#3582B2" transform="translate(184,126)"/>
<path d="M0 0 C2.875 0.25 2.875 0.25 6 1 C7.375 3.0625 7.375 3.0625 8 5 C5.33333333 3.66666667 2.66666667 2.33333333 0 1 C0 0.67 0 0.34 0 0 Z " fill="#CAAB2D" transform="translate(214,83)"/>
<path d="M0 0 C1.65 0 3.3 0 5 0 C5 0.99 5 1.98 5 3 C3.35 3 1.7 3 0 3 C0 2.01 0 1.02 0 0 Z " fill="#005C99" transform="translate(537,242)"/>
<path d="M0 0 C1.65 0 3.3 0 5 0 C5 0.99 5 1.98 5 3 C3.35 3 1.7 3 0 3 C0 2.01 0 1.02 0 0 Z " fill="#005C99" transform="translate(387,242)"/>
</svg>
